<mxfile host="app.diagrams.net" modified="2021-03-16T13:49:08.432Z" agent="5.0 (Windows NT 10.0; Win64; x64) AppleWebKit/537.36 (KHTML, like Gecko) Chrome/89.0.4389.82 Safari/537.36" etag="GRzjQSP8tSIVMT3rYiB3" version="14.4.4" type="github" pages="2">
  <diagram id="C5RBs43oDa-KdzZeNtuy" name="Workflow/Questions">
    <mxGraphModel dx="1635" dy="866" grid="1" gridSize="10" guides="1" tooltips="1" connect="1" arrows="1" fold="1" page="1" pageScale="1" pageWidth="827" pageHeight="1169" math="0" shadow="0">
      <root>
        <mxCell id="WIyWlLk6GJQsqaUBKTNV-0" />
        <mxCell id="WIyWlLk6GJQsqaUBKTNV-1" parent="WIyWlLk6GJQsqaUBKTNV-0" />
        <mxCell id="WIyWlLk6GJQsqaUBKTNV-2" value="" style="rounded=0;html=1;jettySize=auto;orthogonalLoop=1;fontSize=11;endArrow=block;endFill=0;endSize=8;strokeWidth=1;shadow=0;labelBackgroundColor=none;edgeStyle=orthogonalEdgeStyle;" parent="WIyWlLk6GJQsqaUBKTNV-1" source="WIyWlLk6GJQsqaUBKTNV-3" target="WIyWlLk6GJQsqaUBKTNV-6" edge="1">
          <mxGeometry relative="1" as="geometry" />
        </mxCell>
        <mxCell id="WIyWlLk6GJQsqaUBKTNV-3" value="Parent Dataset is Created" style="rounded=1;whiteSpace=wrap;html=1;fontSize=10;glass=0;strokeWidth=1;shadow=0;" parent="WIyWlLk6GJQsqaUBKTNV-1" vertex="1">
          <mxGeometry x="160" y="80" width="120" height="40" as="geometry" />
        </mxCell>
        <mxCell id="WIyWlLk6GJQsqaUBKTNV-6" value="Allow Files to Be Saved in Parent?" style="rhombus;whiteSpace=wrap;html=1;shadow=0;fontFamily=Helvetica;fontSize=10;align=center;strokeWidth=1;spacing=6;spacingTop=-4;" parent="WIyWlLk6GJQsqaUBKTNV-1" vertex="1">
          <mxGeometry x="170" y="170" width="100" height="90" as="geometry" />
        </mxCell>
        <mxCell id="Qzo48M9Tub4ixmZhIlxQ-4" value="" style="edgeStyle=orthogonalEdgeStyle;rounded=0;orthogonalLoop=1;jettySize=auto;html=1;fontSize=10;endArrow=classic;endFill=0;" parent="WIyWlLk6GJQsqaUBKTNV-1" edge="1">
          <mxGeometry relative="1" as="geometry">
            <mxPoint x="330" y="209.44" as="sourcePoint" />
            <mxPoint x="430" y="209.44" as="targetPoint" />
            <Array as="points">
              <mxPoint x="300" y="209.44" />
            </Array>
          </mxGeometry>
        </mxCell>
        <mxCell id="WIyWlLk6GJQsqaUBKTNV-7" value="Present Two View Display - Parent Files and Children&lt;br&gt;Ex: 1800 Files&amp;nbsp; 5 Children" style="rounded=1;whiteSpace=wrap;html=1;fontSize=10;glass=0;strokeWidth=1;shadow=0;" parent="WIyWlLk6GJQsqaUBKTNV-1" vertex="1">
          <mxGeometry x="460" y="188" width="120" height="50" as="geometry" />
        </mxCell>
        <mxCell id="WIyWlLk6GJQsqaUBKTNV-11" value="Child Dataset is Auto Created" style="rounded=1;whiteSpace=wrap;html=1;fontSize=10;glass=0;strokeWidth=1;shadow=0;" parent="WIyWlLk6GJQsqaUBKTNV-1" vertex="1">
          <mxGeometry x="160" y="370" width="120" height="40" as="geometry" />
        </mxCell>
        <mxCell id="Qzo48M9Tub4ixmZhIlxQ-5" value="&lt;p class=&quot;MsoListParagraphCxSpFirst&quot; style=&quot;text-indent: -0.25in ; font-size: 12px&quot;&gt;&lt;font style=&quot;font-size: 12px&quot;&gt;&lt;span style=&quot;line-height: 107% ; font-family: &amp;#34;calibri light&amp;#34; , sans-serif&quot;&gt;1.&lt;span style=&quot;font-stretch: normal ; line-height: normal ; font-family: &amp;#34;times new roman&amp;#34;&quot;&gt;&amp;nbsp;&amp;nbsp;&amp;nbsp;&amp;nbsp;&amp;nbsp;&lt;/span&gt;&lt;/span&gt;&lt;span style=&quot;line-height: 107% ; font-family: &amp;#34;calibri light&amp;#34; , sans-serif&quot;&gt;Do you allow files to be saved in a parent dataset?&amp;nbsp; if&amp;nbsp;yes, then what happens when you make a child dataset?&amp;nbsp; If no, then that must mean that the child&lt;br&gt;dataset would be auto created and hidden.&amp;nbsp;&lt;/span&gt;&lt;/font&gt;&lt;/p&gt;&lt;p class=&quot;MsoListParagraphCxSpFirst&quot; style=&quot;text-indent: -0.25in ; font-size: 12px&quot;&gt;&lt;span style=&quot;font-family: &amp;#34;calibri light&amp;#34; , sans-serif ; text-indent: -0.25in&quot;&gt;&amp;nbsp; &amp;nbsp; &amp;nbsp; &amp;nbsp; &amp;nbsp;a.&lt;/span&gt;&lt;span style=&quot;text-indent: -0.25in ; font-stretch: normal ; line-height: normal ; font-family: &amp;#34;times new roman&amp;#34;&quot;&gt;&amp;nbsp;&lt;/span&gt;&lt;span style=&quot;font-family: &amp;#34;calibri light&amp;#34; , sans-serif ; text-indent: -0.25in&quot;&gt;Parents can&amp;nbsp;&lt;/span&gt;&lt;span style=&quot;font-family: &amp;#34;calibri light&amp;#34; , sans-serif ; text-indent: -0.25in&quot;&gt;have more than one child but must always have at least one child. Options –&lt;/span&gt;&lt;span style=&quot;font-family: &amp;#34;calibri light&amp;#34; , sans-serif ; text-indent: -0.25in&quot;&gt;rename, edit.&amp;nbsp; Drill into the child, have&amp;nbsp;&lt;/span&gt;&lt;span style=&quot;font-family: &amp;#34;calibri light&amp;#34; , sans-serif ; text-indent: -0.25in&quot;&gt;your file review, upload, move to, etc.&lt;/span&gt;&lt;/p&gt;&lt;span style=&quot;font-family: &amp;#34;calibri light&amp;#34; , sans-serif ; font-size: 12px ; text-indent: -0.25in&quot;&gt;b.&lt;/span&gt;&lt;span style=&quot;font-size: 12px ; text-indent: -0.25in ; font-stretch: normal ; line-height: normal ; font-family: &amp;#34;times new roman&amp;#34;&quot;&gt;&amp;nbsp; &amp;nbsp; &amp;nbsp;&lt;span style=&quot;font-family: &amp;#34;calibri light&amp;#34; , sans-serif ; text-indent: -0.25in&quot;&gt;Location&lt;/span&gt;&lt;/span&gt;&lt;br&gt;&lt;span style=&quot;font-family: &amp;#34;calibri light&amp;#34; , sans-serif ; font-size: 12px ; text-indent: -0.25in&quot;&gt;c.&lt;/span&gt;&lt;span style=&quot;font-size: 12px ; text-indent: -0.25in ; font-stretch: normal ; line-height: normal ; font-family: &amp;#34;times new roman&amp;#34;&quot;&gt;&amp;nbsp; &amp;nbsp; &amp;nbsp;&amp;nbsp;&lt;span style=&quot;font-family: &amp;#34;calibri light&amp;#34; , sans-serif ; text-indent: -0.25in&quot;&gt;Parent will&lt;/span&gt;&lt;span style=&quot;font-family: &amp;#34;calibri light&amp;#34; , sans-serif ; text-indent: -0.25in&quot;&gt;have basic metadata – name, child count, classification, location?&lt;/span&gt;&lt;/span&gt;&lt;br&gt;&lt;span style=&quot;font-family: &amp;#34;calibri light&amp;#34; , sans-serif ; font-size: 12px ; text-indent: -0.25in&quot;&gt;d.&lt;/span&gt;&lt;span style=&quot;font-size: 12px ; text-indent: -0.25in ; font-stretch: normal ; line-height: normal ; font-family: &amp;#34;times new roman&amp;#34;&quot;&gt;&amp;nbsp; &amp;nbsp; &amp;nbsp;&lt;span style=&quot;font-family: &amp;#34;calibri light&amp;#34; , sans-serif ; text-indent: -0.25in&quot;&gt;What if a&amp;nbsp;&lt;/span&gt;&lt;span style=&quot;font-family: &amp;#34;calibri light&amp;#34; , sans-serif ; text-indent: -0.25in&quot;&gt;child is empty?&lt;br&gt;&lt;/span&gt;&lt;span style=&quot;text-indent: -0.25in ; line-height: 107% ; font-family: &amp;#34;calibri light&amp;#34; , sans-serif&quot;&gt;e.&lt;span style=&quot;font-stretch: normal ; line-height: normal ; font-family: &amp;#34;times new roman&amp;#34;&quot;&gt;&amp;nbsp;&lt;/span&gt;&lt;/span&gt;&lt;span style=&quot;text-indent: -0.25in ; line-height: 107% ; font-family: &amp;#34;calibri light&amp;#34; , sans-serif&quot;&gt;If yes, Give the user the option to move to an existing child or a new child?&lt;/span&gt;&lt;span style=&quot;font-family: &amp;#34;calibri light&amp;#34; , sans-serif ; text-indent: -0.25in&quot;&gt;&lt;br&gt;&lt;/span&gt;&lt;/span&gt;&lt;br&gt;&lt;span style=&quot;font-family: &amp;#34;calibri light&amp;#34; , sans-serif ; font-size: 12px ; text-indent: -0.25in&quot;&gt;2.&lt;/span&gt;&lt;span style=&quot;font-size: 12px ; text-indent: -0.25in ; font-stretch: normal ; line-height: normal ; font-family: &amp;#34;times new roman&amp;#34;&quot;&gt;&amp;nbsp; &amp;nbsp; &amp;nbsp;&lt;span style=&quot;font-family: &amp;#34;calibri light&amp;#34; , sans-serif ; text-indent: -0.25in&quot;&gt;Can you nest&amp;nbsp;&lt;/span&gt;&lt;span style=&quot;font-family: &amp;#34;calibri light&amp;#34; , sans-serif ; text-indent: -0.25in&quot;&gt;children within children (parents and children at same time) Grandchildren. No.&lt;/span&gt;&lt;span style=&quot;font-family: &amp;#34;calibri light&amp;#34; , sans-serif ; text-indent: -0.25in&quot;&gt;&lt;br&gt;&lt;/span&gt;&lt;/span&gt;&lt;br&gt;&lt;span style=&quot;font-family: &amp;#34;calibri light&amp;#34; , sans-serif ; font-size: 12px ; text-indent: -0.25in&quot;&gt;a.&lt;/span&gt;&lt;span style=&quot;font-size: 12px ; text-indent: -0.25in ; font-stretch: normal ; line-height: normal ; font-family: &amp;#34;times new roman&amp;#34;&quot;&gt;&amp;nbsp; &amp;nbsp; &amp;nbsp;&amp;nbsp;&lt;span style=&quot;font-family: &amp;#34;calibri light&amp;#34; , sans-serif ; text-indent: -0.25in&quot;&gt;What’s the&amp;nbsp;&lt;/span&gt;&lt;span style=&quot;font-family: &amp;#34;calibri light&amp;#34; , sans-serif ; text-indent: -0.25in&quot;&gt;use case for this? &amp;nbsp;What’s the point?&lt;/span&gt;&lt;span style=&quot;font-family: &amp;#34;calibri light&amp;#34; , sans-serif ; text-indent: -0.25in&quot;&gt;&lt;br&gt;&lt;/span&gt;&lt;/span&gt;&lt;br&gt;&lt;span style=&quot;font-family: &amp;#34;calibri light&amp;#34; , sans-serif ; font-size: 12px ; text-indent: -0.25in&quot;&gt;b.&lt;/span&gt;&lt;span style=&quot;font-size: 12px ; text-indent: -0.25in ; font-stretch: normal ; line-height: normal ; font-family: &amp;#34;times new roman&amp;#34;&quot;&gt;&amp;nbsp; &amp;nbsp; &amp;nbsp;&lt;span style=&quot;font-family: &amp;#34;calibri light&amp;#34; , sans-serif ; text-indent: -0.25in&quot;&gt;Limit?&amp;nbsp; How many levels?&lt;/span&gt;&lt;br&gt;&lt;/span&gt;&lt;br&gt;&lt;span style=&quot;font-size: 12px ; text-indent: -0.25in ; font-stretch: normal ; line-height: normal ; font-family: &amp;#34;times new roman&amp;#34;&quot;&gt;&amp;nbsp; &amp;nbsp; &amp;nbsp;&amp;nbsp;&lt;span style=&quot;font-family: &amp;#34;calibri light&amp;#34; , sans-serif ; text-indent: -0.25in&quot;&gt;&amp;nbsp;&lt;/span&gt;&lt;br&gt;&lt;/span&gt;&lt;span style=&quot;font-family: &amp;#34;calibri light&amp;#34; , sans-serif ; font-size: 12px ; text-indent: -0.25in&quot;&gt;3.&lt;/span&gt;&lt;span style=&quot;font-size: 12px ; text-indent: -0.25in ; font-stretch: normal ; line-height: normal ; font-family: &amp;#34;times new roman&amp;#34;&quot;&gt;&amp;nbsp; &amp;nbsp; &amp;nbsp;&lt;span style=&quot;font-family: &amp;#34;calibri light&amp;#34; , sans-serif ; text-indent: -0.25in&quot;&gt;If a dataset&amp;nbsp;&lt;/span&gt;&lt;span style=&quot;font-family: &amp;#34;calibri light&amp;#34; , sans-serif ; text-indent: -0.25in&quot;&gt;has stuff in it, can you delete?&amp;nbsp; What&lt;/span&gt;&lt;span style=&quot;font-family: &amp;#34;calibri light&amp;#34; , sans-serif ; text-indent: -0.25in&quot;&gt;happens to the stuff inside?&amp;nbsp; Where does i&lt;/span&gt;&lt;span style=&quot;font-family: &amp;#34;calibri light&amp;#34; , sans-serif ; text-indent: -0.25in&quot;&gt;t go?&lt;/span&gt;&lt;span style=&quot;font-family: &amp;#34;calibri light&amp;#34; , sans-serif&quot;&gt;&amp;nbsp;&lt;/span&gt;&lt;span style=&quot;font-family: &amp;#34;calibri light&amp;#34; , sans-serif ; text-indent: -0.25in&quot;&gt;&lt;br&gt;&lt;/span&gt;&lt;/span&gt;&lt;span style=&quot;font-size: 12px ; font-family: &amp;#34;calibri light&amp;#34; , sans-serif&quot;&gt;Focus on path.&lt;/span&gt;&lt;br&gt;&lt;span style=&quot;font-size: 12px ; font-family: &amp;#34;calibri light&amp;#34; , sans-serif&quot;&gt;Parent datasets and Children&lt;/span&gt;&lt;br&gt;&lt;p class=&quot;MsoNormal&quot; style=&quot;font-size: 12px&quot;&gt;&lt;span style=&quot;line-height: 107% ; font-family: &amp;#34;calibri light&amp;#34; , sans-serif&quot;&gt;&lt;font style=&quot;font-size: 12px&quot;&gt;datasets on equal footing.&amp;nbsp; Parent – all of&lt;br&gt;your children and all of your files.&amp;nbsp;&lt;br&gt;This dataset has 5 children and 0 files.&amp;nbsp;&lt;br&gt;Or 0 children and 17000 files.&amp;nbsp; Two&lt;br&gt;panels/views – show them separately.&amp;nbsp;&amp;nbsp;&lt;br&gt;Click on Child and see the file view.&amp;nbsp;&lt;br&gt;Click on Parent File View and see the files.&amp;nbsp; Show path in the file view – Parent Dataset/,&amp;nbsp;&amp;nbsp;&amp;nbsp; Child Dataset&amp;nbsp;&amp;nbsp; &lt;/font&gt;&lt;/span&gt;&lt;/p&gt;&lt;br&gt;&lt;br&gt;&lt;p class=&quot;MsoListParagraph&quot; style=&quot;font-size: 12px&quot;&gt;&lt;span style=&quot;line-height: 107% ; font-family: &amp;#34;calibri light&amp;#34; , sans-serif&quot;&gt;&lt;font style=&quot;font-size: 12px&quot;&gt;&amp;nbsp;&lt;/font&gt;&lt;/span&gt;&lt;/p&gt;" style="text;html=1;resizable=0;autosize=1;align=left;verticalAlign=middle;points=[];fillColor=none;strokeColor=none;rounded=0;fontSize=10;" parent="WIyWlLk6GJQsqaUBKTNV-1" vertex="1">
          <mxGeometry x="30" y="790" width="820" height="460" as="geometry" />
        </mxCell>
        <mxCell id="Qzo48M9Tub4ixmZhIlxQ-6" style="edgeStyle=orthogonalEdgeStyle;rounded=0;orthogonalLoop=1;jettySize=auto;html=1;fontSize=10;" parent="WIyWlLk6GJQsqaUBKTNV-1" source="Qzo48M9Tub4ixmZhIlxQ-5" target="Qzo48M9Tub4ixmZhIlxQ-5" edge="1">
          <mxGeometry relative="1" as="geometry" />
        </mxCell>
        <mxCell id="Qzo48M9Tub4ixmZhIlxQ-7" value="Give User the Option to Add Files to Existing Child or Create a New Child(ren)" style="rounded=1;whiteSpace=wrap;html=1;fontSize=10;glass=0;strokeWidth=1;shadow=0;" parent="WIyWlLk6GJQsqaUBKTNV-1" vertex="1">
          <mxGeometry x="160" y="464" width="130" height="66" as="geometry" />
        </mxCell>
        <mxCell id="Qzo48M9Tub4ixmZhIlxQ-8" value="" style="endArrow=block;html=1;fontSize=10;endFill=0;" parent="WIyWlLk6GJQsqaUBKTNV-1" edge="1">
          <mxGeometry width="50" height="50" relative="1" as="geometry">
            <mxPoint x="219" y="420" as="sourcePoint" />
            <mxPoint x="219.44" y="460" as="targetPoint" />
          </mxGeometry>
        </mxCell>
        <mxCell id="Qzo48M9Tub4ixmZhIlxQ-11" value="&lt;h1&gt;Datasets will managed in a standard directory structure.&lt;/h1&gt;&lt;div style=&quot;font-size: 12px&quot;&gt;&lt;font style=&quot;font-size: 12px ; font-weight: normal&quot;&gt;Can you nest children within children (Grandchildren) ?&lt;/font&gt;&lt;/div&gt;&lt;div style=&quot;font-size: 12px&quot;&gt;&lt;font style=&quot;font-size: 12px ; font-weight: normal&quot;&gt;If you delete a child, what happens to its files? Where do they go?&lt;/font&gt;&lt;/div&gt;" style="text;html=1;strokeColor=none;fillColor=none;spacing=5;spacingTop=-20;whiteSpace=wrap;overflow=hidden;rounded=0;fontSize=10;align=left;fontStyle=1" parent="WIyWlLk6GJQsqaUBKTNV-1" vertex="1">
          <mxGeometry x="60" y="630" width="560" height="80" as="geometry" />
        </mxCell>
        <mxCell id="Qzo48M9Tub4ixmZhIlxQ-14" value="" style="endArrow=block;html=1;fontSize=10;endFill=0;" parent="WIyWlLk6GJQsqaUBKTNV-1" edge="1">
          <mxGeometry width="50" height="50" relative="1" as="geometry">
            <mxPoint x="869.44" y="410" as="sourcePoint" />
            <mxPoint x="869.8800000000001" y="450" as="targetPoint" />
          </mxGeometry>
        </mxCell>
        <mxCell id="Qzo48M9Tub4ixmZhIlxQ-15" value="" style="endArrow=block;html=1;fontSize=10;endFill=0;" parent="WIyWlLk6GJQsqaUBKTNV-1" edge="1">
          <mxGeometry width="50" height="50" relative="1" as="geometry">
            <mxPoint x="220" y="260" as="sourcePoint" />
            <mxPoint x="219.88000000000005" y="350" as="targetPoint" />
          </mxGeometry>
        </mxCell>
        <mxCell id="Qzo48M9Tub4ixmZhIlxQ-16" value="Give User the Option to Move Files to an Existing Child or to Create a New Child." style="rounded=1;whiteSpace=wrap;html=1;fontSize=10;glass=0;strokeWidth=1;shadow=0;" parent="WIyWlLk6GJQsqaUBKTNV-1" vertex="1">
          <mxGeometry x="650" y="190" width="140" height="50" as="geometry" />
        </mxCell>
        <mxCell id="Qzo48M9Tub4ixmZhIlxQ-17" value="No" style="text;html=1;strokeColor=none;fillColor=none;align=center;verticalAlign=middle;whiteSpace=wrap;rounded=0;fontSize=10;" parent="WIyWlLk6GJQsqaUBKTNV-1" vertex="1">
          <mxGeometry x="850" y="290" width="40" height="20" as="geometry" />
        </mxCell>
        <mxCell id="Qzo48M9Tub4ixmZhIlxQ-18" value="Yes" style="text;html=1;strokeColor=none;fillColor=none;align=center;verticalAlign=middle;whiteSpace=wrap;rounded=0;fontSize=10;" parent="WIyWlLk6GJQsqaUBKTNV-1" vertex="1">
          <mxGeometry x="850" y="330" width="40" height="20" as="geometry" />
        </mxCell>
        <mxCell id="Qzo48M9Tub4ixmZhIlxQ-19" value="" style="endArrow=block;html=1;fontSize=10;endFill=0;" parent="WIyWlLk6GJQsqaUBKTNV-1" edge="1">
          <mxGeometry width="50" height="50" relative="1" as="geometry">
            <mxPoint x="850" y="390" as="sourcePoint" />
            <mxPoint x="899.8800000000001" y="390" as="targetPoint" />
          </mxGeometry>
        </mxCell>
        <mxCell id="Qzo48M9Tub4ixmZhIlxQ-20" value="" style="endArrow=block;html=1;fontSize=10;endFill=0;" parent="WIyWlLk6GJQsqaUBKTNV-1" edge="1">
          <mxGeometry width="50" height="50" relative="1" as="geometry">
            <mxPoint x="590" y="209.44" as="sourcePoint" />
            <mxPoint x="639.8800000000001" y="209.44" as="targetPoint" />
          </mxGeometry>
        </mxCell>
        <mxCell id="Qzo48M9Tub4ixmZhIlxQ-22" value="Parent Dataset would be limited to a basic set of metadata and basic edit options.&lt;br&gt;&lt;br&gt;Parents would always have at least one child&lt;br&gt;&lt;br&gt;Parents could have more than one child." style="text;html=1;strokeColor=none;fillColor=none;align=center;verticalAlign=middle;whiteSpace=wrap;rounded=0;fontSize=10;fontStyle=2" parent="WIyWlLk6GJQsqaUBKTNV-1" vertex="1">
          <mxGeometry x="330" y="370" width="240" height="40" as="geometry" />
        </mxCell>
        <mxCell id="Qzo48M9Tub4ixmZhIlxQ-23" value="directory path would be displayed for parent files and children files." style="text;html=1;strokeColor=none;fillColor=none;align=center;verticalAlign=middle;whiteSpace=wrap;rounded=0;fontSize=10;fontStyle=2" parent="WIyWlLk6GJQsqaUBKTNV-1" vertex="1">
          <mxGeometry x="435" y="260" width="170" height="40" as="geometry" />
        </mxCell>
        <mxCell id="Qzo48M9Tub4ixmZhIlxQ-24" value="No" style="text;html=1;strokeColor=none;fillColor=none;align=center;verticalAlign=middle;whiteSpace=wrap;rounded=0;fontSize=10;" parent="WIyWlLk6GJQsqaUBKTNV-1" vertex="1">
          <mxGeometry x="234" y="290" width="40" height="20" as="geometry" />
        </mxCell>
        <mxCell id="Qzo48M9Tub4ixmZhIlxQ-25" value="Yes" style="text;html=1;strokeColor=none;fillColor=none;align=center;verticalAlign=middle;whiteSpace=wrap;rounded=0;fontSize=10;" parent="WIyWlLk6GJQsqaUBKTNV-1" vertex="1">
          <mxGeometry x="330" y="180" width="40" height="20" as="geometry" />
        </mxCell>
      </root>
    </mxGraphModel>
  </diagram>
  <diagram id="KvfVyGPtm7rlMS8_G1Ul" name="UI">
    <mxGraphModel dx="1635" dy="-834" grid="1" gridSize="10" guides="1" tooltips="1" connect="1" arrows="1" fold="1" page="1" pageScale="1" pageWidth="1100" pageHeight="850" math="0" shadow="0">
      <root>
        <mxCell id="kOFa79KxeKtVWTGNYDuU-0" />
        <mxCell id="kOFa79KxeKtVWTGNYDuU-1" parent="kOFa79KxeKtVWTGNYDuU-0" />
        <mxCell id="kOFa79KxeKtVWTGNYDuU-2" value="" style="rounded=0;whiteSpace=wrap;html=1;fillColor=#3333FF;" vertex="1" parent="kOFa79KxeKtVWTGNYDuU-1">
          <mxGeometry x="41" y="1730" width="1069" height="60" as="geometry" />
        </mxCell>
        <mxCell id="kOFa79KxeKtVWTGNYDuU-3" value="&lt;font style=&quot;font-size: 14px&quot;&gt;FEEDBACK&lt;/font&gt;" style="rounded=1;whiteSpace=wrap;html=1;fillColor=#FF8000;strokeColor=#FF8000;fontColor=#FFFFFF;" vertex="1" parent="kOFa79KxeKtVWTGNYDuU-1">
          <mxGeometry x="978" y="1740" width="120" height="40" as="geometry" />
        </mxCell>
        <mxCell id="kOFa79KxeKtVWTGNYDuU-4" value="" style="shape=image;html=1;verticalAlign=top;verticalLabelPosition=bottom;labelBackgroundColor=#ffffff;imageAspect=0;aspect=fixed;image=https://cdn3.iconfinder.com/data/icons/social-media-2125/78/bell-128.png;strokeColor=#FF8000;fillColor=#FF8000;fontColor=#FFFFFF;" vertex="1" parent="kOFa79KxeKtVWTGNYDuU-1">
          <mxGeometry x="916" y="1740" width="37" height="37" as="geometry" />
        </mxCell>
        <mxCell id="kOFa79KxeKtVWTGNYDuU-5" value="" style="whiteSpace=wrap;html=1;shape=mxgraph.basic.octagon2;align=center;verticalAlign=middle;dx=12;shadow=0;sketch=0;fontSize=20;fontColor=#808080;fillColor=#FF8000;strokeColor=#FF8000;" vertex="1" parent="kOFa79KxeKtVWTGNYDuU-1">
          <mxGeometry x="51" y="1736.5" width="56" height="42" as="geometry" />
        </mxCell>
        <mxCell id="kOFa79KxeKtVWTGNYDuU-6" value="Eva" style="text;html=1;strokeColor=none;fillColor=none;align=center;verticalAlign=middle;whiteSpace=wrap;rounded=0;shadow=0;sketch=0;fontSize=20;fontColor=#FFFFFF;fontStyle=1" vertex="1" parent="kOFa79KxeKtVWTGNYDuU-1">
          <mxGeometry x="117" y="1750" width="40" height="20" as="geometry" />
        </mxCell>
        <mxCell id="kOFa79KxeKtVWTGNYDuU-7" value="" style="html=1;verticalLabelPosition=bottom;align=center;labelBackgroundColor=#ffffff;verticalAlign=top;strokeWidth=2;shadow=0;dashed=0;shape=mxgraph.ios7.icons.user;sketch=0;fontSize=20;fontColor=#FFFFFF;fillColor=#FFFFFF;" vertex="1" parent="kOFa79KxeKtVWTGNYDuU-1">
          <mxGeometry x="764" y="1745" width="30" height="30" as="geometry" />
        </mxCell>
        <mxCell id="kOFa79KxeKtVWTGNYDuU-8" value="John Doe" style="text;html=1;strokeColor=none;fillColor=none;align=center;verticalAlign=middle;whiteSpace=wrap;rounded=0;shadow=0;sketch=0;fontSize=19;fontColor=#FFFFFF;" vertex="1" parent="kOFa79KxeKtVWTGNYDuU-1">
          <mxGeometry x="807.5" y="1750" width="94" height="20" as="geometry" />
        </mxCell>
        <mxCell id="kOFa79KxeKtVWTGNYDuU-9" value="&amp;lt;Classification Here&amp;gt;" style="rounded=0;whiteSpace=wrap;html=1;shadow=0;sketch=0;fontSize=12;align=center;fillColor=#FFFF33;" vertex="1" parent="kOFa79KxeKtVWTGNYDuU-1">
          <mxGeometry x="41" y="1710" width="1069" height="20" as="geometry" />
        </mxCell>
        <mxCell id="kOFa79KxeKtVWTGNYDuU-10" value="" style="rounded=0;whiteSpace=wrap;html=1;" vertex="1" parent="kOFa79KxeKtVWTGNYDuU-1">
          <mxGeometry x="41" y="1789" width="1069" height="750" as="geometry" />
        </mxCell>
        <mxCell id="kOFa79KxeKtVWTGNYDuU-11" value="" style="line;strokeWidth=1;fillColor=none;align=left;verticalAlign=middle;spacingTop=-1;spacingLeft=3;spacingRight=3;rotatable=0;labelPosition=right;points=[];portConstraint=eastwest;sketch=0;direction=south;" vertex="1" parent="kOFa79KxeKtVWTGNYDuU-1">
          <mxGeometry x="296" y="1795" width="8" height="745" as="geometry" />
        </mxCell>
        <mxCell id="kOFa79KxeKtVWTGNYDuU-21" value="" style="line;strokeWidth=1;fillColor=none;align=left;verticalAlign=middle;spacingTop=-1;spacingLeft=3;spacingRight=3;rotatable=0;labelPosition=right;points=[];portConstraint=eastwest;sketch=0;direction=south;" vertex="1" parent="kOFa79KxeKtVWTGNYDuU-1">
          <mxGeometry x="572" y="1790" width="8" height="750" as="geometry" />
        </mxCell>
        <mxCell id="kOFa79KxeKtVWTGNYDuU-22" value="" style="perimeter=none;dashed=0;shape=mxgraph.gmdl.triangle;strokeColor=none;fillColor=#666666;direction=south;aspect=fixed;" vertex="1" parent="kOFa79KxeKtVWTGNYDuU-1">
          <mxGeometry x="284.75" y="2248" width="8" height="16" as="geometry">
            <mxPoint x="-27" as="offset" />
          </mxGeometry>
        </mxCell>
        <mxCell id="kOFa79KxeKtVWTGNYDuU-24" value="" style="html=1;shadow=0;dashed=0;shape=mxgraph.bootstrap.rrect;rSize=5;strokeColor=#DFDFDF;html=1;whiteSpace=wrap;fillColor=#FFFFFF;fontColor=#495057;" vertex="1" parent="kOFa79KxeKtVWTGNYDuU-1">
          <mxGeometry x="304" y="1793" width="260" height="300" as="geometry" />
        </mxCell>
        <mxCell id="kOFa79KxeKtVWTGNYDuU-25" value="&lt;font style=&quot;font-size: 16px&quot;&gt;Dataset Title #1&lt;/font&gt;&lt;br&gt;Guide: 123456/1258d25s8f22f&lt;br&gt;other data goes here" style="html=1;shadow=0;dashed=0;shape=mxgraph.bootstrap.topButton;rSize=5;perimeter=none;whiteSpace=wrap;resizeWidth=1;align=left;spacing=10;verticalAlign=top;fillColor=#0085FC;strokeColor=#0085FC;fontColor=#ffffff;" vertex="1" parent="kOFa79KxeKtVWTGNYDuU-24">
          <mxGeometry width="260" height="100" relative="1" as="geometry" />
        </mxCell>
        <mxCell id="kOFa79KxeKtVWTGNYDuU-26" value="&lt;font style=&quot;font-size: 16px&quot;&gt;Dataset Title #2&lt;/font&gt;&lt;br&gt;Guide: 185576/58d6s8dd222dgf8&lt;br&gt;Other data goes here&lt;br&gt;&lt;br&gt;&lt;br&gt;" style="strokeColor=inherit;fillColor=inherit;gradientColor=inherit;fontColor=inherit;html=1;shadow=0;dashed=0;perimeter=none;whiteSpace=wrap;resizeWidth=1;align=left;spacing=10;" vertex="1" parent="kOFa79KxeKtVWTGNYDuU-24">
          <mxGeometry width="260" height="100" relative="1" as="geometry">
            <mxPoint y="100" as="offset" />
          </mxGeometry>
        </mxCell>
        <mxCell id="kOFa79KxeKtVWTGNYDuU-27" value="&lt;font style=&quot;font-size: 16px&quot;&gt;Dataset Title #3&lt;/font&gt;&lt;br&gt;Guide: 123456/88d55s6c8fs6&lt;br&gt;other data goes here&lt;br&gt;&lt;br&gt;&lt;br&gt;" style="strokeColor=inherit;fillColor=inherit;gradientColor=inherit;fontColor=inherit;html=1;shadow=0;dashed=0;shape=mxgraph.bootstrap.bottomButton;rSize=5;perimeter=none;whiteSpace=wrap;resizeWidth=1;resizeHeight=0;align=left;spacing=10;" vertex="1" parent="kOFa79KxeKtVWTGNYDuU-24">
          <mxGeometry y="1" width="260" height="100" relative="1" as="geometry">
            <mxPoint y="-100" as="offset" />
          </mxGeometry>
        </mxCell>
        <mxCell id="kOFa79KxeKtVWTGNYDuU-29" value="" style="html=1;verticalLabelPosition=bottom;labelBackgroundColor=#ffffff;verticalAlign=top;shadow=0;dashed=0;strokeWidth=2;shape=mxgraph.ios7.misc.scroll_(vertical);fillColor=#a0a0a0;sketch=0;" vertex="1" parent="kOFa79KxeKtVWTGNYDuU-1">
          <mxGeometry x="568" y="1820" width="6" height="80" as="geometry" />
        </mxCell>
        <mxCell id="kOFa79KxeKtVWTGNYDuU-30" value="" style="group" connectable="0" vertex="1" parent="kOFa79KxeKtVWTGNYDuU-1">
          <mxGeometry x="577" y="1795" width="530" height="500" as="geometry" />
        </mxCell>
        <mxCell id="kOFa79KxeKtVWTGNYDuU-31" value="Dataset Title #1" style="shape=rect;fillColor=#ffffff;strokeColor=#eeeeee;shadow=1;fontColor=#000000;fontSize=23;fontStyle=0;verticalAlign=top;spacingBottom=0;spacingLeft=16;spacingTop=20;align=left;rounded=0;" vertex="1" parent="kOFa79KxeKtVWTGNYDuU-30">
          <mxGeometry width="530" height="500" as="geometry" />
        </mxCell>
        <mxCell id="kOFa79KxeKtVWTGNYDuU-32" value="Guide: 123456/1258d25s8f22f" style="text;fontSize=12;fontStyle=4;verticalAlign=middle;spacingBottom=0;spacingLeft=16;resizeWidth=1;fontColor=#0645AD;" vertex="1" parent="kOFa79KxeKtVWTGNYDuU-31">
          <mxGeometry width="530" height="20" relative="1" as="geometry">
            <mxPoint y="59" as="offset" />
          </mxGeometry>
        </mxCell>
        <mxCell id="kOFa79KxeKtVWTGNYDuU-33" value="Description:&#xa;&#xa;&#xa;Originating Org:&#xa;&#xa;Data Steward:&#xa;&#xa;Location:&#xa;&#xa;Format:&#xa;&#xa;Data Classification:&#xa;&#xa;RCS Value(s):&#xa;&#xa;PII:&#xa;&#xa;PII Type:&#xa;&#xa;System of Record:&#xa;&#xa;IMO Assigned:&#xa;" style="text;whiteSpace=wrap;fontSize=13;spacing=16;spacingTop=-4;resizeWidth=1;resizeHeight=1;fontStyle=1" vertex="1" parent="kOFa79KxeKtVWTGNYDuU-31">
          <mxGeometry width="163.07692307692312" height="333.3333333333333" relative="1" as="geometry">
            <mxPoint x="5" y="80" as="offset" />
          </mxGeometry>
        </mxCell>
        <mxCell id="kOFa79KxeKtVWTGNYDuU-34" value="Assign" style="shape=rect;strokeColor=#666666;fontColor=#333333;fontStyle=1;shadow=1;rounded=1;fillColor=#F8F9FA;" vertex="1" parent="kOFa79KxeKtVWTGNYDuU-31">
          <mxGeometry y="1" width="70" height="40" relative="1" as="geometry">
            <mxPoint x="8" y="-47" as="offset" />
          </mxGeometry>
        </mxCell>
        <mxCell id="kOFa79KxeKtVWTGNYDuU-35" value="Review" style="shape=rect;strokeColor=#666666;fontColor=#333333;fontStyle=1;shadow=1;sketch=0;rounded=1;fillColor=#F8F9FA;" vertex="1" parent="kOFa79KxeKtVWTGNYDuU-31">
          <mxGeometry y="1" width="70" height="40" relative="1" as="geometry">
            <mxPoint x="86" y="-48" as="offset" />
          </mxGeometry>
        </mxCell>
        <mxCell id="kOFa79KxeKtVWTGNYDuU-36" value="&amp;lt;Classification Here&amp;gt;" style="rounded=0;whiteSpace=wrap;html=1;shadow=0;sketch=0;fontSize=12;align=center;fillColor=#FFFF33;" vertex="1" parent="kOFa79KxeKtVWTGNYDuU-31">
          <mxGeometry y="0.6296296296296298" width="530" height="18.51851851851852" as="geometry" />
        </mxCell>
        <mxCell id="kOFa79KxeKtVWTGNYDuU-37" value="This dataset contains information that someone might find interesting. Who that person is and why they might care is anyone&#39;s guess." style="text;whiteSpace=wrap;fontSize=10;spacing=16;spacingTop=-4;resizeWidth=1;resizeHeight=1;" vertex="1" parent="kOFa79KxeKtVWTGNYDuU-31">
          <mxGeometry x="152.8846153846154" y="74.07407407407408" width="336.3461538461539" height="55.55555555555556" as="geometry" />
        </mxCell>
        <mxCell id="kOFa79KxeKtVWTGNYDuU-38" value="PPP/QQQ/RRR/ZZZ&#xa;" style="text;whiteSpace=wrap;fontSize=10;spacing=16;spacingTop=-4;resizeWidth=1;resizeHeight=1;" vertex="1" parent="kOFa79KxeKtVWTGNYDuU-31">
          <mxGeometry x="152.8846153846154" y="128.63037037037037" width="336.3461538461539" height="37.03703703703704" as="geometry" />
        </mxCell>
        <mxCell id="kOFa79KxeKtVWTGNYDuU-39" value="Bob Ross" style="text;whiteSpace=wrap;fontSize=10;spacing=16;spacingTop=-4;resizeWidth=1;resizeHeight=1;" vertex="1" parent="kOFa79KxeKtVWTGNYDuU-31">
          <mxGeometry x="152.8846153846154" y="157.40814814814814" width="336.3461538461539" height="37.03703703703704" as="geometry" />
        </mxCell>
        <mxCell id="kOFa79KxeKtVWTGNYDuU-40" value="Warehouse B" style="text;whiteSpace=wrap;fontSize=10;spacing=16;spacingTop=-4;resizeWidth=1;resizeHeight=1;" vertex="1" parent="kOFa79KxeKtVWTGNYDuU-31">
          <mxGeometry x="152.8846153846154" y="189.99592592592592" width="336.3461538461539" height="37.03703703703704" as="geometry" />
        </mxCell>
        <mxCell id="kOFa79KxeKtVWTGNYDuU-41" value="Paper, CD, DVD" style="text;whiteSpace=wrap;fontSize=10;spacing=16;spacingTop=-4;resizeWidth=1;resizeHeight=1;" vertex="1" parent="kOFa79KxeKtVWTGNYDuU-31">
          <mxGeometry x="152.8846153846154" y="220.0037037037037" width="336.3461538461539" height="37.03703703703704" as="geometry" />
        </mxCell>
        <mxCell id="kOFa79KxeKtVWTGNYDuU-42" value="Spooky" style="text;whiteSpace=wrap;fontSize=10;spacing=16;spacingTop=-4;resizeWidth=1;resizeHeight=1;" vertex="1" parent="kOFa79KxeKtVWTGNYDuU-31">
          <mxGeometry x="152.8846153846154" y="250.0014814814815" width="336.3461538461539" height="37.03703703703704" as="geometry" />
        </mxCell>
        <mxCell id="kOFa79KxeKtVWTGNYDuU-43" value="RCS 10-38 1a" style="text;whiteSpace=wrap;fontSize=10;spacing=16;spacingTop=-4;resizeWidth=1;resizeHeight=1;fontColor=#0645AD;fontStyle=4" vertex="1" parent="kOFa79KxeKtVWTGNYDuU-31">
          <mxGeometry x="152.8846153846154" y="279.99925925925925" width="336.3461538461539" height="37.03703703703704" as="geometry" />
        </mxCell>
        <mxCell id="kOFa79KxeKtVWTGNYDuU-44" value="Yes" style="text;whiteSpace=wrap;fontSize=10;spacing=16;spacingTop=-4;resizeWidth=1;resizeHeight=1;" vertex="1" parent="kOFa79KxeKtVWTGNYDuU-31">
          <mxGeometry x="152.8846153846154" y="309.99703703703705" width="336.3461538461539" height="37.03703703703704" as="geometry" />
        </mxCell>
        <mxCell id="kOFa79KxeKtVWTGNYDuU-45" value="US Persons" style="text;whiteSpace=wrap;fontSize=10;spacing=16;spacingTop=-4;resizeWidth=1;resizeHeight=1;" vertex="1" parent="kOFa79KxeKtVWTGNYDuU-31">
          <mxGeometry x="152.8846153846154" y="340.00481481481484" width="336.3461538461539" height="37.03703703703704" as="geometry" />
        </mxCell>
        <mxCell id="kOFa79KxeKtVWTGNYDuU-46" value="Rocky" style="text;whiteSpace=wrap;fontSize=10;spacing=16;spacingTop=-4;resizeWidth=1;resizeHeight=1;" vertex="1" parent="kOFa79KxeKtVWTGNYDuU-31">
          <mxGeometry x="152.8846153846154" y="370.00259259259263" width="336.3461538461539" height="37.03703703703704" as="geometry" />
        </mxCell>
        <mxCell id="kOFa79KxeKtVWTGNYDuU-47" value="Cindy-Luo Who" style="text;whiteSpace=wrap;fontSize=10;spacing=16;spacingTop=-4;resizeWidth=1;resizeHeight=1;" vertex="1" parent="kOFa79KxeKtVWTGNYDuU-31">
          <mxGeometry x="152.8846153846154" y="400.0025925925927" width="336.3461538461539" height="37.03703703703704" as="geometry" />
        </mxCell>
        <mxCell id="kOFa79KxeKtVWTGNYDuU-48" value="" style="shape=ellipse;dashed=0;strokeColor=none;shadow=1;fontSize=13;align=center;verticalAlign=top;labelPosition=center;verticalLabelPosition=bottom;html=1;aspect=fixed;fillColor=#F8F9FA;" vertex="1" parent="kOFa79KxeKtVWTGNYDuU-30">
          <mxGeometry x="408.97637795275597" y="30" width="23.95275590551181" height="23.95275590551181" as="geometry" />
        </mxCell>
        <mxCell id="kOFa79KxeKtVWTGNYDuU-49" value="" style="dashed=0;html=1;shape=mxgraph.gmdl.edit;strokeColor=none;fillColor=#737373;shadow=0;" vertex="1" parent="kOFa79KxeKtVWTGNYDuU-48">
          <mxGeometry x="7.699100112485939" y="7.699100112485939" width="8.554555680539933" height="8.554555680539933" as="geometry" />
        </mxCell>
        <mxCell id="kOFa79KxeKtVWTGNYDuU-50" value="" style="shape=ellipse;dashed=0;strokeColor=none;shadow=1;fontSize=13;align=center;verticalAlign=top;labelPosition=center;verticalLabelPosition=bottom;html=1;aspect=fixed;fillColor=#F8F9FA;" vertex="1" parent="kOFa79KxeKtVWTGNYDuU-30">
          <mxGeometry x="498.2834645669294" y="30" width="23.95275590551181" height="23.95275590551181" as="geometry" />
        </mxCell>
        <mxCell id="kOFa79KxeKtVWTGNYDuU-51" value="" style="dashed=0;html=1;shape=mxgraph.gmdl.x;strokeColor=#737373;strokeWidth=2;shadow=0;" vertex="1" parent="kOFa79KxeKtVWTGNYDuU-50">
          <mxGeometry x="8.554555680539933" y="8.554555680539933" width="6.843644544431946" height="6.843644544431946" as="geometry" />
        </mxCell>
        <mxCell id="kOFa79KxeKtVWTGNYDuU-52" value="" style="shape=ellipse;dashed=0;strokeColor=none;shadow=1;fontSize=13;align=center;verticalAlign=top;labelPosition=center;verticalLabelPosition=bottom;html=1;aspect=fixed;rounded=1;sketch=0;fillColor=#F8F9FA;" vertex="1" parent="kOFa79KxeKtVWTGNYDuU-30">
          <mxGeometry x="439.85826771653564" y="30" width="23.95275590551181" height="23.95275590551181" as="geometry" />
        </mxCell>
        <mxCell id="kOFa79KxeKtVWTGNYDuU-53" value="" style="dashed=0;html=1;shape=mxgraph.gmdl.star;strokeColor=none;fillColor=#737373;shadow=0;" vertex="1" parent="kOFa79KxeKtVWTGNYDuU-52">
          <mxGeometry x="7.699100112485939" y="7.699100112485939" width="8.554555680539933" height="8.554555680539933" as="geometry" />
        </mxCell>
        <mxCell id="kOFa79KxeKtVWTGNYDuU-54" value="" style="shape=ellipse;dashed=0;strokeColor=none;shadow=1;fontSize=13;align=center;verticalAlign=top;labelPosition=center;verticalLabelPosition=bottom;html=1;aspect=fixed;rounded=1;sketch=0;fillColor=#F8F9FA;" vertex="1" parent="kOFa79KxeKtVWTGNYDuU-30">
          <mxGeometry x="469.0708661417325" y="30" width="23.95275590551181" height="23.95275590551181" as="geometry" />
        </mxCell>
        <mxCell id="kOFa79KxeKtVWTGNYDuU-55" value="" style="dashed=0;html=1;shape=mxgraph.gmdl.cloud;strokeColor=none;fillColor=#737373;shadow=0;" vertex="1" parent="kOFa79KxeKtVWTGNYDuU-54">
          <mxGeometry x="6.843644544431946" y="8.554555680539933" width="10.265466816647919" height="6.843644544431946" as="geometry" />
        </mxCell>
        <mxCell id="kOFa79KxeKtVWTGNYDuU-59" value="PII Type" style="rounded=1;fillColor=#F1F2F4;strokeColor=none;html=1;fontColor=#596780;align=left;fontSize=12;spacingLeft=10;shadow=0;sketch=0;" vertex="1" parent="kOFa79KxeKtVWTGNYDuU-1">
          <mxGeometry x="58.75" y="1997" width="230" height="30" as="geometry" />
        </mxCell>
        <mxCell id="kOFa79KxeKtVWTGNYDuU-60" value="" style="shape=triangle;direction=south;fillColor=#596780;strokeColor=none;html=1" vertex="1" parent="kOFa79KxeKtVWTGNYDuU-59">
          <mxGeometry x="1" y="0.5" width="12" height="6" relative="1" as="geometry">
            <mxPoint x="-20" y="-3" as="offset" />
          </mxGeometry>
        </mxCell>
        <mxCell id="kOFa79KxeKtVWTGNYDuU-61" value="Select RCS" style="rounded=1;fillColor=#F1F2F4;strokeColor=none;html=1;fontColor=#596780;align=left;fontSize=12;spacingLeft=10;shadow=0;sketch=0;" vertex="1" parent="kOFa79KxeKtVWTGNYDuU-1">
          <mxGeometry x="58.75" y="1947" width="230" height="30" as="geometry" />
        </mxCell>
        <mxCell id="kOFa79KxeKtVWTGNYDuU-62" value="" style="shape=triangle;direction=south;fillColor=#596780;strokeColor=none;html=1" vertex="1" parent="kOFa79KxeKtVWTGNYDuU-61">
          <mxGeometry x="1" y="0.5" width="12" height="6" relative="1" as="geometry">
            <mxPoint x="-20" y="-3" as="offset" />
          </mxGeometry>
        </mxCell>
        <mxCell id="kOFa79KxeKtVWTGNYDuU-63" value="Record Type" style="rounded=1;fillColor=#F1F2F4;strokeColor=none;html=1;fontColor=#596780;align=left;fontSize=12;spacingLeft=10;shadow=0;sketch=0;" vertex="1" parent="kOFa79KxeKtVWTGNYDuU-1">
          <mxGeometry x="58.75" y="2047" width="230" height="30" as="geometry" />
        </mxCell>
        <mxCell id="kOFa79KxeKtVWTGNYDuU-64" value="" style="shape=triangle;direction=south;fillColor=#596780;strokeColor=none;html=1" vertex="1" parent="kOFa79KxeKtVWTGNYDuU-63">
          <mxGeometry x="1" y="0.5" width="12" height="6" relative="1" as="geometry">
            <mxPoint x="-20" y="-3" as="offset" />
          </mxGeometry>
        </mxCell>
        <mxCell id="kOFa79KxeKtVWTGNYDuU-65" value="Select Format&amp;nbsp;" style="rounded=1;fillColor=#F1F2F4;strokeColor=none;html=1;fontColor=#596780;align=left;fontSize=12;spacingLeft=10;shadow=0;sketch=0;" vertex="1" parent="kOFa79KxeKtVWTGNYDuU-1">
          <mxGeometry x="58.75" y="2096" width="230" height="30" as="geometry" />
        </mxCell>
        <mxCell id="kOFa79KxeKtVWTGNYDuU-66" value="" style="shape=triangle;direction=south;fillColor=#596780;strokeColor=none;html=1" vertex="1" parent="kOFa79KxeKtVWTGNYDuU-65">
          <mxGeometry x="1" y="0.5" width="12" height="6" relative="1" as="geometry">
            <mxPoint x="-20" y="-3" as="offset" />
          </mxGeometry>
        </mxCell>
        <mxCell id="kOFa79KxeKtVWTGNYDuU-67" value="Location" style="rounded=1;fillColor=#F1F2F4;strokeColor=none;html=1;fontColor=#596780;align=left;fontSize=12;spacingLeft=10;shadow=0;sketch=0;" vertex="1" parent="kOFa79KxeKtVWTGNYDuU-1">
          <mxGeometry x="58.75" y="2141" width="230" height="30" as="geometry" />
        </mxCell>
        <mxCell id="kOFa79KxeKtVWTGNYDuU-68" value="" style="shape=triangle;direction=south;fillColor=#596780;strokeColor=none;html=1" vertex="1" parent="kOFa79KxeKtVWTGNYDuU-67">
          <mxGeometry x="1" y="0.5" width="12" height="6" relative="1" as="geometry">
            <mxPoint x="-20" y="-3" as="offset" />
          </mxGeometry>
        </mxCell>
        <mxCell id="kOFa79KxeKtVWTGNYDuU-69" value="&lt;font color=&quot;#000000&quot; style=&quot;font-size: 11px&quot;&gt;Originating Organization&lt;br&gt;&lt;/font&gt;" style="text;html=1;strokeColor=none;fillColor=none;align=left;verticalAlign=middle;whiteSpace=wrap;rounded=0;shadow=0;sketch=0;fontSize=11;fontColor=#0645AD;" vertex="1" parent="kOFa79KxeKtVWTGNYDuU-1">
          <mxGeometry x="46.25" y="2197" width="179" height="20" as="geometry" />
        </mxCell>
        <mxCell id="kOFa79KxeKtVWTGNYDuU-70" value="Level 4" style="rounded=1;fillColor=#F1F2F4;strokeColor=none;html=1;fontColor=#596780;align=left;fontSize=12;spacingLeft=10;shadow=0;sketch=0;" vertex="1" parent="kOFa79KxeKtVWTGNYDuU-1">
          <mxGeometry x="58.7500000000001" y="2334" width="80" height="30" as="geometry" />
        </mxCell>
        <mxCell id="kOFa79KxeKtVWTGNYDuU-71" value="" style="shape=triangle;direction=south;fillColor=#596780;strokeColor=none;html=1" vertex="1" parent="kOFa79KxeKtVWTGNYDuU-70">
          <mxGeometry x="1" y="0.5" width="12" height="6" relative="1" as="geometry">
            <mxPoint x="-20" y="-3" as="offset" />
          </mxGeometry>
        </mxCell>
        <mxCell id="kOFa79KxeKtVWTGNYDuU-72" value="Level 5" style="rounded=1;fillColor=#F1F2F4;strokeColor=none;html=1;fontColor=#596780;align=left;fontSize=12;spacingLeft=10;shadow=0;sketch=0;" vertex="1" parent="kOFa79KxeKtVWTGNYDuU-1">
          <mxGeometry x="58.75000000000004" y="2376" width="80" height="30" as="geometry" />
        </mxCell>
        <mxCell id="kOFa79KxeKtVWTGNYDuU-73" value="" style="shape=triangle;direction=south;fillColor=#596780;strokeColor=none;html=1" vertex="1" parent="kOFa79KxeKtVWTGNYDuU-72">
          <mxGeometry x="1" y="0.5" width="12" height="6" relative="1" as="geometry">
            <mxPoint x="-20" y="-3" as="offset" />
          </mxGeometry>
        </mxCell>
        <mxCell id="kOFa79KxeKtVWTGNYDuU-74" value="Level 1" style="rounded=1;fillColor=#F1F2F4;strokeColor=none;html=1;fontColor=#596780;align=left;fontSize=12;spacingLeft=10;shadow=0;sketch=0;" vertex="1" parent="kOFa79KxeKtVWTGNYDuU-1">
          <mxGeometry x="58.750000000000114" y="2220.5" width="80" height="30" as="geometry" />
        </mxCell>
        <mxCell id="kOFa79KxeKtVWTGNYDuU-75" value="" style="shape=triangle;direction=south;fillColor=#596780;strokeColor=none;html=1" vertex="1" parent="kOFa79KxeKtVWTGNYDuU-74">
          <mxGeometry x="1" y="0.5" width="12" height="6" relative="1" as="geometry">
            <mxPoint x="-20" y="-3" as="offset" />
          </mxGeometry>
        </mxCell>
        <mxCell id="kOFa79KxeKtVWTGNYDuU-76" value="Level 2" style="rounded=1;fillColor=#F1F2F4;strokeColor=none;html=1;fontColor=#596780;align=left;fontSize=12;spacingLeft=10;shadow=0;sketch=0;" vertex="1" parent="kOFa79KxeKtVWTGNYDuU-1">
          <mxGeometry x="58.750000000000114" y="2256" width="80" height="30" as="geometry" />
        </mxCell>
        <mxCell id="kOFa79KxeKtVWTGNYDuU-77" value="" style="shape=triangle;direction=south;fillColor=#596780;strokeColor=none;html=1" vertex="1" parent="kOFa79KxeKtVWTGNYDuU-76">
          <mxGeometry x="1" y="0.5" width="12" height="6" relative="1" as="geometry">
            <mxPoint x="-20" y="-3" as="offset" />
          </mxGeometry>
        </mxCell>
        <mxCell id="kOFa79KxeKtVWTGNYDuU-78" value="Filter" style="html=1;shadow=0;dashed=0;shape=mxgraph.bootstrap.rrect;rSize=5;fillColor=#0085FC;strokeColor=none;fontColor=#FFFFFF;fontSize=14;" vertex="1" parent="kOFa79KxeKtVWTGNYDuU-1">
          <mxGeometry x="129.25" y="2489" width="91" height="40" as="geometry" />
        </mxCell>
        <mxCell id="kOFa79KxeKtVWTGNYDuU-79" value="Cancel" style="html=1;shadow=0;dashed=0;shape=mxgraph.bootstrap.rrect;rSize=5;fillColor=#6C757D;strokeColor=none;fontColor=#FFFFFF;fontSize=14;" vertex="1" parent="kOFa79KxeKtVWTGNYDuU-1">
          <mxGeometry x="224.75" y="2489" width="70" height="40" as="geometry" />
        </mxCell>
        <mxCell id="kOFa79KxeKtVWTGNYDuU-80" value="&lt;font color=&quot;#666666&quot; style=&quot;font-size: 16px;&quot;&gt;Filter&lt;/font&gt;" style="text;strokeColor=none;fillColor=none;html=1;fontSize=16;fontStyle=1;verticalAlign=middle;align=center;labelBackgroundColor=none;sketch=0;" vertex="1" parent="kOFa79KxeKtVWTGNYDuU-1">
          <mxGeometry x="40" y="1793" width="77" height="32" as="geometry" />
        </mxCell>
        <mxCell id="kOFa79KxeKtVWTGNYDuU-81" value="Level 3" style="rounded=1;fillColor=#F1F2F4;strokeColor=none;html=1;fontColor=#596780;align=left;fontSize=12;spacingLeft=10;shadow=0;sketch=0;" vertex="1" parent="kOFa79KxeKtVWTGNYDuU-1">
          <mxGeometry x="58.750000000000114" y="2295" width="80" height="30" as="geometry" />
        </mxCell>
        <mxCell id="kOFa79KxeKtVWTGNYDuU-82" value="" style="shape=triangle;direction=south;fillColor=#596780;strokeColor=none;html=1" vertex="1" parent="kOFa79KxeKtVWTGNYDuU-81">
          <mxGeometry x="1" y="0.5" width="12" height="6" relative="1" as="geometry">
            <mxPoint x="-20" y="-3" as="offset" />
          </mxGeometry>
        </mxCell>
        <mxCell id="kOFa79KxeKtVWTGNYDuU-83" value="" style="line;strokeWidth=1;fillColor=none;align=left;verticalAlign=middle;spacingTop=-1;spacingLeft=3;spacingRight=3;rotatable=0;labelPosition=right;points=[];portConstraint=eastwest;strokeColor=#E6E6E6;" vertex="1" parent="kOFa79KxeKtVWTGNYDuU-1">
          <mxGeometry x="41" y="2442" width="259" height="8" as="geometry" />
        </mxCell>
        <mxCell id="kOFa79KxeKtVWTGNYDuU-84" value="" style="shape=table;html=1;whiteSpace=wrap;startSize=0;container=1;collapsible=0;childLayout=tableLayout;shadow=0;fontColor=#999999;" vertex="1" parent="kOFa79KxeKtVWTGNYDuU-1">
          <mxGeometry x="588" y="2336" width="512" height="184" as="geometry" />
        </mxCell>
        <mxCell id="kOFa79KxeKtVWTGNYDuU-85" value="" style="shape=partialRectangle;html=1;whiteSpace=wrap;collapsible=0;dropTarget=0;pointerEvents=0;top=0;left=0;bottom=0;right=0;points=[[0,0.5],[1,0.5]];portConstraint=eastwest;fontColor=#999999;" vertex="1" parent="kOFa79KxeKtVWTGNYDuU-84">
          <mxGeometry width="512" height="37" as="geometry" />
        </mxCell>
        <mxCell id="kOFa79KxeKtVWTGNYDuU-86" value="Guide" style="shape=partialRectangle;html=1;whiteSpace=wrap;connectable=0;overflow=hidden;top=0;left=0;bottom=0;right=0;align=left;fontColor=#999999;" vertex="1" parent="kOFa79KxeKtVWTGNYDuU-85">
          <mxGeometry width="144" height="37" as="geometry" />
        </mxCell>
        <mxCell id="kOFa79KxeKtVWTGNYDuU-87" value="&lt;blockquote style=&quot;margin: 0 0 0 40px ; border: none ; padding: 0px&quot;&gt;Title&lt;/blockquote&gt;" style="shape=partialRectangle;html=1;whiteSpace=wrap;connectable=0;overflow=hidden;top=0;left=0;bottom=0;right=0;align=left;fontColor=#999999;verticalAlign=middle;labelPosition=center;verticalLabelPosition=middle;spacingLeft=-40;" vertex="1" parent="kOFa79KxeKtVWTGNYDuU-85">
          <mxGeometry x="144" width="150" height="37" as="geometry" />
        </mxCell>
        <mxCell id="kOFa79KxeKtVWTGNYDuU-88" value="Description" style="shape=partialRectangle;html=1;whiteSpace=wrap;connectable=0;overflow=hidden;top=0;left=0;bottom=0;right=0;align=left;fontColor=#999999;" vertex="1" parent="kOFa79KxeKtVWTGNYDuU-85">
          <mxGeometry x="294" width="218" height="37" as="geometry" />
        </mxCell>
        <mxCell id="kOFa79KxeKtVWTGNYDuU-89" value="" style="shape=partialRectangle;html=1;whiteSpace=wrap;collapsible=0;dropTarget=0;pointerEvents=0;top=0;left=0;bottom=0;right=0;points=[[0,0.5],[1,0.5]];portConstraint=eastwest;fontColor=#999999;" vertex="1" parent="kOFa79KxeKtVWTGNYDuU-84">
          <mxGeometry y="37" width="512" height="37" as="geometry" />
        </mxCell>
        <mxCell id="kOFa79KxeKtVWTGNYDuU-90" value="144452/adfe44gs3" style="shape=partialRectangle;html=1;whiteSpace=wrap;connectable=0;overflow=hidden;top=0;left=0;bottom=0;right=0;align=left;fontColor=#3333FF;fontStyle=4" vertex="1" parent="kOFa79KxeKtVWTGNYDuU-89">
          <mxGeometry width="144" height="37" as="geometry" />
        </mxCell>
        <mxCell id="kOFa79KxeKtVWTGNYDuU-91" value="Title Text Here" style="shape=partialRectangle;html=1;whiteSpace=wrap;connectable=0;overflow=hidden;top=0;left=0;bottom=0;right=0;align=left;fontColor=#999999;" vertex="1" parent="kOFa79KxeKtVWTGNYDuU-89">
          <mxGeometry x="144" width="150" height="37" as="geometry" />
        </mxCell>
        <mxCell id="kOFa79KxeKtVWTGNYDuU-92" value="Description Text Here" style="shape=partialRectangle;html=1;whiteSpace=wrap;connectable=0;overflow=hidden;top=0;left=0;bottom=0;right=0;align=left;fontColor=#999999;" vertex="1" parent="kOFa79KxeKtVWTGNYDuU-89">
          <mxGeometry x="294" width="218" height="37" as="geometry" />
        </mxCell>
        <mxCell id="kOFa79KxeKtVWTGNYDuU-93" value="" style="shape=partialRectangle;html=1;whiteSpace=wrap;collapsible=0;dropTarget=0;pointerEvents=0;top=0;left=0;bottom=0;right=0;points=[[0,0.5],[1,0.5]];portConstraint=eastwest;fontColor=#999999;" vertex="1" parent="kOFa79KxeKtVWTGNYDuU-84">
          <mxGeometry y="74" width="512" height="36" as="geometry" />
        </mxCell>
        <mxCell id="kOFa79KxeKtVWTGNYDuU-94" value="144452/55d47dsdd" style="shape=partialRectangle;html=1;whiteSpace=wrap;connectable=0;overflow=hidden;top=0;left=0;bottom=0;right=0;align=left;fontStyle=4;fontColor=#3333FF;" vertex="1" parent="kOFa79KxeKtVWTGNYDuU-93">
          <mxGeometry width="144" height="36" as="geometry" />
        </mxCell>
        <mxCell id="kOFa79KxeKtVWTGNYDuU-95" value="Next Record Title Here" style="shape=partialRectangle;html=1;whiteSpace=wrap;connectable=0;overflow=hidden;top=0;left=0;bottom=0;right=0;align=left;fontColor=#999999;" vertex="1" parent="kOFa79KxeKtVWTGNYDuU-93">
          <mxGeometry x="144" width="150" height="36" as="geometry" />
        </mxCell>
        <mxCell id="kOFa79KxeKtVWTGNYDuU-96" value="Next Description here too" style="shape=partialRectangle;html=1;whiteSpace=wrap;connectable=0;overflow=hidden;top=0;left=0;bottom=0;right=0;align=left;fontColor=#999999;" vertex="1" parent="kOFa79KxeKtVWTGNYDuU-93">
          <mxGeometry x="294" width="218" height="36" as="geometry" />
        </mxCell>
        <mxCell id="kOFa79KxeKtVWTGNYDuU-121" style="shape=partialRectangle;html=1;whiteSpace=wrap;collapsible=0;dropTarget=0;pointerEvents=0;top=0;left=0;bottom=0;right=0;points=[[0,0.5],[1,0.5]];portConstraint=eastwest;fontColor=#999999;" vertex="1" parent="kOFa79KxeKtVWTGNYDuU-84">
          <mxGeometry y="110" width="512" height="37" as="geometry" />
        </mxCell>
        <mxCell id="kOFa79KxeKtVWTGNYDuU-122" value="&lt;span style=&quot;&quot;&gt;144452/54dssdd32&lt;/span&gt;" style="shape=partialRectangle;html=1;whiteSpace=wrap;connectable=0;overflow=hidden;top=0;left=0;bottom=0;right=0;align=left;fontStyle=4;fontColor=#3333FF;" vertex="1" parent="kOFa79KxeKtVWTGNYDuU-121">
          <mxGeometry width="144" height="37" as="geometry" />
        </mxCell>
        <mxCell id="kOFa79KxeKtVWTGNYDuU-123" value="Yes another record" style="shape=partialRectangle;html=1;whiteSpace=wrap;connectable=0;overflow=hidden;top=0;left=0;bottom=0;right=0;align=left;fontColor=#999999;" vertex="1" parent="kOFa79KxeKtVWTGNYDuU-121">
          <mxGeometry x="144" width="150" height="37" as="geometry" />
        </mxCell>
        <mxCell id="kOFa79KxeKtVWTGNYDuU-124" value="Descriptions" style="shape=partialRectangle;html=1;whiteSpace=wrap;connectable=0;overflow=hidden;top=0;left=0;bottom=0;right=0;align=left;fontColor=#999999;" vertex="1" parent="kOFa79KxeKtVWTGNYDuU-121">
          <mxGeometry x="294" width="218" height="37" as="geometry" />
        </mxCell>
        <mxCell id="kOFa79KxeKtVWTGNYDuU-125" style="shape=partialRectangle;html=1;whiteSpace=wrap;collapsible=0;dropTarget=0;pointerEvents=0;top=0;left=0;bottom=0;right=0;points=[[0,0.5],[1,0.5]];portConstraint=eastwest;fontColor=#999999;" vertex="1" parent="kOFa79KxeKtVWTGNYDuU-84">
          <mxGeometry y="147" width="512" height="37" as="geometry" />
        </mxCell>
        <mxCell id="kOFa79KxeKtVWTGNYDuU-126" value="&lt;font color=&quot;#3333ff&quot;&gt;&lt;u&gt;144452/558566s8d&lt;/u&gt;&lt;/font&gt;" style="shape=partialRectangle;html=1;whiteSpace=wrap;connectable=0;overflow=hidden;top=0;left=0;bottom=0;right=0;align=left;fontColor=#999999;" vertex="1" parent="kOFa79KxeKtVWTGNYDuU-125">
          <mxGeometry width="144" height="37" as="geometry" />
        </mxCell>
        <mxCell id="kOFa79KxeKtVWTGNYDuU-127" value="Yup, one here too" style="shape=partialRectangle;html=1;whiteSpace=wrap;connectable=0;overflow=hidden;top=0;left=0;bottom=0;right=0;align=left;fontColor=#999999;" vertex="1" parent="kOFa79KxeKtVWTGNYDuU-125">
          <mxGeometry x="144" width="150" height="37" as="geometry" />
        </mxCell>
        <mxCell id="kOFa79KxeKtVWTGNYDuU-128" value="Descriptions" style="shape=partialRectangle;html=1;whiteSpace=wrap;connectable=0;overflow=hidden;top=0;left=0;bottom=0;right=0;align=left;fontColor=#999999;" vertex="1" parent="kOFa79KxeKtVWTGNYDuU-125">
          <mxGeometry x="294" width="218" height="37" as="geometry" />
        </mxCell>
        <mxCell id="kOFa79KxeKtVWTGNYDuU-129" value="" style="rounded=0;whiteSpace=wrap;html=1;fontSize=20;align=left;fillColor=#3333FF;" vertex="1" parent="kOFa79KxeKtVWTGNYDuU-1">
          <mxGeometry x="577" y="2295" width="533" height="31" as="geometry" />
        </mxCell>
        <mxCell id="kOFa79KxeKtVWTGNYDuU-130" value="Sub-Datasets" style="text;html=1;strokeColor=none;fillColor=none;align=left;verticalAlign=middle;whiteSpace=wrap;rounded=0;labelPosition=center;verticalLabelPosition=middle;fontSize=16;fontStyle=1;fontColor=#FFFFFF;" vertex="1" parent="kOFa79KxeKtVWTGNYDuU-1">
          <mxGeometry x="580" y="2300" width="258" height="20" as="geometry" />
        </mxCell>
        <mxCell id="kOFa79KxeKtVWTGNYDuU-132" value="" style="rounded=0;whiteSpace=wrap;html=1;fillColor=#3333FF;" vertex="1" parent="kOFa79KxeKtVWTGNYDuU-1">
          <mxGeometry x="1161" y="1730" width="1069" height="60" as="geometry" />
        </mxCell>
        <mxCell id="kOFa79KxeKtVWTGNYDuU-133" value="&lt;font style=&quot;font-size: 14px&quot;&gt;FEEDBACK&lt;/font&gt;" style="rounded=1;whiteSpace=wrap;html=1;fillColor=#FF8000;strokeColor=#FF8000;fontColor=#FFFFFF;" vertex="1" parent="kOFa79KxeKtVWTGNYDuU-1">
          <mxGeometry x="2098" y="1740" width="120" height="40" as="geometry" />
        </mxCell>
        <mxCell id="kOFa79KxeKtVWTGNYDuU-134" value="" style="shape=image;html=1;verticalAlign=top;verticalLabelPosition=bottom;labelBackgroundColor=#ffffff;imageAspect=0;aspect=fixed;image=https://cdn3.iconfinder.com/data/icons/social-media-2125/78/bell-128.png;strokeColor=#FF8000;fillColor=#FF8000;fontColor=#FFFFFF;" vertex="1" parent="kOFa79KxeKtVWTGNYDuU-1">
          <mxGeometry x="2036" y="1740" width="37" height="37" as="geometry" />
        </mxCell>
        <mxCell id="kOFa79KxeKtVWTGNYDuU-135" value="" style="whiteSpace=wrap;html=1;shape=mxgraph.basic.octagon2;align=center;verticalAlign=middle;dx=12;shadow=0;sketch=0;fontSize=20;fontColor=#808080;fillColor=#FF8000;strokeColor=#FF8000;" vertex="1" parent="kOFa79KxeKtVWTGNYDuU-1">
          <mxGeometry x="1171" y="1736.5" width="56" height="42" as="geometry" />
        </mxCell>
        <mxCell id="kOFa79KxeKtVWTGNYDuU-136" value="Eva" style="text;html=1;strokeColor=none;fillColor=none;align=center;verticalAlign=middle;whiteSpace=wrap;rounded=0;shadow=0;sketch=0;fontSize=20;fontColor=#FFFFFF;fontStyle=1" vertex="1" parent="kOFa79KxeKtVWTGNYDuU-1">
          <mxGeometry x="1237" y="1750" width="40" height="20" as="geometry" />
        </mxCell>
        <mxCell id="kOFa79KxeKtVWTGNYDuU-137" value="" style="html=1;verticalLabelPosition=bottom;align=center;labelBackgroundColor=#ffffff;verticalAlign=top;strokeWidth=2;shadow=0;dashed=0;shape=mxgraph.ios7.icons.user;sketch=0;fontSize=20;fontColor=#FFFFFF;fillColor=#FFFFFF;" vertex="1" parent="kOFa79KxeKtVWTGNYDuU-1">
          <mxGeometry x="1884" y="1745" width="30" height="30" as="geometry" />
        </mxCell>
        <mxCell id="kOFa79KxeKtVWTGNYDuU-138" value="John Doe" style="text;html=1;strokeColor=none;fillColor=none;align=center;verticalAlign=middle;whiteSpace=wrap;rounded=0;shadow=0;sketch=0;fontSize=19;fontColor=#FFFFFF;" vertex="1" parent="kOFa79KxeKtVWTGNYDuU-1">
          <mxGeometry x="1927.5" y="1750" width="94" height="20" as="geometry" />
        </mxCell>
        <mxCell id="kOFa79KxeKtVWTGNYDuU-139" value="&amp;lt;Classification Here&amp;gt;" style="rounded=0;whiteSpace=wrap;html=1;shadow=0;sketch=0;fontSize=12;align=center;fillColor=#FFFF33;" vertex="1" parent="kOFa79KxeKtVWTGNYDuU-1">
          <mxGeometry x="1161" y="1710" width="1069" height="20" as="geometry" />
        </mxCell>
        <mxCell id="kOFa79KxeKtVWTGNYDuU-140" value="" style="rounded=0;whiteSpace=wrap;html=1;" vertex="1" parent="kOFa79KxeKtVWTGNYDuU-1">
          <mxGeometry x="1162" y="1790" width="1069" height="750" as="geometry" />
        </mxCell>
        <mxCell id="kOFa79KxeKtVWTGNYDuU-141" value="" style="line;strokeWidth=1;fillColor=none;align=left;verticalAlign=middle;spacingTop=-1;spacingLeft=3;spacingRight=3;rotatable=0;labelPosition=right;points=[];portConstraint=eastwest;sketch=0;direction=south;" vertex="1" parent="kOFa79KxeKtVWTGNYDuU-1">
          <mxGeometry x="1190" y="1869" width="8" height="671" as="geometry" />
        </mxCell>
        <mxCell id="kOFa79KxeKtVWTGNYDuU-142" value="" style="group;labelBackgroundColor=#ffffff;" connectable="0" vertex="1" parent="kOFa79KxeKtVWTGNYDuU-1">
          <mxGeometry x="1480" y="1801" width="555" height="60" as="geometry" />
        </mxCell>
        <mxCell id="kOFa79KxeKtVWTGNYDuU-143" value="" style="html=1;shadow=0;dashed=0;fillColor=#F8F9FA;strokeColor=none;fontSize=16;fontColor=#181819;align=left;spacing=15;" vertex="1" parent="kOFa79KxeKtVWTGNYDuU-142">
          <mxGeometry width="555" height="60" as="geometry" />
        </mxCell>
        <mxCell id="kOFa79KxeKtVWTGNYDuU-144" value="Search" style="html=1;shadow=0;dashed=0;shape=mxgraph.bootstrap.rrect;rSize=5;fontSize=14;fontColor=#6C767D;strokeColor=#CED4DA;fillColor=#ffffff;align=left;spacing=10;" vertex="1" parent="kOFa79KxeKtVWTGNYDuU-143">
          <mxGeometry width="470" height="40" relative="1" as="geometry">
            <mxPoint x="10" y="10" as="offset" />
          </mxGeometry>
        </mxCell>
        <mxCell id="kOFa79KxeKtVWTGNYDuU-145" value="" style="ellipse;whiteSpace=wrap;html=1;fillColor=#FFFFFF;" vertex="1" parent="kOFa79KxeKtVWTGNYDuU-143">
          <mxGeometry x="425.67961165048536" y="22" width="10.776699029126211" height="10" as="geometry" />
        </mxCell>
        <mxCell id="kOFa79KxeKtVWTGNYDuU-146" value="" style="endArrow=none;html=1;" edge="1" parent="kOFa79KxeKtVWTGNYDuU-143">
          <mxGeometry width="50" height="50" relative="1" as="geometry">
            <mxPoint x="436.4563106796116" y="32" as="sourcePoint" />
            <mxPoint x="436.4563106796116" y="32" as="targetPoint" />
            <Array as="points">
              <mxPoint x="447.23300970873777" y="40" />
            </Array>
          </mxGeometry>
        </mxCell>
        <mxCell id="kOFa79KxeKtVWTGNYDuU-147" value="" style="triangle;whiteSpace=wrap;html=1;rotation=90;fillColor=#000000;" vertex="1" parent="kOFa79KxeKtVWTGNYDuU-143">
          <mxGeometry x="458.00970873786395" y="25" width="10.776699029126211" height="10" as="geometry" />
        </mxCell>
        <mxCell id="kOFa79KxeKtVWTGNYDuU-148" value="" style="shape=ellipse;dashed=0;strokeColor=none;shadow=1;fontSize=13;align=center;verticalAlign=top;labelPosition=center;verticalLabelPosition=bottom;html=1;aspect=fixed;" vertex="1" parent="kOFa79KxeKtVWTGNYDuU-142">
          <mxGeometry x="492.5" y="10" width="40" height="40" as="geometry" />
        </mxCell>
        <mxCell id="kOFa79KxeKtVWTGNYDuU-149" value="" style="dashed=0;html=1;shape=mxgraph.gmdl.plus;strokeColor=#737373;strokeWidth=2;shadow=0;" vertex="1" parent="kOFa79KxeKtVWTGNYDuU-148">
          <mxGeometry x="12" y="12" width="16" height="16" as="geometry" />
        </mxCell>
        <mxCell id="kOFa79KxeKtVWTGNYDuU-150" value="" style="line;strokeWidth=1;fillColor=none;align=left;verticalAlign=middle;spacingTop=-1;spacingLeft=3;spacingRight=3;rotatable=0;labelPosition=right;points=[];portConstraint=eastwest;sketch=0;direction=west;" vertex="1" parent="kOFa79KxeKtVWTGNYDuU-1">
          <mxGeometry x="1163" y="1864" width="1067" height="8" as="geometry" />
        </mxCell>
        <mxCell id="kOFa79KxeKtVWTGNYDuU-151" value="" style="line;strokeWidth=1;fillColor=none;align=left;verticalAlign=middle;spacingTop=-1;spacingLeft=3;spacingRight=3;rotatable=0;labelPosition=right;points=[];portConstraint=eastwest;sketch=0;direction=south;" vertex="1" parent="kOFa79KxeKtVWTGNYDuU-1">
          <mxGeometry x="1466" y="1909" width="8" height="630" as="geometry" />
        </mxCell>
        <mxCell id="kOFa79KxeKtVWTGNYDuU-152" value="" style="perimeter=none;dashed=0;shape=mxgraph.gmdl.triangle;strokeColor=none;fillColor=#666666;direction=south;aspect=fixed;" vertex="1" parent="kOFa79KxeKtVWTGNYDuU-1">
          <mxGeometry x="1171" y="2203" width="8" height="16" as="geometry">
            <mxPoint x="-27" as="offset" />
          </mxGeometry>
        </mxCell>
        <mxCell id="kOFa79KxeKtVWTGNYDuU-153" value="" style="rounded=0;whiteSpace=wrap;html=1;fontSize=20;align=left;fillColor=#3333FF;" vertex="1" parent="kOFa79KxeKtVWTGNYDuU-1">
          <mxGeometry x="1194" y="1868" width="276" height="40" as="geometry" />
        </mxCell>
        <mxCell id="kOFa79KxeKtVWTGNYDuU-154" value="" style="html=1;shadow=0;dashed=0;shape=mxgraph.bootstrap.rrect;rSize=5;strokeColor=#DFDFDF;html=1;whiteSpace=wrap;fillColor=#FFFFFF;fontColor=#495057;" vertex="1" parent="kOFa79KxeKtVWTGNYDuU-1">
          <mxGeometry x="1197" y="1910" width="260" height="300" as="geometry" />
        </mxCell>
        <mxCell id="kOFa79KxeKtVWTGNYDuU-155" value="&lt;font style=&quot;font-size: 16px&quot;&gt;Dataset Title #1&lt;/font&gt;&lt;br&gt;Guide: 123456/1258d25s8f22f&lt;br&gt;other data goes here" style="html=1;shadow=0;dashed=0;shape=mxgraph.bootstrap.topButton;rSize=5;perimeter=none;whiteSpace=wrap;resizeWidth=1;align=left;spacing=10;verticalAlign=top;fillColor=#0085FC;strokeColor=#0085FC;fontColor=#ffffff;" vertex="1" parent="kOFa79KxeKtVWTGNYDuU-154">
          <mxGeometry width="260" height="100" relative="1" as="geometry" />
        </mxCell>
        <mxCell id="kOFa79KxeKtVWTGNYDuU-156" value="&lt;font style=&quot;font-size: 16px&quot;&gt;Dataset Title #2&lt;/font&gt;&lt;br&gt;Guide: 185576/58d6s8dd222dgf8&lt;br&gt;Other data goes here&lt;br&gt;&lt;br&gt;&lt;br&gt;" style="strokeColor=inherit;fillColor=inherit;gradientColor=inherit;fontColor=inherit;html=1;shadow=0;dashed=0;perimeter=none;whiteSpace=wrap;resizeWidth=1;align=left;spacing=10;" vertex="1" parent="kOFa79KxeKtVWTGNYDuU-154">
          <mxGeometry width="260" height="100" relative="1" as="geometry">
            <mxPoint y="100" as="offset" />
          </mxGeometry>
        </mxCell>
        <mxCell id="kOFa79KxeKtVWTGNYDuU-157" value="&lt;font style=&quot;font-size: 16px&quot;&gt;Dataset Title #3&lt;/font&gt;&lt;br&gt;Guide: 123456/88d55s6c8fs6&lt;br&gt;other data goes here&lt;br&gt;&lt;br&gt;&lt;br&gt;" style="strokeColor=inherit;fillColor=inherit;gradientColor=inherit;fontColor=inherit;html=1;shadow=0;dashed=0;shape=mxgraph.bootstrap.bottomButton;rSize=5;perimeter=none;whiteSpace=wrap;resizeWidth=1;resizeHeight=0;align=left;spacing=10;" vertex="1" parent="kOFa79KxeKtVWTGNYDuU-154">
          <mxGeometry y="1" width="260" height="100" relative="1" as="geometry">
            <mxPoint y="-100" as="offset" />
          </mxGeometry>
        </mxCell>
        <mxCell id="kOFa79KxeKtVWTGNYDuU-158" value="Datasets" style="text;html=1;strokeColor=none;fillColor=none;align=left;verticalAlign=middle;whiteSpace=wrap;rounded=0;labelPosition=center;verticalLabelPosition=middle;fontSize=16;fontStyle=1;fontColor=#FFFFFF;" vertex="1" parent="kOFa79KxeKtVWTGNYDuU-1">
          <mxGeometry x="1201" y="1878" width="258" height="20" as="geometry" />
        </mxCell>
        <mxCell id="kOFa79KxeKtVWTGNYDuU-159" value="" style="html=1;verticalLabelPosition=bottom;labelBackgroundColor=#ffffff;verticalAlign=top;shadow=0;dashed=0;strokeWidth=2;shape=mxgraph.ios7.misc.scroll_(vertical);fillColor=#a0a0a0;sketch=0;" vertex="1" parent="kOFa79KxeKtVWTGNYDuU-1">
          <mxGeometry x="1462" y="1917" width="6" height="80" as="geometry" />
        </mxCell>
        <mxCell id="kOFa79KxeKtVWTGNYDuU-160" value="" style="group" connectable="0" vertex="1" parent="kOFa79KxeKtVWTGNYDuU-1">
          <mxGeometry x="1470" y="1869" width="490" height="500" as="geometry" />
        </mxCell>
        <mxCell id="kOFa79KxeKtVWTGNYDuU-161" value="Dataset Title #1" style="shape=rect;fillColor=#ffffff;strokeColor=#eeeeee;shadow=1;fontColor=#000000;fontSize=23;fontStyle=0;verticalAlign=top;spacingBottom=0;spacingLeft=16;spacingTop=20;align=left;rounded=0;" vertex="1" parent="kOFa79KxeKtVWTGNYDuU-160">
          <mxGeometry width="490" height="500" as="geometry" />
        </mxCell>
        <mxCell id="kOFa79KxeKtVWTGNYDuU-162" value="Guide: 123456/1258d25s8f22f" style="text;fontSize=12;fontStyle=4;verticalAlign=middle;spacingBottom=0;spacingLeft=16;resizeWidth=1;fontColor=#0645AD;" vertex="1" parent="kOFa79KxeKtVWTGNYDuU-161">
          <mxGeometry width="490" height="20" relative="1" as="geometry">
            <mxPoint y="59" as="offset" />
          </mxGeometry>
        </mxCell>
        <mxCell id="kOFa79KxeKtVWTGNYDuU-163" value="Description:&#xa;&#xa;&#xa;Originating Org:&#xa;&#xa;Data Steward:&#xa;&#xa;Location:&#xa;&#xa;Format:&#xa;&#xa;Data Classification:&#xa;&#xa;RCS Value(s):&#xa;&#xa;PII:&#xa;&#xa;PII Type:&#xa;&#xa;System of Record:&#xa;&#xa;IMO Assigned:&#xa;" style="text;whiteSpace=wrap;fontSize=13;spacing=16;spacingTop=-4;resizeWidth=1;resizeHeight=1;fontStyle=1" vertex="1" parent="kOFa79KxeKtVWTGNYDuU-161">
          <mxGeometry width="150.7692307692308" height="333.3333333333333" relative="1" as="geometry">
            <mxPoint x="5" y="80" as="offset" />
          </mxGeometry>
        </mxCell>
        <mxCell id="kOFa79KxeKtVWTGNYDuU-164" value="Assign" style="shape=rect;strokeColor=#666666;fontColor=#333333;fontStyle=1;shadow=1;rounded=1;fillColor=#F8F9FA;" vertex="1" parent="kOFa79KxeKtVWTGNYDuU-161">
          <mxGeometry y="1" width="70" height="40" relative="1" as="geometry">
            <mxPoint x="8" y="-48" as="offset" />
          </mxGeometry>
        </mxCell>
        <mxCell id="kOFa79KxeKtVWTGNYDuU-165" value="Review" style="shape=rect;strokeColor=#666666;fontColor=#333333;fontStyle=1;shadow=1;sketch=0;rounded=1;fillColor=#F8F9FA;" vertex="1" parent="kOFa79KxeKtVWTGNYDuU-161">
          <mxGeometry y="1" width="70" height="40" relative="1" as="geometry">
            <mxPoint x="86" y="-48" as="offset" />
          </mxGeometry>
        </mxCell>
        <mxCell id="kOFa79KxeKtVWTGNYDuU-166" value="&amp;lt;Classification Here&amp;gt;" style="rounded=0;whiteSpace=wrap;html=1;shadow=0;sketch=0;fontSize=12;align=center;fillColor=#FFFF33;" vertex="1" parent="kOFa79KxeKtVWTGNYDuU-161">
          <mxGeometry y="0.6296296296296298" width="490" height="18.51851851851852" as="geometry" />
        </mxCell>
        <mxCell id="kOFa79KxeKtVWTGNYDuU-167" value="This dataset contains information that someone might find interesting. Who that person is and why they might care is anyone&#39;s guess." style="text;whiteSpace=wrap;fontSize=10;spacing=16;spacingTop=-4;resizeWidth=1;resizeHeight=1;" vertex="1" parent="kOFa79KxeKtVWTGNYDuU-161">
          <mxGeometry x="141.34615384615384" y="74.07407407407408" width="310.96153846153857" height="55.55555555555556" as="geometry" />
        </mxCell>
        <mxCell id="kOFa79KxeKtVWTGNYDuU-168" value="PPP/QQQ/RRR/ZZZ&#xa;" style="text;whiteSpace=wrap;fontSize=10;spacing=16;spacingTop=-4;resizeWidth=1;resizeHeight=1;" vertex="1" parent="kOFa79KxeKtVWTGNYDuU-161">
          <mxGeometry x="141.34615384615384" y="128.63037037037037" width="310.96153846153857" height="37.03703703703704" as="geometry" />
        </mxCell>
        <mxCell id="kOFa79KxeKtVWTGNYDuU-169" value="Bob Ross" style="text;whiteSpace=wrap;fontSize=10;spacing=16;spacingTop=-4;resizeWidth=1;resizeHeight=1;" vertex="1" parent="kOFa79KxeKtVWTGNYDuU-161">
          <mxGeometry x="141.34615384615384" y="157.40814814814814" width="310.96153846153857" height="37.03703703703704" as="geometry" />
        </mxCell>
        <mxCell id="kOFa79KxeKtVWTGNYDuU-170" value="Warehouse B" style="text;whiteSpace=wrap;fontSize=10;spacing=16;spacingTop=-4;resizeWidth=1;resizeHeight=1;" vertex="1" parent="kOFa79KxeKtVWTGNYDuU-161">
          <mxGeometry x="141.34615384615384" y="189.99592592592592" width="310.96153846153857" height="37.03703703703704" as="geometry" />
        </mxCell>
        <mxCell id="kOFa79KxeKtVWTGNYDuU-171" value="Paper, CD, DVD" style="text;whiteSpace=wrap;fontSize=10;spacing=16;spacingTop=-4;resizeWidth=1;resizeHeight=1;" vertex="1" parent="kOFa79KxeKtVWTGNYDuU-161">
          <mxGeometry x="141.34615384615384" y="220.0037037037037" width="310.96153846153857" height="37.03703703703704" as="geometry" />
        </mxCell>
        <mxCell id="kOFa79KxeKtVWTGNYDuU-172" value="Spooky" style="text;whiteSpace=wrap;fontSize=10;spacing=16;spacingTop=-4;resizeWidth=1;resizeHeight=1;" vertex="1" parent="kOFa79KxeKtVWTGNYDuU-161">
          <mxGeometry x="141.34615384615384" y="250.0014814814815" width="310.96153846153857" height="37.03703703703704" as="geometry" />
        </mxCell>
        <mxCell id="kOFa79KxeKtVWTGNYDuU-173" value="RCS 10-38 1a" style="text;whiteSpace=wrap;fontSize=10;spacing=16;spacingTop=-4;resizeWidth=1;resizeHeight=1;fontColor=#0645AD;fontStyle=4" vertex="1" parent="kOFa79KxeKtVWTGNYDuU-161">
          <mxGeometry x="141.34615384615384" y="279.99925925925925" width="310.96153846153857" height="37.03703703703704" as="geometry" />
        </mxCell>
        <mxCell id="kOFa79KxeKtVWTGNYDuU-174" value="Yes" style="text;whiteSpace=wrap;fontSize=10;spacing=16;spacingTop=-4;resizeWidth=1;resizeHeight=1;" vertex="1" parent="kOFa79KxeKtVWTGNYDuU-161">
          <mxGeometry x="141.34615384615384" y="309.99703703703705" width="310.96153846153857" height="37.03703703703704" as="geometry" />
        </mxCell>
        <mxCell id="kOFa79KxeKtVWTGNYDuU-175" value="US Persons" style="text;whiteSpace=wrap;fontSize=10;spacing=16;spacingTop=-4;resizeWidth=1;resizeHeight=1;" vertex="1" parent="kOFa79KxeKtVWTGNYDuU-161">
          <mxGeometry x="141.34615384615384" y="340.00481481481484" width="310.96153846153857" height="37.03703703703704" as="geometry" />
        </mxCell>
        <mxCell id="kOFa79KxeKtVWTGNYDuU-176" value="Rocky" style="text;whiteSpace=wrap;fontSize=10;spacing=16;spacingTop=-4;resizeWidth=1;resizeHeight=1;" vertex="1" parent="kOFa79KxeKtVWTGNYDuU-161">
          <mxGeometry x="141.34615384615384" y="370.00259259259263" width="310.96153846153857" height="37.03703703703704" as="geometry" />
        </mxCell>
        <mxCell id="kOFa79KxeKtVWTGNYDuU-177" value="Cindy-Luo Who" style="text;whiteSpace=wrap;fontSize=10;spacing=16;spacingTop=-4;resizeWidth=1;resizeHeight=1;" vertex="1" parent="kOFa79KxeKtVWTGNYDuU-161">
          <mxGeometry x="141.34615384615384" y="400.0025925925927" width="310.96153846153857" height="37.03703703703704" as="geometry" />
        </mxCell>
        <mxCell id="kOFa79KxeKtVWTGNYDuU-178" value="" style="shape=ellipse;dashed=0;strokeColor=none;shadow=1;fontSize=13;align=center;verticalAlign=top;labelPosition=center;verticalLabelPosition=bottom;html=1;aspect=fixed;fillColor=#F8F9FA;" vertex="1" parent="kOFa79KxeKtVWTGNYDuU-160">
          <mxGeometry x="378.1102362204725" y="30" width="22.145000742831673" height="22.145000742831673" as="geometry" />
        </mxCell>
        <mxCell id="kOFa79KxeKtVWTGNYDuU-179" value="" style="dashed=0;html=1;shape=mxgraph.gmdl.edit;strokeColor=none;fillColor=#737373;shadow=0;" vertex="1" parent="kOFa79KxeKtVWTGNYDuU-178">
          <mxGeometry x="7.118035953053038" y="7.118035953053038" width="7.908928836725598" height="7.908928836725598" as="geometry" />
        </mxCell>
        <mxCell id="kOFa79KxeKtVWTGNYDuU-180" value="" style="shape=ellipse;dashed=0;strokeColor=none;shadow=1;fontSize=13;align=center;verticalAlign=top;labelPosition=center;verticalLabelPosition=bottom;html=1;aspect=fixed;fillColor=#F8F9FA;" vertex="1" parent="kOFa79KxeKtVWTGNYDuU-160">
          <mxGeometry x="460.677165354331" y="30" width="22.145000742831673" height="22.145000742831673" as="geometry" />
        </mxCell>
        <mxCell id="kOFa79KxeKtVWTGNYDuU-181" value="" style="dashed=0;html=1;shape=mxgraph.gmdl.x;strokeColor=#737373;strokeWidth=2;shadow=0;" vertex="1" parent="kOFa79KxeKtVWTGNYDuU-180">
          <mxGeometry x="7.908928836725598" y="7.908928836725598" width="6.327143069380478" height="6.327143069380478" as="geometry" />
        </mxCell>
        <mxCell id="kOFa79KxeKtVWTGNYDuU-182" value="" style="shape=ellipse;dashed=0;strokeColor=none;shadow=1;fontSize=13;align=center;verticalAlign=top;labelPosition=center;verticalLabelPosition=bottom;html=1;aspect=fixed;rounded=1;sketch=0;fillColor=#F8F9FA;" vertex="1" parent="kOFa79KxeKtVWTGNYDuU-160">
          <mxGeometry x="406.6614173228349" y="30" width="22.145000742831673" height="22.145000742831673" as="geometry" />
        </mxCell>
        <mxCell id="kOFa79KxeKtVWTGNYDuU-183" value="" style="dashed=0;html=1;shape=mxgraph.gmdl.star;strokeColor=none;fillColor=#737373;shadow=0;" vertex="1" parent="kOFa79KxeKtVWTGNYDuU-182">
          <mxGeometry x="7.118035953053038" y="7.118035953053038" width="7.908928836725598" height="7.908928836725598" as="geometry" />
        </mxCell>
        <mxCell id="kOFa79KxeKtVWTGNYDuU-184" value="" style="shape=ellipse;dashed=0;strokeColor=none;shadow=1;fontSize=13;align=center;verticalAlign=top;labelPosition=center;verticalLabelPosition=bottom;html=1;aspect=fixed;rounded=1;sketch=0;fillColor=#F8F9FA;" vertex="1" parent="kOFa79KxeKtVWTGNYDuU-160">
          <mxGeometry x="433.66929133858287" y="30" width="22.145000742831673" height="22.145000742831673" as="geometry" />
        </mxCell>
        <mxCell id="kOFa79KxeKtVWTGNYDuU-185" value="" style="dashed=0;html=1;shape=mxgraph.gmdl.cloud;strokeColor=none;fillColor=#737373;shadow=0;" vertex="1" parent="kOFa79KxeKtVWTGNYDuU-184">
          <mxGeometry x="6.327143069380478" y="7.908928836725598" width="9.490714604070718" height="6.327143069380478" as="geometry" />
        </mxCell>
        <mxCell id="kOFa79KxeKtVWTGNYDuU-186" value="Fav:" style="text;html=1;strokeColor=none;fillColor=none;align=center;verticalAlign=middle;whiteSpace=wrap;rounded=0;shadow=0;sketch=0;fontSize=10;fontColor=#FFFFFF;" vertex="1" parent="kOFa79KxeKtVWTGNYDuU-1">
          <mxGeometry x="1400" y="1878" width="40" height="20" as="geometry" />
        </mxCell>
        <mxCell id="kOFa79KxeKtVWTGNYDuU-187" value="" style="shape=image;html=1;verticalAlign=top;verticalLabelPosition=bottom;labelBackgroundColor=#ffffff;imageAspect=0;aspect=fixed;image=https://cdn2.iconfinder.com/data/icons/font-awesome/1792/sort-alpha-asc-128.png;rounded=1;shadow=1;sketch=0;strokeColor=#000000;fillColor=#4285F4;fontSize=11;align=left;fontColor=#97D077;" vertex="1" parent="kOFa79KxeKtVWTGNYDuU-1">
          <mxGeometry x="1383" y="1881" width="15" height="15" as="geometry" />
        </mxCell>
        <mxCell id="kOFa79KxeKtVWTGNYDuU-188" value="" style="fillColor=#36B37E;strokeColor=none;rounded=1;arcSize=50;shadow=1;sketch=0;fontSize=11;fontColor=#FFFFFF;align=left;" vertex="1" parent="kOFa79KxeKtVWTGNYDuU-1">
          <mxGeometry x="1434" y="1881" width="30" height="16" as="geometry" />
        </mxCell>
        <mxCell id="kOFa79KxeKtVWTGNYDuU-237" value="" style="line;strokeWidth=1;fillColor=none;align=left;verticalAlign=middle;spacingTop=-1;spacingLeft=3;spacingRight=3;rotatable=0;labelPosition=right;points=[];portConstraint=eastwest;sketch=0;direction=south;" vertex="1" parent="kOFa79KxeKtVWTGNYDuU-1">
          <mxGeometry x="1959" y="1870" width="8" height="671" as="geometry" />
        </mxCell>
        <mxCell id="kOFa79KxeKtVWTGNYDuU-238" value="" style="line;strokeWidth=1;fillColor=none;align=left;verticalAlign=middle;spacingTop=-1;spacingLeft=3;spacingRight=3;rotatable=0;labelPosition=right;points=[];portConstraint=eastwest;sketch=0;direction=south;" vertex="1" parent="kOFa79KxeKtVWTGNYDuU-1">
          <mxGeometry x="2220" y="1910" width="15" height="630" as="geometry" />
        </mxCell>
        <mxCell id="kOFa79KxeKtVWTGNYDuU-240" value="" style="rounded=0;whiteSpace=wrap;html=1;fontSize=20;align=left;fillColor=#3333FF;" vertex="1" parent="kOFa79KxeKtVWTGNYDuU-1">
          <mxGeometry x="1963" y="1869" width="267" height="40" as="geometry" />
        </mxCell>
        <mxCell id="kOFa79KxeKtVWTGNYDuU-241" value="" style="html=1;shadow=0;dashed=0;shape=mxgraph.bootstrap.rrect;rSize=5;strokeColor=#DFDFDF;html=1;whiteSpace=wrap;fillColor=#FFFFFF;fontColor=#495057;" vertex="1" parent="kOFa79KxeKtVWTGNYDuU-1">
          <mxGeometry x="1966" y="1911" width="254" height="300" as="geometry" />
        </mxCell>
        <mxCell id="kOFa79KxeKtVWTGNYDuU-242" value="&lt;font style=&quot;font-size: 16px&quot;&gt;Sub-Dataset Title #1&lt;/font&gt;&lt;br&gt;Guide: 123456/1258d25s8f22f&lt;br&gt;other data goes here" style="html=1;shadow=0;dashed=0;shape=mxgraph.bootstrap.topButton;rSize=5;perimeter=none;whiteSpace=wrap;resizeWidth=1;align=left;spacing=10;verticalAlign=top;fillColor=#0085FC;strokeColor=#0085FC;fontColor=#ffffff;" vertex="1" parent="kOFa79KxeKtVWTGNYDuU-241">
          <mxGeometry width="254" height="100" relative="1" as="geometry" />
        </mxCell>
        <mxCell id="kOFa79KxeKtVWTGNYDuU-243" value="&lt;font style=&quot;font-size: 16px&quot;&gt;Sub-Dataset Title #2&lt;/font&gt;&lt;br&gt;Guide: 185576/58d6s8dd222dgf8&lt;br&gt;Other data goes here&lt;br&gt;&lt;br&gt;" style="strokeColor=inherit;fillColor=inherit;gradientColor=inherit;fontColor=inherit;html=1;shadow=0;dashed=0;perimeter=none;whiteSpace=wrap;resizeWidth=1;align=left;spacing=10;" vertex="1" parent="kOFa79KxeKtVWTGNYDuU-241">
          <mxGeometry width="254" height="100" relative="1" as="geometry">
            <mxPoint y="100" as="offset" />
          </mxGeometry>
        </mxCell>
        <mxCell id="kOFa79KxeKtVWTGNYDuU-244" value="&lt;font style=&quot;font-size: 16px&quot;&gt;Sub-Dataset Title #3&lt;/font&gt;&lt;br&gt;Guide: 123456/88d55s6c8fs6&lt;br&gt;other data goes here&lt;br&gt;&lt;br&gt;" style="strokeColor=inherit;fillColor=inherit;gradientColor=inherit;fontColor=inherit;html=1;shadow=0;dashed=0;shape=mxgraph.bootstrap.bottomButton;rSize=5;perimeter=none;whiteSpace=wrap;resizeWidth=1;resizeHeight=0;align=left;spacing=10;" vertex="1" parent="kOFa79KxeKtVWTGNYDuU-241">
          <mxGeometry y="1" width="254" height="100" relative="1" as="geometry">
            <mxPoint y="-100" as="offset" />
          </mxGeometry>
        </mxCell>
        <mxCell id="kOFa79KxeKtVWTGNYDuU-245" value="Sub-Dataset" style="text;html=1;strokeColor=none;fillColor=none;align=left;verticalAlign=middle;whiteSpace=wrap;rounded=0;labelPosition=center;verticalLabelPosition=middle;fontSize=16;fontStyle=1;fontColor=#FFFFFF;" vertex="1" parent="kOFa79KxeKtVWTGNYDuU-1">
          <mxGeometry x="1970" y="1879" width="250" height="20" as="geometry" />
        </mxCell>
        <mxCell id="kOFa79KxeKtVWTGNYDuU-246" value="" style="html=1;verticalLabelPosition=bottom;labelBackgroundColor=#ffffff;verticalAlign=top;shadow=0;dashed=0;strokeWidth=2;shape=mxgraph.ios7.misc.scroll_(vertical);fillColor=#a0a0a0;sketch=0;" vertex="1" parent="kOFa79KxeKtVWTGNYDuU-1">
          <mxGeometry x="2224" y="1917" width="6" height="80" as="geometry" />
        </mxCell>
        <mxCell id="kOFa79KxeKtVWTGNYDuU-250" value="" style="rounded=0;whiteSpace=wrap;html=1;fillColor=#3333FF;" vertex="1" parent="kOFa79KxeKtVWTGNYDuU-1">
          <mxGeometry x="2271" y="1730" width="1069" height="60" as="geometry" />
        </mxCell>
        <mxCell id="kOFa79KxeKtVWTGNYDuU-251" value="&lt;font style=&quot;font-size: 14px&quot;&gt;FEEDBACK&lt;/font&gt;" style="rounded=1;whiteSpace=wrap;html=1;fillColor=#FF8000;strokeColor=#FF8000;fontColor=#FFFFFF;" vertex="1" parent="kOFa79KxeKtVWTGNYDuU-1">
          <mxGeometry x="3208" y="1740" width="120" height="40" as="geometry" />
        </mxCell>
        <mxCell id="kOFa79KxeKtVWTGNYDuU-252" value="" style="shape=image;html=1;verticalAlign=top;verticalLabelPosition=bottom;labelBackgroundColor=#ffffff;imageAspect=0;aspect=fixed;image=https://cdn3.iconfinder.com/data/icons/social-media-2125/78/bell-128.png;strokeColor=#FF8000;fillColor=#FF8000;fontColor=#FFFFFF;" vertex="1" parent="kOFa79KxeKtVWTGNYDuU-1">
          <mxGeometry x="3146" y="1740" width="37" height="37" as="geometry" />
        </mxCell>
        <mxCell id="kOFa79KxeKtVWTGNYDuU-253" value="" style="whiteSpace=wrap;html=1;shape=mxgraph.basic.octagon2;align=center;verticalAlign=middle;dx=12;shadow=0;sketch=0;fontSize=20;fontColor=#808080;fillColor=#FF8000;strokeColor=#FF8000;" vertex="1" parent="kOFa79KxeKtVWTGNYDuU-1">
          <mxGeometry x="2281" y="1736.5" width="56" height="42" as="geometry" />
        </mxCell>
        <mxCell id="kOFa79KxeKtVWTGNYDuU-254" value="Eva" style="text;html=1;strokeColor=none;fillColor=none;align=center;verticalAlign=middle;whiteSpace=wrap;rounded=0;shadow=0;sketch=0;fontSize=20;fontColor=#FFFFFF;fontStyle=1" vertex="1" parent="kOFa79KxeKtVWTGNYDuU-1">
          <mxGeometry x="2347" y="1750" width="40" height="20" as="geometry" />
        </mxCell>
        <mxCell id="kOFa79KxeKtVWTGNYDuU-255" value="" style="html=1;verticalLabelPosition=bottom;align=center;labelBackgroundColor=#ffffff;verticalAlign=top;strokeWidth=2;shadow=0;dashed=0;shape=mxgraph.ios7.icons.user;sketch=0;fontSize=20;fontColor=#FFFFFF;fillColor=#FFFFFF;" vertex="1" parent="kOFa79KxeKtVWTGNYDuU-1">
          <mxGeometry x="2994" y="1745" width="30" height="30" as="geometry" />
        </mxCell>
        <mxCell id="kOFa79KxeKtVWTGNYDuU-256" value="John Doe" style="text;html=1;strokeColor=none;fillColor=none;align=center;verticalAlign=middle;whiteSpace=wrap;rounded=0;shadow=0;sketch=0;fontSize=19;fontColor=#FFFFFF;" vertex="1" parent="kOFa79KxeKtVWTGNYDuU-1">
          <mxGeometry x="3037.5" y="1750" width="94" height="20" as="geometry" />
        </mxCell>
        <mxCell id="kOFa79KxeKtVWTGNYDuU-257" value="&amp;lt;Classification Here&amp;gt;" style="rounded=0;whiteSpace=wrap;html=1;shadow=0;sketch=0;fontSize=12;align=center;fillColor=#FFFF33;" vertex="1" parent="kOFa79KxeKtVWTGNYDuU-1">
          <mxGeometry x="2271" y="1710" width="1069" height="20" as="geometry" />
        </mxCell>
        <mxCell id="kOFa79KxeKtVWTGNYDuU-258" value="" style="rounded=0;whiteSpace=wrap;html=1;" vertex="1" parent="kOFa79KxeKtVWTGNYDuU-1">
          <mxGeometry x="2271" y="1790" width="1069" height="750" as="geometry" />
        </mxCell>
        <mxCell id="kOFa79KxeKtVWTGNYDuU-259" value="" style="line;strokeWidth=1;fillColor=none;align=left;verticalAlign=middle;spacingTop=-1;spacingLeft=3;spacingRight=3;rotatable=0;labelPosition=right;points=[];portConstraint=eastwest;sketch=0;direction=south;" vertex="1" parent="kOFa79KxeKtVWTGNYDuU-1">
          <mxGeometry x="2526" y="1869" width="8" height="671" as="geometry" />
        </mxCell>
        <mxCell id="kOFa79KxeKtVWTGNYDuU-260" value="" style="group;labelBackgroundColor=#ffffff;" connectable="0" vertex="1" parent="kOFa79KxeKtVWTGNYDuU-1">
          <mxGeometry x="2590" y="1801" width="555" height="60" as="geometry" />
        </mxCell>
        <mxCell id="kOFa79KxeKtVWTGNYDuU-261" value="" style="html=1;shadow=0;dashed=0;fillColor=#F8F9FA;strokeColor=none;fontSize=16;fontColor=#181819;align=left;spacing=15;" vertex="1" parent="kOFa79KxeKtVWTGNYDuU-260">
          <mxGeometry width="555" height="60" as="geometry" />
        </mxCell>
        <mxCell id="kOFa79KxeKtVWTGNYDuU-262" value="Search" style="html=1;shadow=0;dashed=0;shape=mxgraph.bootstrap.rrect;rSize=5;fontSize=14;fontColor=#6C767D;strokeColor=#CED4DA;fillColor=#ffffff;align=left;spacing=10;" vertex="1" parent="kOFa79KxeKtVWTGNYDuU-261">
          <mxGeometry width="470" height="40" relative="1" as="geometry">
            <mxPoint x="10" y="10" as="offset" />
          </mxGeometry>
        </mxCell>
        <mxCell id="kOFa79KxeKtVWTGNYDuU-263" value="" style="ellipse;whiteSpace=wrap;html=1;fillColor=#FFFFFF;" vertex="1" parent="kOFa79KxeKtVWTGNYDuU-261">
          <mxGeometry x="425.67961165048536" y="22" width="10.776699029126211" height="10" as="geometry" />
        </mxCell>
        <mxCell id="kOFa79KxeKtVWTGNYDuU-264" value="" style="endArrow=none;html=1;" edge="1" parent="kOFa79KxeKtVWTGNYDuU-261">
          <mxGeometry width="50" height="50" relative="1" as="geometry">
            <mxPoint x="436.4563106796116" y="32" as="sourcePoint" />
            <mxPoint x="436.4563106796116" y="32" as="targetPoint" />
            <Array as="points">
              <mxPoint x="447.23300970873777" y="40" />
            </Array>
          </mxGeometry>
        </mxCell>
        <mxCell id="kOFa79KxeKtVWTGNYDuU-265" value="" style="triangle;whiteSpace=wrap;html=1;rotation=90;fillColor=#000000;" vertex="1" parent="kOFa79KxeKtVWTGNYDuU-261">
          <mxGeometry x="458.00970873786395" y="25" width="10.776699029126211" height="10" as="geometry" />
        </mxCell>
        <mxCell id="kOFa79KxeKtVWTGNYDuU-266" value="" style="shape=ellipse;dashed=0;strokeColor=none;shadow=1;fontSize=13;align=center;verticalAlign=top;labelPosition=center;verticalLabelPosition=bottom;html=1;aspect=fixed;" vertex="1" parent="kOFa79KxeKtVWTGNYDuU-260">
          <mxGeometry x="492.5" y="10" width="40" height="40" as="geometry" />
        </mxCell>
        <mxCell id="kOFa79KxeKtVWTGNYDuU-267" value="" style="dashed=0;html=1;shape=mxgraph.gmdl.plus;strokeColor=#737373;strokeWidth=2;shadow=0;" vertex="1" parent="kOFa79KxeKtVWTGNYDuU-266">
          <mxGeometry x="12" y="12" width="16" height="16" as="geometry" />
        </mxCell>
        <mxCell id="kOFa79KxeKtVWTGNYDuU-268" value="" style="line;strokeWidth=1;fillColor=none;align=left;verticalAlign=middle;spacingTop=-1;spacingLeft=3;spacingRight=3;rotatable=0;labelPosition=right;points=[];portConstraint=eastwest;sketch=0;direction=west;" vertex="1" parent="kOFa79KxeKtVWTGNYDuU-1">
          <mxGeometry x="2273" y="1864" width="1067" height="8" as="geometry" />
        </mxCell>
        <mxCell id="kOFa79KxeKtVWTGNYDuU-269" value="" style="line;strokeWidth=1;fillColor=none;align=left;verticalAlign=middle;spacingTop=-1;spacingLeft=3;spacingRight=3;rotatable=0;labelPosition=right;points=[];portConstraint=eastwest;sketch=0;direction=south;" vertex="1" parent="kOFa79KxeKtVWTGNYDuU-1">
          <mxGeometry x="2802" y="1909" width="8" height="630" as="geometry" />
        </mxCell>
        <mxCell id="kOFa79KxeKtVWTGNYDuU-270" value="" style="perimeter=none;dashed=0;shape=mxgraph.gmdl.triangle;strokeColor=none;fillColor=#666666;direction=south;aspect=fixed;" vertex="1" parent="kOFa79KxeKtVWTGNYDuU-1">
          <mxGeometry x="2516" y="2211" width="8" height="16" as="geometry">
            <mxPoint x="-27" as="offset" />
          </mxGeometry>
        </mxCell>
        <mxCell id="kOFa79KxeKtVWTGNYDuU-271" value="" style="rounded=0;whiteSpace=wrap;html=1;fontSize=20;align=left;fillColor=#3333FF;" vertex="1" parent="kOFa79KxeKtVWTGNYDuU-1">
          <mxGeometry x="2530" y="1868" width="276" height="40" as="geometry" />
        </mxCell>
        <mxCell id="kOFa79KxeKtVWTGNYDuU-272" value="" style="html=1;shadow=0;dashed=0;shape=mxgraph.bootstrap.rrect;rSize=5;strokeColor=#DFDFDF;html=1;whiteSpace=wrap;fillColor=#FFFFFF;fontColor=#495057;" vertex="1" parent="kOFa79KxeKtVWTGNYDuU-1">
          <mxGeometry x="2533" y="1910" width="260" height="300" as="geometry" />
        </mxCell>
        <mxCell id="kOFa79KxeKtVWTGNYDuU-273" value="&lt;font style=&quot;font-size: 16px&quot;&gt;Dataset Title #1&lt;/font&gt;&lt;br&gt;Guide: 123456/1258d25s8f22f&lt;br&gt;other data goes here" style="html=1;shadow=0;dashed=0;shape=mxgraph.bootstrap.topButton;rSize=5;perimeter=none;whiteSpace=wrap;resizeWidth=1;align=left;spacing=10;verticalAlign=top;fillColor=#0085FC;strokeColor=#0085FC;fontColor=#ffffff;" vertex="1" parent="kOFa79KxeKtVWTGNYDuU-272">
          <mxGeometry width="260" height="100" relative="1" as="geometry" />
        </mxCell>
        <mxCell id="kOFa79KxeKtVWTGNYDuU-274" value="&lt;font style=&quot;font-size: 16px&quot;&gt;Dataset Title #2&lt;/font&gt;&lt;br&gt;Guide: 185576/58d6s8dd222dgf8&lt;br&gt;Other data goes here&lt;br&gt;&lt;br&gt;&lt;br&gt;" style="strokeColor=inherit;fillColor=inherit;gradientColor=inherit;fontColor=inherit;html=1;shadow=0;dashed=0;perimeter=none;whiteSpace=wrap;resizeWidth=1;align=left;spacing=10;" vertex="1" parent="kOFa79KxeKtVWTGNYDuU-272">
          <mxGeometry width="260" height="100" relative="1" as="geometry">
            <mxPoint y="100" as="offset" />
          </mxGeometry>
        </mxCell>
        <mxCell id="kOFa79KxeKtVWTGNYDuU-275" value="&lt;font style=&quot;font-size: 16px&quot;&gt;Dataset Title #3&lt;/font&gt;&lt;br&gt;Guide: 123456/88d55s6c8fs6&lt;br&gt;other data goes here&lt;br&gt;&lt;br&gt;&lt;br&gt;" style="strokeColor=inherit;fillColor=inherit;gradientColor=inherit;fontColor=inherit;html=1;shadow=0;dashed=0;shape=mxgraph.bootstrap.bottomButton;rSize=5;perimeter=none;whiteSpace=wrap;resizeWidth=1;resizeHeight=0;align=left;spacing=10;" vertex="1" parent="kOFa79KxeKtVWTGNYDuU-272">
          <mxGeometry y="1" width="260" height="100" relative="1" as="geometry">
            <mxPoint y="-100" as="offset" />
          </mxGeometry>
        </mxCell>
        <mxCell id="kOFa79KxeKtVWTGNYDuU-276" value="Datasets" style="text;html=1;strokeColor=none;fillColor=none;align=left;verticalAlign=middle;whiteSpace=wrap;rounded=0;labelPosition=center;verticalLabelPosition=middle;fontSize=16;fontStyle=1;fontColor=#FFFFFF;" vertex="1" parent="kOFa79KxeKtVWTGNYDuU-1">
          <mxGeometry x="2537" y="1878" width="258" height="20" as="geometry" />
        </mxCell>
        <mxCell id="kOFa79KxeKtVWTGNYDuU-277" value="" style="html=1;verticalLabelPosition=bottom;labelBackgroundColor=#ffffff;verticalAlign=top;shadow=0;dashed=0;strokeWidth=2;shape=mxgraph.ios7.misc.scroll_(vertical);fillColor=#a0a0a0;sketch=0;" vertex="1" parent="kOFa79KxeKtVWTGNYDuU-1">
          <mxGeometry x="2798" y="1917" width="6" height="80" as="geometry" />
        </mxCell>
        <mxCell id="kOFa79KxeKtVWTGNYDuU-278" value="" style="group" connectable="0" vertex="1" parent="kOFa79KxeKtVWTGNYDuU-1">
          <mxGeometry x="2807" y="1869" width="530" height="500" as="geometry" />
        </mxCell>
        <mxCell id="kOFa79KxeKtVWTGNYDuU-279" value="Dataset Title #1" style="shape=rect;fillColor=#ffffff;strokeColor=#eeeeee;shadow=1;fontColor=#000000;fontSize=23;fontStyle=0;verticalAlign=top;spacingBottom=0;spacingLeft=16;spacingTop=20;align=left;rounded=0;" vertex="1" parent="kOFa79KxeKtVWTGNYDuU-278">
          <mxGeometry width="530" height="500" as="geometry" />
        </mxCell>
        <mxCell id="kOFa79KxeKtVWTGNYDuU-280" value="Guide: 123456/1258d25s8f22f" style="text;fontSize=12;fontStyle=4;verticalAlign=middle;spacingBottom=0;spacingLeft=16;resizeWidth=1;fontColor=#0645AD;" vertex="1" parent="kOFa79KxeKtVWTGNYDuU-279">
          <mxGeometry width="530" height="20" relative="1" as="geometry">
            <mxPoint y="59" as="offset" />
          </mxGeometry>
        </mxCell>
        <mxCell id="kOFa79KxeKtVWTGNYDuU-281" value="Description:&#xa;&#xa;&#xa;Originating Org:&#xa;&#xa;Data Steward:&#xa;&#xa;Location:&#xa;&#xa;Format:&#xa;&#xa;Data Classification:&#xa;&#xa;RCS Value(s):&#xa;&#xa;PII:&#xa;&#xa;PII Type:&#xa;&#xa;System of Record:&#xa;&#xa;IMO Assigned:&#xa;" style="text;whiteSpace=wrap;fontSize=13;spacing=16;spacingTop=-4;resizeWidth=1;resizeHeight=1;fontStyle=1" vertex="1" parent="kOFa79KxeKtVWTGNYDuU-279">
          <mxGeometry width="163.07692307692312" height="333.3333333333333" relative="1" as="geometry">
            <mxPoint x="5" y="80" as="offset" />
          </mxGeometry>
        </mxCell>
        <mxCell id="kOFa79KxeKtVWTGNYDuU-282" value="Assign" style="shape=rect;strokeColor=#666666;fontColor=#333333;fontStyle=1;shadow=1;rounded=1;fillColor=#F8F9FA;" vertex="1" parent="kOFa79KxeKtVWTGNYDuU-279">
          <mxGeometry y="1" width="70" height="40" relative="1" as="geometry">
            <mxPoint x="8" y="-48" as="offset" />
          </mxGeometry>
        </mxCell>
        <mxCell id="kOFa79KxeKtVWTGNYDuU-283" value="Review" style="shape=rect;strokeColor=#666666;fontColor=#333333;fontStyle=1;shadow=1;sketch=0;rounded=1;fillColor=#F8F9FA;" vertex="1" parent="kOFa79KxeKtVWTGNYDuU-279">
          <mxGeometry y="1" width="70" height="40" relative="1" as="geometry">
            <mxPoint x="86" y="-48" as="offset" />
          </mxGeometry>
        </mxCell>
        <mxCell id="kOFa79KxeKtVWTGNYDuU-284" value="&amp;lt;Classification Here&amp;gt;" style="rounded=0;whiteSpace=wrap;html=1;shadow=0;sketch=0;fontSize=12;align=center;fillColor=#FFFF33;" vertex="1" parent="kOFa79KxeKtVWTGNYDuU-279">
          <mxGeometry y="0.6296296296296298" width="530" height="18.51851851851852" as="geometry" />
        </mxCell>
        <mxCell id="kOFa79KxeKtVWTGNYDuU-285" value="This dataset contains information that someone might find interesting. Who that person is and why they might care is anyone&#39;s guess." style="text;whiteSpace=wrap;fontSize=10;spacing=16;spacingTop=-4;resizeWidth=1;resizeHeight=1;" vertex="1" parent="kOFa79KxeKtVWTGNYDuU-279">
          <mxGeometry x="152.8846153846154" y="74.07407407407408" width="336.3461538461539" height="55.55555555555556" as="geometry" />
        </mxCell>
        <mxCell id="kOFa79KxeKtVWTGNYDuU-286" value="PPP/QQQ/RRR/ZZZ&#xa;" style="text;whiteSpace=wrap;fontSize=10;spacing=16;spacingTop=-4;resizeWidth=1;resizeHeight=1;" vertex="1" parent="kOFa79KxeKtVWTGNYDuU-279">
          <mxGeometry x="152.8846153846154" y="128.63037037037037" width="336.3461538461539" height="37.03703703703704" as="geometry" />
        </mxCell>
        <mxCell id="kOFa79KxeKtVWTGNYDuU-287" value="Bob Ross" style="text;whiteSpace=wrap;fontSize=10;spacing=16;spacingTop=-4;resizeWidth=1;resizeHeight=1;" vertex="1" parent="kOFa79KxeKtVWTGNYDuU-279">
          <mxGeometry x="152.8846153846154" y="157.40814814814814" width="336.3461538461539" height="37.03703703703704" as="geometry" />
        </mxCell>
        <mxCell id="kOFa79KxeKtVWTGNYDuU-288" value="Warehouse B" style="text;whiteSpace=wrap;fontSize=10;spacing=16;spacingTop=-4;resizeWidth=1;resizeHeight=1;" vertex="1" parent="kOFa79KxeKtVWTGNYDuU-279">
          <mxGeometry x="152.8846153846154" y="189.99592592592592" width="336.3461538461539" height="37.03703703703704" as="geometry" />
        </mxCell>
        <mxCell id="kOFa79KxeKtVWTGNYDuU-289" value="Paper, CD, DVD" style="text;whiteSpace=wrap;fontSize=10;spacing=16;spacingTop=-4;resizeWidth=1;resizeHeight=1;" vertex="1" parent="kOFa79KxeKtVWTGNYDuU-279">
          <mxGeometry x="152.8846153846154" y="220.0037037037037" width="336.3461538461539" height="37.03703703703704" as="geometry" />
        </mxCell>
        <mxCell id="kOFa79KxeKtVWTGNYDuU-290" value="Spooky" style="text;whiteSpace=wrap;fontSize=10;spacing=16;spacingTop=-4;resizeWidth=1;resizeHeight=1;" vertex="1" parent="kOFa79KxeKtVWTGNYDuU-279">
          <mxGeometry x="152.8846153846154" y="250.0014814814815" width="336.3461538461539" height="37.03703703703704" as="geometry" />
        </mxCell>
        <mxCell id="kOFa79KxeKtVWTGNYDuU-291" value="RCS 10-38 1a" style="text;whiteSpace=wrap;fontSize=10;spacing=16;spacingTop=-4;resizeWidth=1;resizeHeight=1;fontColor=#0645AD;fontStyle=4" vertex="1" parent="kOFa79KxeKtVWTGNYDuU-279">
          <mxGeometry x="152.8846153846154" y="279.99925925925925" width="336.3461538461539" height="37.03703703703704" as="geometry" />
        </mxCell>
        <mxCell id="kOFa79KxeKtVWTGNYDuU-292" value="Yes" style="text;whiteSpace=wrap;fontSize=10;spacing=16;spacingTop=-4;resizeWidth=1;resizeHeight=1;" vertex="1" parent="kOFa79KxeKtVWTGNYDuU-279">
          <mxGeometry x="152.8846153846154" y="309.99703703703705" width="336.3461538461539" height="37.03703703703704" as="geometry" />
        </mxCell>
        <mxCell id="kOFa79KxeKtVWTGNYDuU-293" value="US Persons" style="text;whiteSpace=wrap;fontSize=10;spacing=16;spacingTop=-4;resizeWidth=1;resizeHeight=1;" vertex="1" parent="kOFa79KxeKtVWTGNYDuU-279">
          <mxGeometry x="152.8846153846154" y="340.00481481481484" width="336.3461538461539" height="37.03703703703704" as="geometry" />
        </mxCell>
        <mxCell id="kOFa79KxeKtVWTGNYDuU-294" value="Rocky" style="text;whiteSpace=wrap;fontSize=10;spacing=16;spacingTop=-4;resizeWidth=1;resizeHeight=1;" vertex="1" parent="kOFa79KxeKtVWTGNYDuU-279">
          <mxGeometry x="152.8846153846154" y="370.00259259259263" width="336.3461538461539" height="37.03703703703704" as="geometry" />
        </mxCell>
        <mxCell id="kOFa79KxeKtVWTGNYDuU-295" value="Cindy-Luo Who" style="text;whiteSpace=wrap;fontSize=10;spacing=16;spacingTop=-4;resizeWidth=1;resizeHeight=1;" vertex="1" parent="kOFa79KxeKtVWTGNYDuU-279">
          <mxGeometry x="152.8846153846154" y="400.0025925925927" width="336.3461538461539" height="37.03703703703704" as="geometry" />
        </mxCell>
        <mxCell id="eDv5EzYt78fjVpNO_ZDk-0" value="Sub-Dataset" style="shape=rect;strokeColor=#666666;fontColor=#333333;fontStyle=1;shadow=1;sketch=0;rounded=1;fillColor=#F8F9FA;" vertex="1" parent="kOFa79KxeKtVWTGNYDuU-279">
          <mxGeometry x="453" y="451" width="70" height="40" as="geometry" />
        </mxCell>
        <mxCell id="kOFa79KxeKtVWTGNYDuU-296" value="" style="shape=ellipse;dashed=0;strokeColor=none;shadow=1;fontSize=13;align=center;verticalAlign=top;labelPosition=center;verticalLabelPosition=bottom;html=1;aspect=fixed;fillColor=#F8F9FA;" vertex="1" parent="kOFa79KxeKtVWTGNYDuU-278">
          <mxGeometry x="408.97637795275597" y="30" width="23.95275590551181" height="23.95275590551181" as="geometry" />
        </mxCell>
        <mxCell id="kOFa79KxeKtVWTGNYDuU-297" value="" style="dashed=0;html=1;shape=mxgraph.gmdl.edit;strokeColor=none;fillColor=#737373;shadow=0;" vertex="1" parent="kOFa79KxeKtVWTGNYDuU-296">
          <mxGeometry x="7.699100112485939" y="7.699100112485939" width="8.554555680539933" height="8.554555680539933" as="geometry" />
        </mxCell>
        <mxCell id="kOFa79KxeKtVWTGNYDuU-298" value="" style="shape=ellipse;dashed=0;strokeColor=none;shadow=1;fontSize=13;align=center;verticalAlign=top;labelPosition=center;verticalLabelPosition=bottom;html=1;aspect=fixed;fillColor=#F8F9FA;" vertex="1" parent="kOFa79KxeKtVWTGNYDuU-278">
          <mxGeometry x="498.2834645669294" y="30" width="23.95275590551181" height="23.95275590551181" as="geometry" />
        </mxCell>
        <mxCell id="kOFa79KxeKtVWTGNYDuU-299" value="" style="dashed=0;html=1;shape=mxgraph.gmdl.x;strokeColor=#737373;strokeWidth=2;shadow=0;" vertex="1" parent="kOFa79KxeKtVWTGNYDuU-298">
          <mxGeometry x="8.554555680539933" y="8.554555680539933" width="6.843644544431946" height="6.843644544431946" as="geometry" />
        </mxCell>
        <mxCell id="kOFa79KxeKtVWTGNYDuU-300" value="" style="shape=ellipse;dashed=0;strokeColor=none;shadow=1;fontSize=13;align=center;verticalAlign=top;labelPosition=center;verticalLabelPosition=bottom;html=1;aspect=fixed;rounded=1;sketch=0;fillColor=#F8F9FA;" vertex="1" parent="kOFa79KxeKtVWTGNYDuU-278">
          <mxGeometry x="439.85826771653564" y="30" width="23.95275590551181" height="23.95275590551181" as="geometry" />
        </mxCell>
        <mxCell id="kOFa79KxeKtVWTGNYDuU-301" value="" style="dashed=0;html=1;shape=mxgraph.gmdl.star;strokeColor=none;fillColor=#737373;shadow=0;" vertex="1" parent="kOFa79KxeKtVWTGNYDuU-300">
          <mxGeometry x="7.699100112485939" y="7.699100112485939" width="8.554555680539933" height="8.554555680539933" as="geometry" />
        </mxCell>
        <mxCell id="kOFa79KxeKtVWTGNYDuU-302" value="" style="shape=ellipse;dashed=0;strokeColor=none;shadow=1;fontSize=13;align=center;verticalAlign=top;labelPosition=center;verticalLabelPosition=bottom;html=1;aspect=fixed;rounded=1;sketch=0;fillColor=#F8F9FA;" vertex="1" parent="kOFa79KxeKtVWTGNYDuU-278">
          <mxGeometry x="469.0708661417325" y="30" width="23.95275590551181" height="23.95275590551181" as="geometry" />
        </mxCell>
        <mxCell id="kOFa79KxeKtVWTGNYDuU-303" value="" style="dashed=0;html=1;shape=mxgraph.gmdl.cloud;strokeColor=none;fillColor=#737373;shadow=0;" vertex="1" parent="kOFa79KxeKtVWTGNYDuU-302">
          <mxGeometry x="6.843644544431946" y="8.554555680539933" width="10.265466816647919" height="6.843644544431946" as="geometry" />
        </mxCell>
        <mxCell id="kOFa79KxeKtVWTGNYDuU-304" value="Fav:" style="text;html=1;strokeColor=none;fillColor=none;align=center;verticalAlign=middle;whiteSpace=wrap;rounded=0;shadow=0;sketch=0;fontSize=10;fontColor=#FFFFFF;" vertex="1" parent="kOFa79KxeKtVWTGNYDuU-1">
          <mxGeometry x="2736" y="1878" width="40" height="20" as="geometry" />
        </mxCell>
        <mxCell id="kOFa79KxeKtVWTGNYDuU-305" value="" style="shape=image;html=1;verticalAlign=top;verticalLabelPosition=bottom;labelBackgroundColor=#ffffff;imageAspect=0;aspect=fixed;image=https://cdn2.iconfinder.com/data/icons/font-awesome/1792/sort-alpha-asc-128.png;rounded=1;shadow=1;sketch=0;strokeColor=#000000;fillColor=#4285F4;fontSize=11;align=left;fontColor=#97D077;" vertex="1" parent="kOFa79KxeKtVWTGNYDuU-1">
          <mxGeometry x="2719" y="1881" width="15" height="15" as="geometry" />
        </mxCell>
        <mxCell id="kOFa79KxeKtVWTGNYDuU-306" value="" style="fillColor=#36B37E;strokeColor=none;rounded=1;arcSize=50;shadow=1;sketch=0;fontSize=11;fontColor=#FFFFFF;align=left;" vertex="1" parent="kOFa79KxeKtVWTGNYDuU-1">
          <mxGeometry x="2770" y="1881" width="30" height="16" as="geometry" />
        </mxCell>
        <mxCell id="kOFa79KxeKtVWTGNYDuU-307" value="PII Type" style="rounded=1;fillColor=#F1F2F4;strokeColor=none;html=1;fontColor=#596780;align=left;fontSize=12;spacingLeft=10;shadow=0;sketch=0;" vertex="1" parent="kOFa79KxeKtVWTGNYDuU-1">
          <mxGeometry x="2290" y="1960" width="230" height="30" as="geometry" />
        </mxCell>
        <mxCell id="kOFa79KxeKtVWTGNYDuU-308" value="" style="shape=triangle;direction=south;fillColor=#596780;strokeColor=none;html=1" vertex="1" parent="kOFa79KxeKtVWTGNYDuU-307">
          <mxGeometry x="1" y="0.5" width="12" height="6" relative="1" as="geometry">
            <mxPoint x="-20" y="-3" as="offset" />
          </mxGeometry>
        </mxCell>
        <mxCell id="kOFa79KxeKtVWTGNYDuU-309" value="Select RCS" style="rounded=1;fillColor=#F1F2F4;strokeColor=none;html=1;fontColor=#596780;align=left;fontSize=12;spacingLeft=10;shadow=0;sketch=0;" vertex="1" parent="kOFa79KxeKtVWTGNYDuU-1">
          <mxGeometry x="2290" y="1910" width="230" height="30" as="geometry" />
        </mxCell>
        <mxCell id="kOFa79KxeKtVWTGNYDuU-310" value="" style="shape=triangle;direction=south;fillColor=#596780;strokeColor=none;html=1" vertex="1" parent="kOFa79KxeKtVWTGNYDuU-309">
          <mxGeometry x="1" y="0.5" width="12" height="6" relative="1" as="geometry">
            <mxPoint x="-20" y="-3" as="offset" />
          </mxGeometry>
        </mxCell>
        <mxCell id="kOFa79KxeKtVWTGNYDuU-311" value="Record Type" style="rounded=1;fillColor=#F1F2F4;strokeColor=none;html=1;fontColor=#596780;align=left;fontSize=12;spacingLeft=10;shadow=0;sketch=0;" vertex="1" parent="kOFa79KxeKtVWTGNYDuU-1">
          <mxGeometry x="2290" y="2010" width="230" height="30" as="geometry" />
        </mxCell>
        <mxCell id="kOFa79KxeKtVWTGNYDuU-312" value="" style="shape=triangle;direction=south;fillColor=#596780;strokeColor=none;html=1" vertex="1" parent="kOFa79KxeKtVWTGNYDuU-311">
          <mxGeometry x="1" y="0.5" width="12" height="6" relative="1" as="geometry">
            <mxPoint x="-20" y="-3" as="offset" />
          </mxGeometry>
        </mxCell>
        <mxCell id="kOFa79KxeKtVWTGNYDuU-313" value="Select Format&amp;nbsp;" style="rounded=1;fillColor=#F1F2F4;strokeColor=none;html=1;fontColor=#596780;align=left;fontSize=12;spacingLeft=10;shadow=0;sketch=0;" vertex="1" parent="kOFa79KxeKtVWTGNYDuU-1">
          <mxGeometry x="2290" y="2059" width="230" height="30" as="geometry" />
        </mxCell>
        <mxCell id="kOFa79KxeKtVWTGNYDuU-314" value="" style="shape=triangle;direction=south;fillColor=#596780;strokeColor=none;html=1" vertex="1" parent="kOFa79KxeKtVWTGNYDuU-313">
          <mxGeometry x="1" y="0.5" width="12" height="6" relative="1" as="geometry">
            <mxPoint x="-20" y="-3" as="offset" />
          </mxGeometry>
        </mxCell>
        <mxCell id="kOFa79KxeKtVWTGNYDuU-315" value="Location" style="rounded=1;fillColor=#F1F2F4;strokeColor=none;html=1;fontColor=#596780;align=left;fontSize=12;spacingLeft=10;shadow=0;sketch=0;" vertex="1" parent="kOFa79KxeKtVWTGNYDuU-1">
          <mxGeometry x="2290" y="2104" width="230" height="30" as="geometry" />
        </mxCell>
        <mxCell id="kOFa79KxeKtVWTGNYDuU-316" value="" style="shape=triangle;direction=south;fillColor=#596780;strokeColor=none;html=1" vertex="1" parent="kOFa79KxeKtVWTGNYDuU-315">
          <mxGeometry x="1" y="0.5" width="12" height="6" relative="1" as="geometry">
            <mxPoint x="-20" y="-3" as="offset" />
          </mxGeometry>
        </mxCell>
        <mxCell id="kOFa79KxeKtVWTGNYDuU-317" value="&lt;font color=&quot;#000000&quot; style=&quot;font-size: 11px&quot;&gt;Originating Organization&lt;br&gt;&lt;/font&gt;" style="text;html=1;strokeColor=none;fillColor=none;align=left;verticalAlign=middle;whiteSpace=wrap;rounded=0;shadow=0;sketch=0;fontSize=11;fontColor=#0645AD;" vertex="1" parent="kOFa79KxeKtVWTGNYDuU-1">
          <mxGeometry x="2277.5" y="2160" width="179" height="20" as="geometry" />
        </mxCell>
        <mxCell id="kOFa79KxeKtVWTGNYDuU-318" value="Level 4" style="rounded=1;fillColor=#F1F2F4;strokeColor=none;html=1;fontColor=#596780;align=left;fontSize=12;spacingLeft=10;shadow=0;sketch=0;" vertex="1" parent="kOFa79KxeKtVWTGNYDuU-1">
          <mxGeometry x="2290" y="2297" width="80" height="30" as="geometry" />
        </mxCell>
        <mxCell id="kOFa79KxeKtVWTGNYDuU-319" value="" style="shape=triangle;direction=south;fillColor=#596780;strokeColor=none;html=1" vertex="1" parent="kOFa79KxeKtVWTGNYDuU-318">
          <mxGeometry x="1" y="0.5" width="12" height="6" relative="1" as="geometry">
            <mxPoint x="-20" y="-3" as="offset" />
          </mxGeometry>
        </mxCell>
        <mxCell id="kOFa79KxeKtVWTGNYDuU-320" value="Level 5" style="rounded=1;fillColor=#F1F2F4;strokeColor=none;html=1;fontColor=#596780;align=left;fontSize=12;spacingLeft=10;shadow=0;sketch=0;" vertex="1" parent="kOFa79KxeKtVWTGNYDuU-1">
          <mxGeometry x="2290" y="2339" width="80" height="30" as="geometry" />
        </mxCell>
        <mxCell id="kOFa79KxeKtVWTGNYDuU-321" value="" style="shape=triangle;direction=south;fillColor=#596780;strokeColor=none;html=1" vertex="1" parent="kOFa79KxeKtVWTGNYDuU-320">
          <mxGeometry x="1" y="0.5" width="12" height="6" relative="1" as="geometry">
            <mxPoint x="-20" y="-3" as="offset" />
          </mxGeometry>
        </mxCell>
        <mxCell id="kOFa79KxeKtVWTGNYDuU-322" value="Level 1" style="rounded=1;fillColor=#F1F2F4;strokeColor=none;html=1;fontColor=#596780;align=left;fontSize=12;spacingLeft=10;shadow=0;sketch=0;" vertex="1" parent="kOFa79KxeKtVWTGNYDuU-1">
          <mxGeometry x="2290" y="2183.5" width="80" height="30" as="geometry" />
        </mxCell>
        <mxCell id="kOFa79KxeKtVWTGNYDuU-323" value="" style="shape=triangle;direction=south;fillColor=#596780;strokeColor=none;html=1" vertex="1" parent="kOFa79KxeKtVWTGNYDuU-322">
          <mxGeometry x="1" y="0.5" width="12" height="6" relative="1" as="geometry">
            <mxPoint x="-20" y="-3" as="offset" />
          </mxGeometry>
        </mxCell>
        <mxCell id="kOFa79KxeKtVWTGNYDuU-324" value="Level 2" style="rounded=1;fillColor=#F1F2F4;strokeColor=none;html=1;fontColor=#596780;align=left;fontSize=12;spacingLeft=10;shadow=0;sketch=0;" vertex="1" parent="kOFa79KxeKtVWTGNYDuU-1">
          <mxGeometry x="2290" y="2219" width="80" height="30" as="geometry" />
        </mxCell>
        <mxCell id="kOFa79KxeKtVWTGNYDuU-325" value="" style="shape=triangle;direction=south;fillColor=#596780;strokeColor=none;html=1" vertex="1" parent="kOFa79KxeKtVWTGNYDuU-324">
          <mxGeometry x="1" y="0.5" width="12" height="6" relative="1" as="geometry">
            <mxPoint x="-20" y="-3" as="offset" />
          </mxGeometry>
        </mxCell>
        <mxCell id="kOFa79KxeKtVWTGNYDuU-326" value="Filter" style="html=1;shadow=0;dashed=0;shape=mxgraph.bootstrap.rrect;rSize=5;fillColor=#0085FC;strokeColor=none;fontColor=#FFFFFF;fontSize=14;" vertex="1" parent="kOFa79KxeKtVWTGNYDuU-1">
          <mxGeometry x="2360.5" y="2490" width="91" height="40" as="geometry" />
        </mxCell>
        <mxCell id="kOFa79KxeKtVWTGNYDuU-327" value="Cancel" style="html=1;shadow=0;dashed=0;shape=mxgraph.bootstrap.rrect;rSize=5;fillColor=#6C757D;strokeColor=none;fontColor=#FFFFFF;fontSize=14;" vertex="1" parent="kOFa79KxeKtVWTGNYDuU-1">
          <mxGeometry x="2456" y="2490" width="70" height="40" as="geometry" />
        </mxCell>
        <mxCell id="kOFa79KxeKtVWTGNYDuU-328" value="&lt;font color=&quot;#666666&quot; style=&quot;font-size: 16px;&quot;&gt;Filter&lt;/font&gt;" style="text;strokeColor=none;fillColor=none;html=1;fontSize=16;fontStyle=1;verticalAlign=middle;align=center;labelBackgroundColor=none;sketch=0;" vertex="1" parent="kOFa79KxeKtVWTGNYDuU-1">
          <mxGeometry x="2270" y="1867" width="77" height="32" as="geometry" />
        </mxCell>
        <mxCell id="kOFa79KxeKtVWTGNYDuU-329" value="Level 3" style="rounded=1;fillColor=#F1F2F4;strokeColor=none;html=1;fontColor=#596780;align=left;fontSize=12;spacingLeft=10;shadow=0;sketch=0;" vertex="1" parent="kOFa79KxeKtVWTGNYDuU-1">
          <mxGeometry x="2290" y="2258" width="80" height="30" as="geometry" />
        </mxCell>
        <mxCell id="kOFa79KxeKtVWTGNYDuU-330" value="" style="shape=triangle;direction=south;fillColor=#596780;strokeColor=none;html=1" vertex="1" parent="kOFa79KxeKtVWTGNYDuU-329">
          <mxGeometry x="1" y="0.5" width="12" height="6" relative="1" as="geometry">
            <mxPoint x="-20" y="-3" as="offset" />
          </mxGeometry>
        </mxCell>
        <mxCell id="kOFa79KxeKtVWTGNYDuU-331" value="" style="line;strokeWidth=1;fillColor=none;align=left;verticalAlign=middle;spacingTop=-1;spacingLeft=3;spacingRight=3;rotatable=0;labelPosition=right;points=[];portConstraint=eastwest;strokeColor=#E6E6E6;" vertex="1" parent="kOFa79KxeKtVWTGNYDuU-1">
          <mxGeometry x="2271" y="2478" width="259" height="8" as="geometry" />
        </mxCell>
        <mxCell id="kOFa79KxeKtVWTGNYDuU-378" value="" style="shape=rect;strokeColor=#eeeeee;shadow=1;align=left;fillColor=#FFFFFF;fontStyle=1" vertex="1" parent="kOFa79KxeKtVWTGNYDuU-1">
          <mxGeometry x="3380" y="1910" width="589" height="372" as="geometry" />
        </mxCell>
        <mxCell id="kOFa79KxeKtVWTGNYDuU-355" value="" style="shape=table;html=1;whiteSpace=wrap;startSize=0;container=1;collapsible=0;childLayout=tableLayout;shadow=0;fontColor=#999999;" vertex="1" parent="kOFa79KxeKtVWTGNYDuU-378">
          <mxGeometry x="21" y="111" width="549" height="239" as="geometry" />
        </mxCell>
        <mxCell id="kOFa79KxeKtVWTGNYDuU-356" value="" style="shape=partialRectangle;html=1;whiteSpace=wrap;collapsible=0;dropTarget=0;pointerEvents=0;top=0;left=0;bottom=0;right=0;points=[[0,0.5],[1,0.5]];portConstraint=eastwest;fontColor=#999999;" vertex="1" parent="kOFa79KxeKtVWTGNYDuU-355">
          <mxGeometry width="549" height="48" as="geometry" />
        </mxCell>
        <mxCell id="kOFa79KxeKtVWTGNYDuU-357" value="Guide" style="shape=partialRectangle;html=1;whiteSpace=wrap;connectable=0;overflow=hidden;top=0;left=0;bottom=0;right=0;align=left;fontColor=#999999;" vertex="1" parent="kOFa79KxeKtVWTGNYDuU-356">
          <mxGeometry width="154" height="48" as="geometry" />
        </mxCell>
        <mxCell id="kOFa79KxeKtVWTGNYDuU-358" value="&lt;blockquote style=&quot;margin: 0 0 0 40px ; border: none ; padding: 0px&quot;&gt;Title&lt;/blockquote&gt;" style="shape=partialRectangle;html=1;whiteSpace=wrap;connectable=0;overflow=hidden;top=0;left=0;bottom=0;right=0;align=left;fontColor=#999999;verticalAlign=middle;labelPosition=center;verticalLabelPosition=middle;spacingLeft=-40;" vertex="1" parent="kOFa79KxeKtVWTGNYDuU-356">
          <mxGeometry x="154" width="161" height="48" as="geometry" />
        </mxCell>
        <mxCell id="kOFa79KxeKtVWTGNYDuU-359" value="Description" style="shape=partialRectangle;html=1;whiteSpace=wrap;connectable=0;overflow=hidden;top=0;left=0;bottom=0;right=0;align=left;fontColor=#999999;" vertex="1" parent="kOFa79KxeKtVWTGNYDuU-356">
          <mxGeometry x="315" width="234" height="48" as="geometry" />
        </mxCell>
        <mxCell id="kOFa79KxeKtVWTGNYDuU-360" value="" style="shape=partialRectangle;html=1;whiteSpace=wrap;collapsible=0;dropTarget=0;pointerEvents=0;top=0;left=0;bottom=0;right=0;points=[[0,0.5],[1,0.5]];portConstraint=eastwest;fontColor=#999999;" vertex="1" parent="kOFa79KxeKtVWTGNYDuU-355">
          <mxGeometry y="48" width="549" height="48" as="geometry" />
        </mxCell>
        <mxCell id="kOFa79KxeKtVWTGNYDuU-361" value="144452/adfe44gs3" style="shape=partialRectangle;html=1;whiteSpace=wrap;connectable=0;overflow=hidden;top=0;left=0;bottom=0;right=0;align=left;fontColor=#3333FF;fontStyle=4" vertex="1" parent="kOFa79KxeKtVWTGNYDuU-360">
          <mxGeometry width="154" height="48" as="geometry" />
        </mxCell>
        <mxCell id="kOFa79KxeKtVWTGNYDuU-362" value="Title Text Here" style="shape=partialRectangle;html=1;whiteSpace=wrap;connectable=0;overflow=hidden;top=0;left=0;bottom=0;right=0;align=left;fontColor=#999999;" vertex="1" parent="kOFa79KxeKtVWTGNYDuU-360">
          <mxGeometry x="154" width="161" height="48" as="geometry" />
        </mxCell>
        <mxCell id="kOFa79KxeKtVWTGNYDuU-363" value="Description Text Here" style="shape=partialRectangle;html=1;whiteSpace=wrap;connectable=0;overflow=hidden;top=0;left=0;bottom=0;right=0;align=left;fontColor=#999999;" vertex="1" parent="kOFa79KxeKtVWTGNYDuU-360">
          <mxGeometry x="315" width="234" height="48" as="geometry" />
        </mxCell>
        <mxCell id="kOFa79KxeKtVWTGNYDuU-364" value="" style="shape=partialRectangle;html=1;whiteSpace=wrap;collapsible=0;dropTarget=0;pointerEvents=0;top=0;left=0;bottom=0;right=0;points=[[0,0.5],[1,0.5]];portConstraint=eastwest;fontColor=#999999;" vertex="1" parent="kOFa79KxeKtVWTGNYDuU-355">
          <mxGeometry y="96" width="549" height="49" as="geometry" />
        </mxCell>
        <mxCell id="kOFa79KxeKtVWTGNYDuU-365" value="144452/55d47dsdd" style="shape=partialRectangle;html=1;whiteSpace=wrap;connectable=0;overflow=hidden;top=0;left=0;bottom=0;right=0;align=left;fontStyle=4;fontColor=#3333FF;" vertex="1" parent="kOFa79KxeKtVWTGNYDuU-364">
          <mxGeometry width="154" height="49" as="geometry" />
        </mxCell>
        <mxCell id="kOFa79KxeKtVWTGNYDuU-366" value="Next Record Title Here" style="shape=partialRectangle;html=1;whiteSpace=wrap;connectable=0;overflow=hidden;top=0;left=0;bottom=0;right=0;align=left;fontColor=#999999;" vertex="1" parent="kOFa79KxeKtVWTGNYDuU-364">
          <mxGeometry x="154" width="161" height="49" as="geometry" />
        </mxCell>
        <mxCell id="kOFa79KxeKtVWTGNYDuU-367" value="Next Description here too" style="shape=partialRectangle;html=1;whiteSpace=wrap;connectable=0;overflow=hidden;top=0;left=0;bottom=0;right=0;align=left;fontColor=#999999;" vertex="1" parent="kOFa79KxeKtVWTGNYDuU-364">
          <mxGeometry x="315" width="234" height="49" as="geometry" />
        </mxCell>
        <mxCell id="kOFa79KxeKtVWTGNYDuU-368" style="shape=partialRectangle;html=1;whiteSpace=wrap;collapsible=0;dropTarget=0;pointerEvents=0;top=0;left=0;bottom=0;right=0;points=[[0,0.5],[1,0.5]];portConstraint=eastwest;fontColor=#999999;" vertex="1" parent="kOFa79KxeKtVWTGNYDuU-355">
          <mxGeometry y="145" width="549" height="48" as="geometry" />
        </mxCell>
        <mxCell id="kOFa79KxeKtVWTGNYDuU-369" value="&lt;span style=&quot;&quot;&gt;144452/54dssdd32&lt;/span&gt;" style="shape=partialRectangle;html=1;whiteSpace=wrap;connectable=0;overflow=hidden;top=0;left=0;bottom=0;right=0;align=left;fontStyle=4;fontColor=#3333FF;" vertex="1" parent="kOFa79KxeKtVWTGNYDuU-368">
          <mxGeometry width="154" height="48" as="geometry" />
        </mxCell>
        <mxCell id="kOFa79KxeKtVWTGNYDuU-370" value="Yes another record" style="shape=partialRectangle;html=1;whiteSpace=wrap;connectable=0;overflow=hidden;top=0;left=0;bottom=0;right=0;align=left;fontColor=#999999;" vertex="1" parent="kOFa79KxeKtVWTGNYDuU-368">
          <mxGeometry x="154" width="161" height="48" as="geometry" />
        </mxCell>
        <mxCell id="kOFa79KxeKtVWTGNYDuU-371" value="Descriptions" style="shape=partialRectangle;html=1;whiteSpace=wrap;connectable=0;overflow=hidden;top=0;left=0;bottom=0;right=0;align=left;fontColor=#999999;" vertex="1" parent="kOFa79KxeKtVWTGNYDuU-368">
          <mxGeometry x="315" width="234" height="48" as="geometry" />
        </mxCell>
        <mxCell id="kOFa79KxeKtVWTGNYDuU-372" style="shape=partialRectangle;html=1;whiteSpace=wrap;collapsible=0;dropTarget=0;pointerEvents=0;top=0;left=0;bottom=0;right=0;points=[[0,0.5],[1,0.5]];portConstraint=eastwest;fontColor=#999999;" vertex="1" parent="kOFa79KxeKtVWTGNYDuU-355">
          <mxGeometry y="193" width="549" height="46" as="geometry" />
        </mxCell>
        <mxCell id="kOFa79KxeKtVWTGNYDuU-373" value="&lt;font color=&quot;#3333ff&quot;&gt;&lt;u&gt;144452/558566s8d&lt;/u&gt;&lt;/font&gt;" style="shape=partialRectangle;html=1;whiteSpace=wrap;connectable=0;overflow=hidden;top=0;left=0;bottom=0;right=0;align=left;fontColor=#999999;" vertex="1" parent="kOFa79KxeKtVWTGNYDuU-372">
          <mxGeometry width="154" height="46" as="geometry" />
        </mxCell>
        <mxCell id="kOFa79KxeKtVWTGNYDuU-374" value="Yup, one here too" style="shape=partialRectangle;html=1;whiteSpace=wrap;connectable=0;overflow=hidden;top=0;left=0;bottom=0;right=0;align=left;fontColor=#999999;" vertex="1" parent="kOFa79KxeKtVWTGNYDuU-372">
          <mxGeometry x="154" width="161" height="46" as="geometry" />
        </mxCell>
        <mxCell id="kOFa79KxeKtVWTGNYDuU-375" value="Descriptions" style="shape=partialRectangle;html=1;whiteSpace=wrap;connectable=0;overflow=hidden;top=0;left=0;bottom=0;right=0;align=left;fontColor=#999999;" vertex="1" parent="kOFa79KxeKtVWTGNYDuU-372">
          <mxGeometry x="315" width="234" height="46" as="geometry" />
        </mxCell>
        <mxCell id="kOFa79KxeKtVWTGNYDuU-376" value="" style="rounded=0;whiteSpace=wrap;html=1;fontSize=20;align=left;fillColor=#3333FF;" vertex="1" parent="kOFa79KxeKtVWTGNYDuU-378">
          <mxGeometry x="10" y="70" width="560" height="31" as="geometry" />
        </mxCell>
        <mxCell id="kOFa79KxeKtVWTGNYDuU-377" value="Sub-Datasets" style="text;html=1;strokeColor=none;fillColor=none;align=left;verticalAlign=middle;whiteSpace=wrap;rounded=0;labelPosition=center;verticalLabelPosition=middle;fontSize=16;fontStyle=1;fontColor=#FFFFFF;" vertex="1" parent="kOFa79KxeKtVWTGNYDuU-378">
          <mxGeometry x="13" y="75" width="258" height="20" as="geometry" />
        </mxCell>
        <mxCell id="kOFa79KxeKtVWTGNYDuU-379" value="" style="shape=rect;strokeColor=#eeeeee;fillColor=#ffffff;resizeWidth=1;" vertex="1" parent="kOFa79KxeKtVWTGNYDuU-378">
          <mxGeometry width="589" height="64" relative="1" as="geometry" />
        </mxCell>
        <mxCell id="kOFa79KxeKtVWTGNYDuU-380" value="Dataset Title #1" style="text;fontSize=18;fontColor=#0288D1;fontStyle=1" vertex="1" parent="kOFa79KxeKtVWTGNYDuU-379">
          <mxGeometry width="235" height="20" relative="1" as="geometry">
            <mxPoint x="66" y="18" as="offset" />
          </mxGeometry>
        </mxCell>
        <mxCell id="kOFa79KxeKtVWTGNYDuU-381" value="" style="shape=image;html=1;verticalAlign=top;verticalLabelPosition=bottom;labelBackgroundColor=#ffffff;imageAspect=0;aspect=fixed;image=https://cdn0.iconfinder.com/data/icons/google-material-design-3-0/48/ic_assignment_ind_48px-128.png;fillColor=#0288D1;fontColor=#FFFFFF;" vertex="1" parent="kOFa79KxeKtVWTGNYDuU-379">
          <mxGeometry x="9" y="12" width="42" height="42" as="geometry" />
        </mxCell>
        <mxCell id="p-HyBWo84x4i6GyN0Qoi-0" value="Datasets" style="text;html=1;strokeColor=none;fillColor=none;align=left;verticalAlign=middle;whiteSpace=wrap;rounded=0;labelPosition=center;verticalLabelPosition=middle;fontSize=16;fontStyle=1;fontColor=#FFFFFF;" vertex="1" parent="kOFa79KxeKtVWTGNYDuU-1">
          <mxGeometry x="51" y="1801.5" width="80" height="39" as="geometry" />
        </mxCell>
        <mxCell id="p-HyBWo84x4i6GyN0Qoi-1" value="" style="group" connectable="0" vertex="1" parent="kOFa79KxeKtVWTGNYDuU-1">
          <mxGeometry x="990" y="1810" width="64" height="20" as="geometry" />
        </mxCell>
        <mxCell id="kOFa79KxeKtVWTGNYDuU-56" value="Fav:" style="text;html=1;strokeColor=none;fillColor=none;align=center;verticalAlign=middle;whiteSpace=wrap;rounded=0;shadow=0;sketch=0;fontSize=10;fontColor=#FFFFFF;" vertex="1" parent="p-HyBWo84x4i6GyN0Qoi-1">
          <mxGeometry width="40" height="20" as="geometry" />
        </mxCell>
        <mxCell id="e1a8Mvf2x-XjBfQX8XMT-17" value="Search" style="html=1;shadow=0;dashed=0;shape=mxgraph.bootstrap.rrect;rSize=5;fontSize=14;fontColor=#6C767D;strokeColor=#CED4DA;fillColor=#ffffff;align=left;spacing=10;" vertex="1" parent="kOFa79KxeKtVWTGNYDuU-1">
          <mxGeometry x="58.75" y="1850.5" width="231.25" height="35" as="geometry" />
        </mxCell>
        <mxCell id="e1a8Mvf2x-XjBfQX8XMT-18" value="Search Title" style="html=1;shadow=0;dashed=0;shape=mxgraph.bootstrap.rrect;rSize=5;fontSize=14;fontColor=#6C767D;strokeColor=#CED4DA;fillColor=#ffffff;align=left;spacing=10;" vertex="1" parent="kOFa79KxeKtVWTGNYDuU-1">
          <mxGeometry x="59.13" y="1898" width="231.25" height="35" as="geometry" />
        </mxCell>
        <mxCell id="e1a8Mvf2x-XjBfQX8XMT-19" value="" style="rounded=0;whiteSpace=wrap;html=1;fillColor=#3333FF;" vertex="1" parent="kOFa79KxeKtVWTGNYDuU-1">
          <mxGeometry x="41" y="2600" width="1069" height="60" as="geometry" />
        </mxCell>
        <mxCell id="e1a8Mvf2x-XjBfQX8XMT-20" value="&lt;font style=&quot;font-size: 14px&quot;&gt;FEEDBACK&lt;/font&gt;" style="rounded=1;whiteSpace=wrap;html=1;fillColor=#FF8000;strokeColor=#FF8000;fontColor=#FFFFFF;" vertex="1" parent="kOFa79KxeKtVWTGNYDuU-1">
          <mxGeometry x="978" y="2610" width="120" height="40" as="geometry" />
        </mxCell>
        <mxCell id="e1a8Mvf2x-XjBfQX8XMT-21" value="" style="shape=image;html=1;verticalAlign=top;verticalLabelPosition=bottom;labelBackgroundColor=#ffffff;imageAspect=0;aspect=fixed;image=https://cdn3.iconfinder.com/data/icons/social-media-2125/78/bell-128.png;strokeColor=#FF8000;fillColor=#FF8000;fontColor=#FFFFFF;" vertex="1" parent="kOFa79KxeKtVWTGNYDuU-1">
          <mxGeometry x="916" y="2610" width="37" height="37" as="geometry" />
        </mxCell>
        <mxCell id="e1a8Mvf2x-XjBfQX8XMT-22" value="" style="whiteSpace=wrap;html=1;shape=mxgraph.basic.octagon2;align=center;verticalAlign=middle;dx=12;shadow=0;sketch=0;fontSize=20;fontColor=#808080;fillColor=#FF8000;strokeColor=#FF8000;" vertex="1" parent="kOFa79KxeKtVWTGNYDuU-1">
          <mxGeometry x="51" y="2606.5" width="56" height="42" as="geometry" />
        </mxCell>
        <mxCell id="e1a8Mvf2x-XjBfQX8XMT-23" value="Eva" style="text;html=1;strokeColor=none;fillColor=none;align=center;verticalAlign=middle;whiteSpace=wrap;rounded=0;shadow=0;sketch=0;fontSize=20;fontColor=#FFFFFF;fontStyle=1" vertex="1" parent="kOFa79KxeKtVWTGNYDuU-1">
          <mxGeometry x="117" y="2620" width="40" height="20" as="geometry" />
        </mxCell>
        <mxCell id="e1a8Mvf2x-XjBfQX8XMT-24" value="" style="html=1;verticalLabelPosition=bottom;align=center;labelBackgroundColor=#ffffff;verticalAlign=top;strokeWidth=2;shadow=0;dashed=0;shape=mxgraph.ios7.icons.user;sketch=0;fontSize=20;fontColor=#FFFFFF;fillColor=#FFFFFF;" vertex="1" parent="kOFa79KxeKtVWTGNYDuU-1">
          <mxGeometry x="764" y="2615" width="30" height="30" as="geometry" />
        </mxCell>
        <mxCell id="e1a8Mvf2x-XjBfQX8XMT-25" value="John Doe" style="text;html=1;strokeColor=none;fillColor=none;align=center;verticalAlign=middle;whiteSpace=wrap;rounded=0;shadow=0;sketch=0;fontSize=19;fontColor=#FFFFFF;" vertex="1" parent="kOFa79KxeKtVWTGNYDuU-1">
          <mxGeometry x="807.5" y="2620" width="94" height="20" as="geometry" />
        </mxCell>
        <mxCell id="e1a8Mvf2x-XjBfQX8XMT-26" value="&amp;lt;Classification Here&amp;gt;" style="rounded=0;whiteSpace=wrap;html=1;shadow=0;sketch=0;fontSize=12;align=center;fillColor=#FFFF33;" vertex="1" parent="kOFa79KxeKtVWTGNYDuU-1">
          <mxGeometry x="41" y="2580" width="1069" height="20" as="geometry" />
        </mxCell>
        <mxCell id="e1a8Mvf2x-XjBfQX8XMT-27" value="" style="rounded=0;whiteSpace=wrap;html=1;" vertex="1" parent="kOFa79KxeKtVWTGNYDuU-1">
          <mxGeometry x="41" y="2659" width="1069" height="750" as="geometry" />
        </mxCell>
        <mxCell id="e1a8Mvf2x-XjBfQX8XMT-28" value="" style="line;strokeWidth=1;fillColor=none;align=left;verticalAlign=middle;spacingTop=-1;spacingLeft=3;spacingRight=3;rotatable=0;labelPosition=right;points=[];portConstraint=eastwest;sketch=0;direction=south;" vertex="1" parent="kOFa79KxeKtVWTGNYDuU-1">
          <mxGeometry x="296" y="2665" width="8" height="745" as="geometry" />
        </mxCell>
        <mxCell id="e1a8Mvf2x-XjBfQX8XMT-29" value="" style="line;strokeWidth=1;fillColor=none;align=left;verticalAlign=middle;spacingTop=-1;spacingLeft=3;spacingRight=3;rotatable=0;labelPosition=right;points=[];portConstraint=eastwest;sketch=0;direction=south;" vertex="1" parent="kOFa79KxeKtVWTGNYDuU-1">
          <mxGeometry x="572" y="2660" width="8" height="750" as="geometry" />
        </mxCell>
        <mxCell id="e1a8Mvf2x-XjBfQX8XMT-30" value="" style="perimeter=none;dashed=0;shape=mxgraph.gmdl.triangle;strokeColor=none;fillColor=#666666;direction=south;aspect=fixed;" vertex="1" parent="kOFa79KxeKtVWTGNYDuU-1">
          <mxGeometry x="285" y="3175" width="8" height="16" as="geometry">
            <mxPoint x="-27" as="offset" />
          </mxGeometry>
        </mxCell>
        <mxCell id="e1a8Mvf2x-XjBfQX8XMT-31" value="" style="html=1;shadow=0;dashed=0;shape=mxgraph.bootstrap.rrect;rSize=5;strokeColor=#DFDFDF;html=1;whiteSpace=wrap;fillColor=#FFFFFF;fontColor=#495057;" vertex="1" parent="kOFa79KxeKtVWTGNYDuU-1">
          <mxGeometry x="304" y="2730" width="260" height="300" as="geometry" />
        </mxCell>
        <mxCell id="e1a8Mvf2x-XjBfQX8XMT-32" value="&lt;font style=&quot;font-size: 16px&quot;&gt;Sub-Dataset Title #1&lt;/font&gt;&lt;br&gt;Guide: 123456/1258d25s8f22f&lt;br&gt;other data goes here" style="html=1;shadow=0;dashed=0;shape=mxgraph.bootstrap.topButton;rSize=5;perimeter=none;whiteSpace=wrap;resizeWidth=1;align=left;spacing=10;verticalAlign=top;fillColor=#0085FC;strokeColor=#0085FC;fontColor=#ffffff;" vertex="1" parent="e1a8Mvf2x-XjBfQX8XMT-31">
          <mxGeometry width="260" height="100" relative="1" as="geometry" />
        </mxCell>
        <mxCell id="e1a8Mvf2x-XjBfQX8XMT-33" value="&lt;font style=&quot;font-size: 16px&quot;&gt;Sub-Dataset Title #2&lt;/font&gt;&lt;br&gt;Guide: 185576/58d6s8dd222dgf8&lt;br&gt;Other data goes here&lt;br&gt;&lt;br&gt;" style="strokeColor=inherit;fillColor=inherit;gradientColor=inherit;fontColor=inherit;html=1;shadow=0;dashed=0;perimeter=none;whiteSpace=wrap;resizeWidth=1;align=left;spacing=10;" vertex="1" parent="e1a8Mvf2x-XjBfQX8XMT-31">
          <mxGeometry width="260" height="100" relative="1" as="geometry">
            <mxPoint y="100" as="offset" />
          </mxGeometry>
        </mxCell>
        <mxCell id="e1a8Mvf2x-XjBfQX8XMT-34" value="&lt;font style=&quot;font-size: 16px&quot;&gt;Sub-Dataset Title #3&lt;/font&gt;&lt;br&gt;Guide: 123456/88d55s6c8fs6&lt;br&gt;other data goes here&lt;br&gt;&lt;br&gt;" style="strokeColor=inherit;fillColor=inherit;gradientColor=inherit;fontColor=inherit;html=1;shadow=0;dashed=0;shape=mxgraph.bootstrap.bottomButton;rSize=5;perimeter=none;whiteSpace=wrap;resizeWidth=1;resizeHeight=0;align=left;spacing=10;" vertex="1" parent="e1a8Mvf2x-XjBfQX8XMT-31">
          <mxGeometry y="1" width="260" height="100" relative="1" as="geometry">
            <mxPoint y="-100" as="offset" />
          </mxGeometry>
        </mxCell>
        <mxCell id="e1a8Mvf2x-XjBfQX8XMT-35" value="" style="html=1;verticalLabelPosition=bottom;labelBackgroundColor=#ffffff;verticalAlign=top;shadow=0;dashed=0;strokeWidth=2;shape=mxgraph.ios7.misc.scroll_(vertical);fillColor=#a0a0a0;sketch=0;" vertex="1" parent="kOFa79KxeKtVWTGNYDuU-1">
          <mxGeometry x="568" y="2760" width="6" height="80" as="geometry" />
        </mxCell>
        <mxCell id="e1a8Mvf2x-XjBfQX8XMT-36" value="" style="group" connectable="0" vertex="1" parent="kOFa79KxeKtVWTGNYDuU-1">
          <mxGeometry x="1130" y="2620" width="530" height="500" as="geometry" />
        </mxCell>
        <mxCell id="e1a8Mvf2x-XjBfQX8XMT-37" value="Dataset Title #1" style="shape=rect;fillColor=#ffffff;strokeColor=#eeeeee;shadow=1;fontColor=#000000;fontSize=23;fontStyle=0;verticalAlign=top;spacingBottom=0;spacingLeft=16;spacingTop=20;align=left;rounded=0;" vertex="1" parent="e1a8Mvf2x-XjBfQX8XMT-36">
          <mxGeometry width="530" height="500" as="geometry" />
        </mxCell>
        <mxCell id="e1a8Mvf2x-XjBfQX8XMT-38" value="Guide: 123456/1258d25s8f22f" style="text;fontSize=12;fontStyle=4;verticalAlign=middle;spacingBottom=0;spacingLeft=16;resizeWidth=1;fontColor=#0645AD;" vertex="1" parent="e1a8Mvf2x-XjBfQX8XMT-37">
          <mxGeometry width="530" height="20" relative="1" as="geometry">
            <mxPoint y="59" as="offset" />
          </mxGeometry>
        </mxCell>
        <mxCell id="e1a8Mvf2x-XjBfQX8XMT-39" value="Description:&#xa;&#xa;&#xa;Originating Org:&#xa;&#xa;Data Steward:&#xa;&#xa;Location:&#xa;&#xa;Format:&#xa;&#xa;Data Classification:&#xa;&#xa;RCS Value(s):&#xa;&#xa;PII:&#xa;&#xa;PII Type:&#xa;&#xa;System of Record:&#xa;&#xa;IMO Assigned:&#xa;" style="text;whiteSpace=wrap;fontSize=13;spacing=16;spacingTop=-4;resizeWidth=1;resizeHeight=1;fontStyle=1" vertex="1" parent="e1a8Mvf2x-XjBfQX8XMT-37">
          <mxGeometry width="163.07692307692312" height="333.3333333333333" relative="1" as="geometry">
            <mxPoint x="5" y="80" as="offset" />
          </mxGeometry>
        </mxCell>
        <mxCell id="e1a8Mvf2x-XjBfQX8XMT-40" value="Assign" style="shape=rect;strokeColor=#666666;fontColor=#333333;fontStyle=1;shadow=1;rounded=1;fillColor=#F8F9FA;" vertex="1" parent="e1a8Mvf2x-XjBfQX8XMT-37">
          <mxGeometry y="1" width="70" height="40" relative="1" as="geometry">
            <mxPoint x="8" y="-47" as="offset" />
          </mxGeometry>
        </mxCell>
        <mxCell id="e1a8Mvf2x-XjBfQX8XMT-41" value="Review" style="shape=rect;strokeColor=#666666;fontColor=#333333;fontStyle=1;shadow=1;sketch=0;rounded=1;fillColor=#F8F9FA;" vertex="1" parent="e1a8Mvf2x-XjBfQX8XMT-37">
          <mxGeometry y="1" width="70" height="40" relative="1" as="geometry">
            <mxPoint x="86" y="-48" as="offset" />
          </mxGeometry>
        </mxCell>
        <mxCell id="e1a8Mvf2x-XjBfQX8XMT-42" value="&amp;lt;Classification Here&amp;gt;" style="rounded=0;whiteSpace=wrap;html=1;shadow=0;sketch=0;fontSize=12;align=center;fillColor=#FFFF33;" vertex="1" parent="e1a8Mvf2x-XjBfQX8XMT-37">
          <mxGeometry y="0.6296296296296298" width="530" height="18.51851851851852" as="geometry" />
        </mxCell>
        <mxCell id="e1a8Mvf2x-XjBfQX8XMT-43" value="This dataset contains information that someone might find interesting. Who that person is and why they might care is anyone&#39;s guess." style="text;whiteSpace=wrap;fontSize=10;spacing=16;spacingTop=-4;resizeWidth=1;resizeHeight=1;" vertex="1" parent="e1a8Mvf2x-XjBfQX8XMT-37">
          <mxGeometry x="152.8846153846154" y="74.07407407407408" width="336.3461538461539" height="55.55555555555556" as="geometry" />
        </mxCell>
        <mxCell id="e1a8Mvf2x-XjBfQX8XMT-44" value="PPP/QQQ/RRR/ZZZ&#xa;" style="text;whiteSpace=wrap;fontSize=10;spacing=16;spacingTop=-4;resizeWidth=1;resizeHeight=1;" vertex="1" parent="e1a8Mvf2x-XjBfQX8XMT-37">
          <mxGeometry x="152.8846153846154" y="128.63037037037037" width="336.3461538461539" height="37.03703703703704" as="geometry" />
        </mxCell>
        <mxCell id="e1a8Mvf2x-XjBfQX8XMT-45" value="Bob Ross" style="text;whiteSpace=wrap;fontSize=10;spacing=16;spacingTop=-4;resizeWidth=1;resizeHeight=1;" vertex="1" parent="e1a8Mvf2x-XjBfQX8XMT-37">
          <mxGeometry x="152.8846153846154" y="157.40814814814814" width="336.3461538461539" height="37.03703703703704" as="geometry" />
        </mxCell>
        <mxCell id="e1a8Mvf2x-XjBfQX8XMT-46" value="Warehouse B" style="text;whiteSpace=wrap;fontSize=10;spacing=16;spacingTop=-4;resizeWidth=1;resizeHeight=1;" vertex="1" parent="e1a8Mvf2x-XjBfQX8XMT-37">
          <mxGeometry x="152.8846153846154" y="189.99592592592592" width="336.3461538461539" height="37.03703703703704" as="geometry" />
        </mxCell>
        <mxCell id="e1a8Mvf2x-XjBfQX8XMT-47" value="Paper, CD, DVD" style="text;whiteSpace=wrap;fontSize=10;spacing=16;spacingTop=-4;resizeWidth=1;resizeHeight=1;" vertex="1" parent="e1a8Mvf2x-XjBfQX8XMT-37">
          <mxGeometry x="152.8846153846154" y="220.0037037037037" width="336.3461538461539" height="37.03703703703704" as="geometry" />
        </mxCell>
        <mxCell id="e1a8Mvf2x-XjBfQX8XMT-48" value="Spooky" style="text;whiteSpace=wrap;fontSize=10;spacing=16;spacingTop=-4;resizeWidth=1;resizeHeight=1;" vertex="1" parent="e1a8Mvf2x-XjBfQX8XMT-37">
          <mxGeometry x="152.8846153846154" y="250.0014814814815" width="336.3461538461539" height="37.03703703703704" as="geometry" />
        </mxCell>
        <mxCell id="e1a8Mvf2x-XjBfQX8XMT-49" value="RCS 10-38 1a" style="text;whiteSpace=wrap;fontSize=10;spacing=16;spacingTop=-4;resizeWidth=1;resizeHeight=1;fontColor=#0645AD;fontStyle=4" vertex="1" parent="e1a8Mvf2x-XjBfQX8XMT-37">
          <mxGeometry x="152.8846153846154" y="279.99925925925925" width="336.3461538461539" height="37.03703703703704" as="geometry" />
        </mxCell>
        <mxCell id="e1a8Mvf2x-XjBfQX8XMT-50" value="Yes" style="text;whiteSpace=wrap;fontSize=10;spacing=16;spacingTop=-4;resizeWidth=1;resizeHeight=1;" vertex="1" parent="e1a8Mvf2x-XjBfQX8XMT-37">
          <mxGeometry x="152.8846153846154" y="309.99703703703705" width="336.3461538461539" height="37.03703703703704" as="geometry" />
        </mxCell>
        <mxCell id="e1a8Mvf2x-XjBfQX8XMT-51" value="US Persons" style="text;whiteSpace=wrap;fontSize=10;spacing=16;spacingTop=-4;resizeWidth=1;resizeHeight=1;" vertex="1" parent="e1a8Mvf2x-XjBfQX8XMT-37">
          <mxGeometry x="152.8846153846154" y="340.00481481481484" width="336.3461538461539" height="37.03703703703704" as="geometry" />
        </mxCell>
        <mxCell id="e1a8Mvf2x-XjBfQX8XMT-52" value="Rocky" style="text;whiteSpace=wrap;fontSize=10;spacing=16;spacingTop=-4;resizeWidth=1;resizeHeight=1;" vertex="1" parent="e1a8Mvf2x-XjBfQX8XMT-37">
          <mxGeometry x="152.8846153846154" y="370.00259259259263" width="336.3461538461539" height="37.03703703703704" as="geometry" />
        </mxCell>
        <mxCell id="e1a8Mvf2x-XjBfQX8XMT-53" value="Cindy-Luo Who" style="text;whiteSpace=wrap;fontSize=10;spacing=16;spacingTop=-4;resizeWidth=1;resizeHeight=1;" vertex="1" parent="e1a8Mvf2x-XjBfQX8XMT-37">
          <mxGeometry x="152.8846153846154" y="400.0025925925927" width="336.3461538461539" height="37.03703703703704" as="geometry" />
        </mxCell>
        <mxCell id="e1a8Mvf2x-XjBfQX8XMT-54" value="" style="shape=ellipse;dashed=0;strokeColor=none;shadow=1;fontSize=13;align=center;verticalAlign=top;labelPosition=center;verticalLabelPosition=bottom;html=1;aspect=fixed;fillColor=#F8F9FA;" vertex="1" parent="e1a8Mvf2x-XjBfQX8XMT-36">
          <mxGeometry x="408.97637795275597" y="30" width="23.95275590551181" height="23.95275590551181" as="geometry" />
        </mxCell>
        <mxCell id="e1a8Mvf2x-XjBfQX8XMT-55" value="" style="dashed=0;html=1;shape=mxgraph.gmdl.edit;strokeColor=none;fillColor=#737373;shadow=0;" vertex="1" parent="e1a8Mvf2x-XjBfQX8XMT-54">
          <mxGeometry x="7.699100112485939" y="7.699100112485939" width="8.554555680539933" height="8.554555680539933" as="geometry" />
        </mxCell>
        <mxCell id="e1a8Mvf2x-XjBfQX8XMT-56" value="" style="shape=ellipse;dashed=0;strokeColor=none;shadow=1;fontSize=13;align=center;verticalAlign=top;labelPosition=center;verticalLabelPosition=bottom;html=1;aspect=fixed;fillColor=#F8F9FA;" vertex="1" parent="e1a8Mvf2x-XjBfQX8XMT-36">
          <mxGeometry x="498.2834645669294" y="30" width="23.95275590551181" height="23.95275590551181" as="geometry" />
        </mxCell>
        <mxCell id="e1a8Mvf2x-XjBfQX8XMT-57" value="" style="dashed=0;html=1;shape=mxgraph.gmdl.x;strokeColor=#737373;strokeWidth=2;shadow=0;" vertex="1" parent="e1a8Mvf2x-XjBfQX8XMT-56">
          <mxGeometry x="8.554555680539933" y="8.554555680539933" width="6.843644544431946" height="6.843644544431946" as="geometry" />
        </mxCell>
        <mxCell id="e1a8Mvf2x-XjBfQX8XMT-58" value="" style="shape=ellipse;dashed=0;strokeColor=none;shadow=1;fontSize=13;align=center;verticalAlign=top;labelPosition=center;verticalLabelPosition=bottom;html=1;aspect=fixed;rounded=1;sketch=0;fillColor=#F8F9FA;" vertex="1" parent="e1a8Mvf2x-XjBfQX8XMT-36">
          <mxGeometry x="439.85826771653564" y="30" width="23.95275590551181" height="23.95275590551181" as="geometry" />
        </mxCell>
        <mxCell id="e1a8Mvf2x-XjBfQX8XMT-59" value="" style="dashed=0;html=1;shape=mxgraph.gmdl.star;strokeColor=none;fillColor=#737373;shadow=0;" vertex="1" parent="e1a8Mvf2x-XjBfQX8XMT-58">
          <mxGeometry x="7.699100112485939" y="7.699100112485939" width="8.554555680539933" height="8.554555680539933" as="geometry" />
        </mxCell>
        <mxCell id="e1a8Mvf2x-XjBfQX8XMT-60" value="" style="shape=ellipse;dashed=0;strokeColor=none;shadow=1;fontSize=13;align=center;verticalAlign=top;labelPosition=center;verticalLabelPosition=bottom;html=1;aspect=fixed;rounded=1;sketch=0;fillColor=#F8F9FA;" vertex="1" parent="e1a8Mvf2x-XjBfQX8XMT-36">
          <mxGeometry x="469.0708661417325" y="30" width="23.95275590551181" height="23.95275590551181" as="geometry" />
        </mxCell>
        <mxCell id="e1a8Mvf2x-XjBfQX8XMT-61" value="" style="dashed=0;html=1;shape=mxgraph.gmdl.cloud;strokeColor=none;fillColor=#737373;shadow=0;" vertex="1" parent="e1a8Mvf2x-XjBfQX8XMT-60">
          <mxGeometry x="6.843644544431946" y="8.554555680539933" width="10.265466816647919" height="6.843644544431946" as="geometry" />
        </mxCell>
        <mxCell id="e1a8Mvf2x-XjBfQX8XMT-62" value="PII Type" style="rounded=1;fillColor=#F1F2F4;strokeColor=none;html=1;fontColor=#596780;align=left;fontSize=12;spacingLeft=10;shadow=0;sketch=0;" vertex="1" parent="kOFa79KxeKtVWTGNYDuU-1">
          <mxGeometry x="59" y="2924" width="230" height="30" as="geometry" />
        </mxCell>
        <mxCell id="e1a8Mvf2x-XjBfQX8XMT-63" value="" style="shape=triangle;direction=south;fillColor=#596780;strokeColor=none;html=1" vertex="1" parent="e1a8Mvf2x-XjBfQX8XMT-62">
          <mxGeometry x="1" y="0.5" width="12" height="6" relative="1" as="geometry">
            <mxPoint x="-20" y="-3" as="offset" />
          </mxGeometry>
        </mxCell>
        <mxCell id="e1a8Mvf2x-XjBfQX8XMT-64" value="Select RCS" style="rounded=1;fillColor=#F1F2F4;strokeColor=none;html=1;fontColor=#596780;align=left;fontSize=12;spacingLeft=10;shadow=0;sketch=0;" vertex="1" parent="kOFa79KxeKtVWTGNYDuU-1">
          <mxGeometry x="59" y="2874" width="230" height="30" as="geometry" />
        </mxCell>
        <mxCell id="e1a8Mvf2x-XjBfQX8XMT-65" value="" style="shape=triangle;direction=south;fillColor=#596780;strokeColor=none;html=1" vertex="1" parent="e1a8Mvf2x-XjBfQX8XMT-64">
          <mxGeometry x="1" y="0.5" width="12" height="6" relative="1" as="geometry">
            <mxPoint x="-20" y="-3" as="offset" />
          </mxGeometry>
        </mxCell>
        <mxCell id="e1a8Mvf2x-XjBfQX8XMT-66" value="Record Type" style="rounded=1;fillColor=#F1F2F4;strokeColor=none;html=1;fontColor=#596780;align=left;fontSize=12;spacingLeft=10;shadow=0;sketch=0;" vertex="1" parent="kOFa79KxeKtVWTGNYDuU-1">
          <mxGeometry x="59" y="2974" width="230" height="30" as="geometry" />
        </mxCell>
        <mxCell id="e1a8Mvf2x-XjBfQX8XMT-67" value="" style="shape=triangle;direction=south;fillColor=#596780;strokeColor=none;html=1" vertex="1" parent="e1a8Mvf2x-XjBfQX8XMT-66">
          <mxGeometry x="1" y="0.5" width="12" height="6" relative="1" as="geometry">
            <mxPoint x="-20" y="-3" as="offset" />
          </mxGeometry>
        </mxCell>
        <mxCell id="e1a8Mvf2x-XjBfQX8XMT-68" value="Select Format&amp;nbsp;" style="rounded=1;fillColor=#F1F2F4;strokeColor=none;html=1;fontColor=#596780;align=left;fontSize=12;spacingLeft=10;shadow=0;sketch=0;" vertex="1" parent="kOFa79KxeKtVWTGNYDuU-1">
          <mxGeometry x="59" y="3023" width="230" height="30" as="geometry" />
        </mxCell>
        <mxCell id="e1a8Mvf2x-XjBfQX8XMT-69" value="" style="shape=triangle;direction=south;fillColor=#596780;strokeColor=none;html=1" vertex="1" parent="e1a8Mvf2x-XjBfQX8XMT-68">
          <mxGeometry x="1" y="0.5" width="12" height="6" relative="1" as="geometry">
            <mxPoint x="-20" y="-3" as="offset" />
          </mxGeometry>
        </mxCell>
        <mxCell id="e1a8Mvf2x-XjBfQX8XMT-70" value="Location" style="rounded=1;fillColor=#F1F2F4;strokeColor=none;html=1;fontColor=#596780;align=left;fontSize=12;spacingLeft=10;shadow=0;sketch=0;" vertex="1" parent="kOFa79KxeKtVWTGNYDuU-1">
          <mxGeometry x="59" y="3068" width="230" height="30" as="geometry" />
        </mxCell>
        <mxCell id="e1a8Mvf2x-XjBfQX8XMT-71" value="" style="shape=triangle;direction=south;fillColor=#596780;strokeColor=none;html=1" vertex="1" parent="e1a8Mvf2x-XjBfQX8XMT-70">
          <mxGeometry x="1" y="0.5" width="12" height="6" relative="1" as="geometry">
            <mxPoint x="-20" y="-3" as="offset" />
          </mxGeometry>
        </mxCell>
        <mxCell id="e1a8Mvf2x-XjBfQX8XMT-72" value="&lt;font color=&quot;#000000&quot; style=&quot;font-size: 11px&quot;&gt;Originating Organization&lt;br&gt;&lt;/font&gt;" style="text;html=1;strokeColor=none;fillColor=none;align=left;verticalAlign=middle;whiteSpace=wrap;rounded=0;shadow=0;sketch=0;fontSize=11;fontColor=#0645AD;" vertex="1" parent="kOFa79KxeKtVWTGNYDuU-1">
          <mxGeometry x="46.5" y="3124" width="179" height="20" as="geometry" />
        </mxCell>
        <mxCell id="e1a8Mvf2x-XjBfQX8XMT-73" value="Level 4" style="rounded=1;fillColor=#F1F2F4;strokeColor=none;html=1;fontColor=#596780;align=left;fontSize=12;spacingLeft=10;shadow=0;sketch=0;" vertex="1" parent="kOFa79KxeKtVWTGNYDuU-1">
          <mxGeometry x="59.0000000000001" y="3261" width="80" height="30" as="geometry" />
        </mxCell>
        <mxCell id="e1a8Mvf2x-XjBfQX8XMT-74" value="" style="shape=triangle;direction=south;fillColor=#596780;strokeColor=none;html=1" vertex="1" parent="e1a8Mvf2x-XjBfQX8XMT-73">
          <mxGeometry x="1" y="0.5" width="12" height="6" relative="1" as="geometry">
            <mxPoint x="-20" y="-3" as="offset" />
          </mxGeometry>
        </mxCell>
        <mxCell id="e1a8Mvf2x-XjBfQX8XMT-75" value="Level 5" style="rounded=1;fillColor=#F1F2F4;strokeColor=none;html=1;fontColor=#596780;align=left;fontSize=12;spacingLeft=10;shadow=0;sketch=0;" vertex="1" parent="kOFa79KxeKtVWTGNYDuU-1">
          <mxGeometry x="59.00000000000004" y="3303" width="80" height="30" as="geometry" />
        </mxCell>
        <mxCell id="e1a8Mvf2x-XjBfQX8XMT-76" value="" style="shape=triangle;direction=south;fillColor=#596780;strokeColor=none;html=1" vertex="1" parent="e1a8Mvf2x-XjBfQX8XMT-75">
          <mxGeometry x="1" y="0.5" width="12" height="6" relative="1" as="geometry">
            <mxPoint x="-20" y="-3" as="offset" />
          </mxGeometry>
        </mxCell>
        <mxCell id="e1a8Mvf2x-XjBfQX8XMT-77" value="Level 1" style="rounded=1;fillColor=#F1F2F4;strokeColor=none;html=1;fontColor=#596780;align=left;fontSize=12;spacingLeft=10;shadow=0;sketch=0;" vertex="1" parent="kOFa79KxeKtVWTGNYDuU-1">
          <mxGeometry x="59.000000000000114" y="3147.5" width="80" height="30" as="geometry" />
        </mxCell>
        <mxCell id="e1a8Mvf2x-XjBfQX8XMT-78" value="" style="shape=triangle;direction=south;fillColor=#596780;strokeColor=none;html=1" vertex="1" parent="e1a8Mvf2x-XjBfQX8XMT-77">
          <mxGeometry x="1" y="0.5" width="12" height="6" relative="1" as="geometry">
            <mxPoint x="-20" y="-3" as="offset" />
          </mxGeometry>
        </mxCell>
        <mxCell id="e1a8Mvf2x-XjBfQX8XMT-79" value="Level 2" style="rounded=1;fillColor=#F1F2F4;strokeColor=none;html=1;fontColor=#596780;align=left;fontSize=12;spacingLeft=10;shadow=0;sketch=0;" vertex="1" parent="kOFa79KxeKtVWTGNYDuU-1">
          <mxGeometry x="59.000000000000114" y="3183" width="80" height="30" as="geometry" />
        </mxCell>
        <mxCell id="e1a8Mvf2x-XjBfQX8XMT-80" value="" style="shape=triangle;direction=south;fillColor=#596780;strokeColor=none;html=1" vertex="1" parent="e1a8Mvf2x-XjBfQX8XMT-79">
          <mxGeometry x="1" y="0.5" width="12" height="6" relative="1" as="geometry">
            <mxPoint x="-20" y="-3" as="offset" />
          </mxGeometry>
        </mxCell>
        <mxCell id="e1a8Mvf2x-XjBfQX8XMT-81" value="Filter" style="html=1;shadow=0;dashed=0;shape=mxgraph.bootstrap.rrect;rSize=5;fillColor=#0085FC;strokeColor=none;fontColor=#FFFFFF;fontSize=14;" vertex="1" parent="kOFa79KxeKtVWTGNYDuU-1">
          <mxGeometry x="129.25" y="3359" width="91" height="40" as="geometry" />
        </mxCell>
        <mxCell id="e1a8Mvf2x-XjBfQX8XMT-82" value="Cancel" style="html=1;shadow=0;dashed=0;shape=mxgraph.bootstrap.rrect;rSize=5;fillColor=#6C757D;strokeColor=none;fontColor=#FFFFFF;fontSize=14;" vertex="1" parent="kOFa79KxeKtVWTGNYDuU-1">
          <mxGeometry x="224.75" y="3359" width="70" height="40" as="geometry" />
        </mxCell>
        <mxCell id="e1a8Mvf2x-XjBfQX8XMT-83" value="&lt;font color=&quot;#666666&quot; style=&quot;font-size: 16px;&quot;&gt;Filter&lt;/font&gt;" style="text;strokeColor=none;fillColor=none;html=1;fontSize=16;fontStyle=1;verticalAlign=middle;align=center;labelBackgroundColor=none;sketch=0;" vertex="1" parent="kOFa79KxeKtVWTGNYDuU-1">
          <mxGeometry x="40.25" y="2720" width="77" height="32" as="geometry" />
        </mxCell>
        <mxCell id="e1a8Mvf2x-XjBfQX8XMT-84" value="Level 3" style="rounded=1;fillColor=#F1F2F4;strokeColor=none;html=1;fontColor=#596780;align=left;fontSize=12;spacingLeft=10;shadow=0;sketch=0;" vertex="1" parent="kOFa79KxeKtVWTGNYDuU-1">
          <mxGeometry x="59.000000000000114" y="3222" width="80" height="30" as="geometry" />
        </mxCell>
        <mxCell id="e1a8Mvf2x-XjBfQX8XMT-85" value="" style="shape=triangle;direction=south;fillColor=#596780;strokeColor=none;html=1" vertex="1" parent="e1a8Mvf2x-XjBfQX8XMT-84">
          <mxGeometry x="1" y="0.5" width="12" height="6" relative="1" as="geometry">
            <mxPoint x="-20" y="-3" as="offset" />
          </mxGeometry>
        </mxCell>
        <mxCell id="e1a8Mvf2x-XjBfQX8XMT-86" value="" style="line;strokeWidth=1;fillColor=none;align=left;verticalAlign=middle;spacingTop=-1;spacingLeft=3;spacingRight=3;rotatable=0;labelPosition=right;points=[];portConstraint=eastwest;strokeColor=#E6E6E6;" vertex="1" parent="kOFa79KxeKtVWTGNYDuU-1">
          <mxGeometry x="41" y="3312" width="259" height="8" as="geometry" />
        </mxCell>
        <mxCell id="e1a8Mvf2x-XjBfQX8XMT-87" value="" style="shape=table;html=1;whiteSpace=wrap;startSize=0;container=1;collapsible=0;childLayout=tableLayout;shadow=0;fontColor=#999999;" vertex="1" parent="kOFa79KxeKtVWTGNYDuU-1">
          <mxGeometry x="586" y="2740" width="504" height="184" as="geometry" />
        </mxCell>
        <mxCell id="e1a8Mvf2x-XjBfQX8XMT-88" value="" style="shape=partialRectangle;html=1;whiteSpace=wrap;collapsible=0;dropTarget=0;pointerEvents=0;top=0;left=0;bottom=0;right=0;points=[[0,0.5],[1,0.5]];portConstraint=eastwest;fontColor=#999999;" vertex="1" parent="e1a8Mvf2x-XjBfQX8XMT-87">
          <mxGeometry width="504" height="37" as="geometry" />
        </mxCell>
        <mxCell id="e1a8Mvf2x-XjBfQX8XMT-89" value="Guide" style="shape=partialRectangle;html=1;whiteSpace=wrap;connectable=0;overflow=hidden;top=0;left=0;bottom=0;right=0;align=left;fontStyle=1;fontSize=14;" vertex="1" parent="e1a8Mvf2x-XjBfQX8XMT-88">
          <mxGeometry width="144" height="37" as="geometry" />
        </mxCell>
        <mxCell id="e1a8Mvf2x-XjBfQX8XMT-90" value="&lt;blockquote style=&quot;margin: 0 0 0 40px ; border: none ; padding: 0px&quot;&gt;Title&lt;/blockquote&gt;" style="shape=partialRectangle;html=1;whiteSpace=wrap;connectable=0;overflow=hidden;top=0;left=0;bottom=0;right=0;align=left;fontColor=#999999;verticalAlign=middle;labelPosition=center;verticalLabelPosition=middle;spacingLeft=-40;" vertex="1" parent="e1a8Mvf2x-XjBfQX8XMT-88">
          <mxGeometry x="144" width="360" height="37" as="geometry" />
        </mxCell>
        <mxCell id="e1a8Mvf2x-XjBfQX8XMT-92" value="" style="shape=partialRectangle;html=1;whiteSpace=wrap;collapsible=0;dropTarget=0;pointerEvents=0;top=0;left=0;bottom=0;right=0;points=[[0,0.5],[1,0.5]];portConstraint=eastwest;fontColor=#999999;" vertex="1" parent="e1a8Mvf2x-XjBfQX8XMT-87">
          <mxGeometry y="37" width="504" height="37" as="geometry" />
        </mxCell>
        <mxCell id="e1a8Mvf2x-XjBfQX8XMT-93" value="Title" style="shape=partialRectangle;html=1;whiteSpace=wrap;connectable=0;overflow=hidden;top=0;left=0;bottom=0;right=0;align=left;fontStyle=1;fontSize=14;" vertex="1" parent="e1a8Mvf2x-XjBfQX8XMT-92">
          <mxGeometry width="144" height="37" as="geometry" />
        </mxCell>
        <mxCell id="e1a8Mvf2x-XjBfQX8XMT-94" value="Title Text Here" style="shape=partialRectangle;html=1;whiteSpace=wrap;connectable=0;overflow=hidden;top=0;left=0;bottom=0;right=0;align=left;fontColor=#999999;" vertex="1" parent="e1a8Mvf2x-XjBfQX8XMT-92">
          <mxGeometry x="144" width="360" height="37" as="geometry" />
        </mxCell>
        <mxCell id="e1a8Mvf2x-XjBfQX8XMT-96" value="" style="shape=partialRectangle;html=1;whiteSpace=wrap;collapsible=0;dropTarget=0;pointerEvents=0;top=0;left=0;bottom=0;right=0;points=[[0,0.5],[1,0.5]];portConstraint=eastwest;fontColor=#999999;" vertex="1" parent="e1a8Mvf2x-XjBfQX8XMT-87">
          <mxGeometry y="74" width="504" height="36" as="geometry" />
        </mxCell>
        <mxCell id="e1a8Mvf2x-XjBfQX8XMT-97" value="Description" style="shape=partialRectangle;html=1;whiteSpace=wrap;connectable=0;overflow=hidden;top=0;left=0;bottom=0;right=0;align=left;fontStyle=1;fontSize=14;" vertex="1" parent="e1a8Mvf2x-XjBfQX8XMT-96">
          <mxGeometry width="144" height="36" as="geometry" />
        </mxCell>
        <mxCell id="e1a8Mvf2x-XjBfQX8XMT-98" value="Next Record Title Here" style="shape=partialRectangle;html=1;whiteSpace=wrap;connectable=0;overflow=hidden;top=0;left=0;bottom=0;right=0;align=left;fontColor=#999999;" vertex="1" parent="e1a8Mvf2x-XjBfQX8XMT-96">
          <mxGeometry x="144" width="360" height="36" as="geometry" />
        </mxCell>
        <mxCell id="e1a8Mvf2x-XjBfQX8XMT-100" style="shape=partialRectangle;html=1;whiteSpace=wrap;collapsible=0;dropTarget=0;pointerEvents=0;top=0;left=0;bottom=0;right=0;points=[[0,0.5],[1,0.5]];portConstraint=eastwest;fontColor=#999999;" vertex="1" parent="e1a8Mvf2x-XjBfQX8XMT-87">
          <mxGeometry y="110" width="504" height="37" as="geometry" />
        </mxCell>
        <mxCell id="e1a8Mvf2x-XjBfQX8XMT-101" value="&lt;span style=&quot;font-size: 14px;&quot;&gt;Location&lt;/span&gt;" style="shape=partialRectangle;html=1;whiteSpace=wrap;connectable=0;overflow=hidden;top=0;left=0;bottom=0;right=0;align=left;fontStyle=1;fontSize=14;" vertex="1" parent="e1a8Mvf2x-XjBfQX8XMT-100">
          <mxGeometry width="144" height="37" as="geometry" />
        </mxCell>
        <mxCell id="e1a8Mvf2x-XjBfQX8XMT-102" value="Yes another record" style="shape=partialRectangle;html=1;whiteSpace=wrap;connectable=0;overflow=hidden;top=0;left=0;bottom=0;right=0;align=left;fontColor=#999999;" vertex="1" parent="e1a8Mvf2x-XjBfQX8XMT-100">
          <mxGeometry x="144" width="360" height="37" as="geometry" />
        </mxCell>
        <mxCell id="e1a8Mvf2x-XjBfQX8XMT-104" style="shape=partialRectangle;html=1;whiteSpace=wrap;collapsible=0;dropTarget=0;pointerEvents=0;top=0;left=0;bottom=0;right=0;points=[[0,0.5],[1,0.5]];portConstraint=eastwest;fontColor=#999999;" vertex="1" parent="e1a8Mvf2x-XjBfQX8XMT-87">
          <mxGeometry y="147" width="504" height="37" as="geometry" />
        </mxCell>
        <mxCell id="e1a8Mvf2x-XjBfQX8XMT-105" value="&lt;font style=&quot;font-size: 14px;&quot;&gt;&lt;span style=&quot;font-size: 14px;&quot;&gt;Format&lt;/span&gt;&lt;/font&gt;" style="shape=partialRectangle;html=1;whiteSpace=wrap;connectable=0;overflow=hidden;top=0;left=0;bottom=0;right=0;align=left;fontStyle=1;fontSize=14;" vertex="1" parent="e1a8Mvf2x-XjBfQX8XMT-104">
          <mxGeometry width="144" height="37" as="geometry" />
        </mxCell>
        <mxCell id="e1a8Mvf2x-XjBfQX8XMT-106" value="Yup, one here too" style="shape=partialRectangle;html=1;whiteSpace=wrap;connectable=0;overflow=hidden;top=0;left=0;bottom=0;right=0;align=left;fontColor=#999999;" vertex="1" parent="e1a8Mvf2x-XjBfQX8XMT-104">
          <mxGeometry x="144" width="360" height="37" as="geometry" />
        </mxCell>
        <mxCell id="e1a8Mvf2x-XjBfQX8XMT-108" value="" style="rounded=0;whiteSpace=wrap;html=1;fontSize=20;align=left;fillColor=#3333FF;" vertex="1" parent="kOFa79KxeKtVWTGNYDuU-1">
          <mxGeometry x="1140" y="3183" width="533" height="31" as="geometry" />
        </mxCell>
        <mxCell id="e1a8Mvf2x-XjBfQX8XMT-109" value="Sub-Datasets" style="text;html=1;strokeColor=none;fillColor=none;align=left;verticalAlign=middle;whiteSpace=wrap;rounded=0;labelPosition=center;verticalLabelPosition=middle;fontSize=16;fontStyle=1;fontColor=#FFFFFF;" vertex="1" parent="kOFa79KxeKtVWTGNYDuU-1">
          <mxGeometry x="1143" y="3188" width="258" height="20" as="geometry" />
        </mxCell>
        <mxCell id="e1a8Mvf2x-XjBfQX8XMT-110" value="Datasets" style="text;html=1;strokeColor=none;fillColor=none;align=left;verticalAlign=middle;whiteSpace=wrap;rounded=0;labelPosition=center;verticalLabelPosition=middle;fontSize=16;fontStyle=1;fontColor=#FFFFFF;" vertex="1" parent="kOFa79KxeKtVWTGNYDuU-1">
          <mxGeometry x="51.25" y="2728.5" width="80" height="39" as="geometry" />
        </mxCell>
        <mxCell id="e1a8Mvf2x-XjBfQX8XMT-113" value="Search" style="html=1;shadow=0;dashed=0;shape=mxgraph.bootstrap.rrect;rSize=5;fontSize=14;fontColor=#6C767D;strokeColor=#CED4DA;fillColor=#ffffff;align=left;spacing=10;" vertex="1" parent="kOFa79KxeKtVWTGNYDuU-1">
          <mxGeometry x="59" y="2777.5" width="231.25" height="35" as="geometry" />
        </mxCell>
        <mxCell id="e1a8Mvf2x-XjBfQX8XMT-114" value="Search Title" style="html=1;shadow=0;dashed=0;shape=mxgraph.bootstrap.rrect;rSize=5;fontSize=14;fontColor=#6C767D;strokeColor=#CED4DA;fillColor=#ffffff;align=left;spacing=10;" vertex="1" parent="kOFa79KxeKtVWTGNYDuU-1">
          <mxGeometry x="59.379999999999995" y="2825" width="231.25" height="35" as="geometry" />
        </mxCell>
        <mxCell id="e1a8Mvf2x-XjBfQX8XMT-115" value="" style="rounded=0;whiteSpace=wrap;html=1;fillColor=#3333FF;" vertex="1" parent="kOFa79KxeKtVWTGNYDuU-1">
          <mxGeometry x="41" y="2660" width="1069" height="60" as="geometry" />
        </mxCell>
        <mxCell id="e1a8Mvf2x-XjBfQX8XMT-116" value="Dataset Title #1" style="text;html=1;strokeColor=none;fillColor=none;align=left;verticalAlign=middle;whiteSpace=wrap;rounded=0;fontColor=#FFFFFF;fontSize=16;" vertex="1" parent="kOFa79KxeKtVWTGNYDuU-1">
          <mxGeometry x="51.25" y="2670" width="138.75" height="20" as="geometry" />
        </mxCell>
      </root>
    </mxGraphModel>
  </diagram>
</mxfile>
